<?xml version="1.0" ?>
<svg xmlns="http://www.w3.org/2000/svg" version="1.1" width="600.0" height="600.0" viewBox="-12.0 -12.0 600.0 600.0">
  <path d="M172.820748,228.340288 L286.299392,274.423785" fill="none" stroke="black" id="0-9"/>
  <path d="M576.000244,393.047028 L234.722220,383.888771" fill="none" stroke="black" id="1-3"/>
  <path d="M576.000244,393.047028 L451.347424,318.319148" fill="none" stroke="black" id="1-4"/>
  <path d="M576.000244,393.047028 L390.500063,575.999722" fill="none" stroke="black" id="1-7"/>
  <path d="M64.624038,120.855590 L344.824714,-0.000272" fill="none" stroke="black" id="2-5"/>
  <path d="M64.624038,120.855590 L-0.000154,397.710906" fill="none" stroke="black" id="2-8"/>
  <path d="M234.722220,383.888771 L286.299392,274.423785" fill="none" stroke="black" id="3-9"/>
  <path d="M451.347424,318.319148 L344.824714,-0.000272" fill="none" stroke="black" id="4-5"/>
  <path d="M344.824714,-0.000272 L426.678232,146.994318" fill="none" stroke="black" id="5-6"/>
  <path d="M390.500063,575.999722 L286.299392,274.423785" fill="none" stroke="black" id="7-9"/>
  <ellipse cx="172.82102394611886" cy="228.34000900534426" rx="8.0" ry="8.0" fill="#FFFFFF" stroke="black" id="0"/>
  <ellipse cx="576.0" cy="393.0466704277254" rx="8.0" ry="8.0" fill="#FFFFFF" stroke="black" id="1"/>
  <ellipse cx="64.62422087632251" cy="120.85543357935775" rx="8.0" ry="8.0" fill="#FFFFFF" stroke="black" id="2"/>
  <ellipse cx="234.72220730202199" cy="383.8886050454793" rx="8.0" ry="8.0" fill="#FFFFFF" stroke="black" id="3"/>
  <ellipse cx="451.3476206098394" cy="318.3192015815359" rx="8.0" ry="8.0" fill="#FFFFFF" stroke="black" id="4"/>
  <ellipse cx="344.8247384318785" cy="0.0" rx="8.0" ry="8.0" fill="#FFFFFF" stroke="black" id="5"/>
  <ellipse cx="426.6780737790832" cy="146.99413648725528" rx="8.0" ry="8.0" fill="#FFFFFF" stroke="black" id="6"/>
  <ellipse cx="390.49991987319345" cy="576.0" rx="8.0" ry="8.0" fill="#d62728" stroke="black" id="7"/>
  <ellipse cx="0.0" cy="397.7105241829532" rx="8.0" ry="8.0" fill="#d62728" stroke="black" id="8"/>
  <ellipse cx="286.29914227663096" cy="274.4237829798777" rx="8.0" ry="8.0" fill="#FFFFFF" stroke="black" id="9"/>
</svg>
