<?xml version="1.0" ?>
<svg xmlns="http://www.w3.org/2000/svg" version="1.1" width="600.0000000000001" height="600.0000000000001" viewBox="-12.0 -12.0 600.0000000000001 600.0000000000001">
  <path d="M371.626240,576.000000 L576.000000,469.756160" fill="none" stroke="black" id="0-9"/>
  <path d="M78.583040,0.000000 L335.246080,264.824320" fill="none" stroke="#c43c24" id="1-3"/>
  <path d="M78.583040,0.000000 L21.398400,384.454400" fill="none" stroke="#c43c24" id="1-4"/>
  <path d="M78.583040,0.000000 L576.000000,57.337600" fill="none" stroke="black" id="1-7"/>
  <path d="M219.283200,464.801280 L70.095360,469.758080" fill="none" stroke="#c43c24" id="2-5"/>
  <path d="M219.283200,464.801280 L543.360000,309.075200" fill="none" stroke="black" id="2-8"/>
  <path d="M335.246080,264.824320 L576.000000,469.756160" fill="none" stroke="#c43c24" id="3-9"/>
  <path d="M21.398400,384.454400 L70.095360,469.758080" fill="none" stroke="#c43c24" id="4-5"/>
  <path d="M70.095360,469.758080 L0.000000,576.000000" fill="none" stroke="black" id="5-6"/>
  <path d="M576.000000,57.337600 L576.000000,469.756160" fill="none" stroke="black" id="7-9"/>
  <ellipse cx="371.6264017502708" cy="576.0000000000001" rx="8.0" ry="8.0" fill="#FFFFFF" stroke="black" id="0"/>
  <ellipse cx="78.5828275890589" cy="0.0" rx="8.0" ry="8.0" fill="#FFFFFF" stroke="black" id="1"/>
  <ellipse cx="219.28301783838546" cy="464.80157982311863" rx="8.0" ry="8.0" fill="#d62728" stroke="black" id="2"/>
  <ellipse cx="335.2463354162238" cy="264.82405965379206" rx="8.0" ry="8.0" fill="#FFFFFF" stroke="black" id="3"/>
  <ellipse cx="21.39869813574868" cy="384.4541632148587" rx="8.0" ry="8.0" fill="#FFFFFF" stroke="black" id="4"/>
  <ellipse cx="70.09529142607312" cy="469.758176727092" rx="8.0" ry="8.0" fill="#FFFFFF" stroke="black" id="5"/>
  <ellipse cx="0.0" cy="576.0000000000001" rx="8.0" ry="8.0" fill="#FFFFFF" stroke="black" id="6"/>
  <ellipse cx="576.0000000000001" cy="57.33747618246107" rx="8.0" ry="8.0" fill="#FFFFFF" stroke="black" id="7"/>
  <ellipse cx="543.36" cy="309.0754416052922" rx="8.0" ry="8.0" fill="#FFFFFF" stroke="black" id="8"/>
  <ellipse cx="576.0000000000001" cy="469.75598760671693" rx="8.0" ry="8.0" fill="#d62728" stroke="black" id="9"/>
</svg>
