<?xml version="1.0" ?>
<svg xmlns="http://www.w3.org/2000/svg" version="1.1" width="600.0" height="600.0" viewBox="-12.0 -12.0 600.0 600.0">
  <path d="M-0.000243,31.719605 L345.615604,16.671722" fill="none" stroke="black" id="0-3"/>
  <path d="M-0.000243,31.719605 L106.669306,104.938252" fill="none" stroke="black" id="0-5"/>
  <path d="M-0.000243,31.719605 L191.970332,80.153711" fill="none" stroke="black" id="0-7"/>
  <path d="M151.108827,412.064744 L290.737338,576.000374" fill="none" stroke="#c43c24" id="1-2"/>
  <path d="M151.108827,412.064744 L106.669306,104.938252" fill="none" stroke="black" id="1-5"/>
  <path d="M151.108827,412.064744 L169.382124,495.168855" fill="none" stroke="#c43c24" id="1-6"/>
  <path d="M151.108827,412.064744 L191.970332,80.153711" fill="none" stroke="black" id="1-7"/>
  <path d="M151.108827,412.064744 L337.263922,472.502816" fill="none" stroke="black" id="1-8"/>
  <path d="M290.737338,576.000374 L345.615604,16.671722" fill="none" stroke="#c43c24" id="2-3"/>
  <path d="M345.615604,16.671722 L576.000072,0.000182" fill="none" stroke="#c43c24" id="3-9"/>
  <path d="M574.828461,66.226715 L191.970332,80.153711" fill="none" stroke="black" id="4-7"/>
  <path d="M574.828461,66.226715 L337.263922,472.502816" fill="none" stroke="black" id="4-8"/>
  <path d="M574.828461,66.226715 L576.000072,0.000182" fill="none" stroke="black" id="4-9"/>
  <path d="M106.669306,104.938252 L191.970332,80.153711" fill="none" stroke="black" id="5-7"/>
  <ellipse cx="0.0" cy="31.719612864255268" rx="8.0" ry="8.0" fill="#FFFFFF" stroke="black" id="0"/>
  <ellipse cx="151.10911408208938" cy="412.0647650963713" rx="8.0" ry="8.0" fill="#FFFFFF" stroke="black" id="1"/>
  <ellipse cx="290.7371704368007" cy="576.0" rx="8.0" ry="8.0" fill="#FFFFFF" stroke="black" id="2"/>
  <ellipse cx="345.6153461437908" cy="16.67150298752682" rx="8.0" ry="8.0" fill="#FFFFFF" stroke="black" id="3"/>
  <ellipse cx="574.8281727782636" cy="66.22712967627892" rx="8.0" ry="8.0" fill="#FFFFFF" stroke="black" id="4"/>
  <ellipse cx="106.66907024028392" cy="104.93810302045652" rx="8.0" ry="8.0" fill="#FFFFFF" stroke="black" id="5"/>
  <ellipse cx="169.38217178515373" cy="495.16885467399936" rx="8.0" ry="8.0" fill="#d62728" stroke="black" id="6"/>
  <ellipse cx="191.9703260398539" cy="80.15356306033995" rx="8.0" ry="8.0" fill="#FFFFFF" stroke="black" id="7"/>
  <ellipse cx="337.26385275995557" cy="472.5026522360141" rx="8.0" ry="8.0" fill="#FFFFFF" stroke="black" id="8"/>
  <ellipse cx="576.0" cy="0.0" rx="8.0" ry="8.0" fill="#d62728" stroke="black" id="9"/>
</svg>
