<?xml version="1.0" ?>
<svg xmlns="http://www.w3.org/2000/svg" version="1.1" width="600.0" height="600.0" viewBox="-12.0 -12.0 600.0 600.0">
  <path d="M406.480626,76.230493 L551.185567,263.380051" fill="none" stroke="black" id="0-3"/>
  <path d="M406.480626,76.230493 L275.779209,0.000073" fill="none" stroke="black" id="0-5"/>
  <path d="M406.480626,76.230493 L297.348478,264.407946" fill="none" stroke="black" id="0-7"/>
  <path d="M99.370881,407.225279 L377.196080,576.000231" fill="none" stroke="#c43c24" id="1-2"/>
  <path d="M99.370881,407.225279 L275.779209,0.000073" fill="none" stroke="black" id="1-5"/>
  <path d="M99.370881,407.225279 L-0.000059,375.610317" fill="none" stroke="#c43c24" id="1-6"/>
  <path d="M99.370881,407.225279 L297.348478,264.407946" fill="none" stroke="black" id="1-7"/>
  <path d="M99.370881,407.225279 L336.348541,355.756316" fill="none" stroke="black" id="1-8"/>
  <path d="M377.196080,576.000231 L551.185567,263.380051" fill="none" stroke="#c43c24" id="2-3"/>
  <path d="M551.185567,263.380051 L575.999803,58.754184" fill="none" stroke="#c43c24" id="3-9"/>
  <path d="M454.001784,327.910128 L297.348478,264.407946" fill="none" stroke="black" id="4-7"/>
  <path d="M454.001784,327.910128 L336.348541,355.756316" fill="none" stroke="black" id="4-8"/>
  <path d="M454.001784,327.910128 L575.999803,58.754184" fill="none" stroke="black" id="4-9"/>
  <path d="M275.779209,0.000073 L297.348478,264.407946" fill="none" stroke="black" id="5-7"/>
  <ellipse cx="406.48040343384804" cy="76.230689299014" rx="8.0" ry="8.0" fill="#FFFFFF" stroke="black" id="0"/>
  <ellipse cx="99.37111039250661" cy="407.22515124855863" rx="8.0" ry="8.0" fill="#FFFFFF" stroke="black" id="1"/>
  <ellipse cx="377.19584911066863" cy="576.0" rx="8.0" ry="8.0" fill="#FFFFFF" stroke="black" id="2"/>
  <ellipse cx="551.1855818287482" cy="263.3802683630502" rx="8.0" ry="8.0" fill="#FFFFFF" stroke="black" id="3"/>
  <ellipse cx="454.0016728761704" cy="327.9099400285774" rx="8.0" ry="8.0" fill="#FFFFFF" stroke="black" id="4"/>
  <ellipse cx="275.77930013307827" cy="0.0" rx="8.0" ry="8.0" fill="#FFFFFF" stroke="black" id="5"/>
  <ellipse cx="0.0" cy="375.6102775622686" rx="8.0" ry="8.0" fill="#d62728" stroke="black" id="6"/>
  <ellipse cx="297.34832076431877" cy="264.40799110014814" rx="8.0" ry="8.0" fill="#FFFFFF" stroke="black" id="7"/>
  <ellipse cx="336.3486773424884" cy="355.7565687710699" rx="8.0" ry="8.0" fill="#FFFFFF" stroke="black" id="8"/>
  <ellipse cx="576.0" cy="58.75430831510528" rx="8.0" ry="8.0" fill="#d62728" stroke="black" id="9"/>
</svg>
