<?xml version="1.0" ?>
<svg xmlns="http://www.w3.org/2000/svg" version="1.1" width="600.0" height="600.0000000000001" viewBox="-12.0 -12.0 600.0 600.0000000000001">
  <path d="M483.355851,245.009280 L52.417339,315.645440" fill="none" stroke="black" id="0-9"/>
  <path d="M303.268523,576.000000 L289.171354,371.045120" fill="none" stroke="#c43c24" id="1-3"/>
  <path d="M303.268523,576.000000 L420.185674,145.255680" fill="none" stroke="#c43c24" id="1-4"/>
  <path d="M303.268523,576.000000 L-0.000286,464.226560" fill="none" stroke="black" id="1-7"/>
  <path d="M307.699686,0.000000 L109.762661,120.922880" fill="none" stroke="#c43c24" id="2-5"/>
  <path d="M307.699686,0.000000 L414.476151,52.322560" fill="none" stroke="black" id="2-8"/>
  <path d="M289.171354,371.045120 L52.417339,315.645440" fill="none" stroke="#c43c24" id="3-9"/>
  <path d="M420.185674,145.255680 L109.762661,120.922880" fill="none" stroke="#c43c24" id="4-5"/>
  <path d="M109.762661,120.922880 L575.999940,108.382080" fill="none" stroke="black" id="5-6"/>
  <path d="M-0.000286,464.226560 L52.417339,315.645440" fill="none" stroke="black" id="7-9"/>
  <ellipse cx="483.35621256644066" cy="245.00951058704095" rx="8.0" ry="8.0" fill="#FFFFFF" stroke="black" id="0"/>
  <ellipse cx="303.2683105491038" cy="576.0000000000001" rx="8.0" ry="8.0" fill="#FFFFFF" stroke="black" id="1"/>
  <ellipse cx="307.69970423799526" cy="0.0" rx="8.0" ry="8.0" fill="#d62728" stroke="black" id="2"/>
  <ellipse cx="289.1719446952643" cy="371.04482892423346" rx="8.0" ry="8.0" fill="#FFFFFF" stroke="black" id="3"/>
  <ellipse cx="420.1853677781425" cy="145.25567933882172" rx="8.0" ry="8.0" fill="#FFFFFF" stroke="black" id="4"/>
  <ellipse cx="109.76209255621393" cy="120.92318014683215" rx="8.0" ry="8.0" fill="#FFFFFF" stroke="black" id="5"/>
  <ellipse cx="576.0" cy="108.38201803298074" rx="8.0" ry="8.0" fill="#FFFFFF" stroke="black" id="6"/>
  <ellipse cx="0.0" cy="464.2263879020176" rx="8.0" ry="8.0" fill="#FFFFFF" stroke="black" id="7"/>
  <ellipse cx="414.4759299426507" cy="52.32249475898016" rx="8.0" ry="8.0" fill="#FFFFFF" stroke="black" id="8"/>
  <ellipse cx="52.417927041508335" cy="315.64524610764596" rx="8.0" ry="8.0" fill="#d62728" stroke="black" id="9"/>
</svg>
