<?xml version="1.0" ?>
<svg xmlns="http://www.w3.org/2000/svg" version="1.1" width="600.0000000000001" height="600.0000000000001" viewBox="-12.0 -12.0 600.0000000000001 600.0000000000001">
  <path d="M576.000000,576.000000 L494.432000,557.690240" fill="none" stroke="black" id="0-9"/>
  <path d="M362.233600,64.363520 L33.557120,547.274880" fill="none" stroke="#c43c24" id="1-3"/>
  <path d="M362.233600,64.363520 L250.762880,401.908480" fill="none" stroke="#c43c24" id="1-4"/>
  <path d="M362.233600,64.363520 L576.000000,272.885120" fill="none" stroke="black" id="1-7"/>
  <path d="M289.084800,0.000000 L0.000000,143.603200" fill="none" stroke="#c43c24" id="2-5"/>
  <path d="M289.084800,0.000000 L217.040640,0.000000" fill="none" stroke="black" id="2-8"/>
  <path d="M33.557120,547.274880 L494.432000,557.690240" fill="none" stroke="#c43c24" id="3-9"/>
  <path d="M250.762880,401.908480 L0.000000,143.603200" fill="none" stroke="#c43c24" id="4-5"/>
  <path d="M0.000000,143.603200 L119.130880,313.176320" fill="none" stroke="black" id="5-6"/>
  <path d="M576.000000,272.885120 L494.432000,557.690240" fill="none" stroke="black" id="7-9"/>
  <ellipse cx="576.0000000000001" cy="576.0000000000001" rx="8.0" ry="8.0" fill="#FFFFFF" stroke="black" id="0"/>
  <ellipse cx="362.2333281202296" cy="64.36349498413088" rx="8.0" ry="8.0" fill="#FFFFFF" stroke="black" id="1"/>
  <ellipse cx="289.0850621938389" cy="0.0" rx="8.0" ry="8.0" fill="#d62728" stroke="black" id="2"/>
  <ellipse cx="33.55686490932644" cy="547.274945509347" rx="8.0" ry="8.0" fill="#FFFFFF" stroke="black" id="3"/>
  <ellipse cx="250.76303460086427" cy="401.9086889996858" rx="8.0" ry="8.0" fill="#FFFFFF" stroke="black" id="4"/>
  <ellipse cx="0.0" cy="143.60330584339744" rx="8.0" ry="8.0" fill="#FFFFFF" stroke="black" id="5"/>
  <ellipse cx="119.13058840848228" cy="313.1763183880704" rx="8.0" ry="8.0" fill="#FFFFFF" stroke="black" id="6"/>
  <ellipse cx="576.0000000000001" cy="272.88512386918256" rx="8.0" ry="8.0" fill="#FFFFFF" stroke="black" id="7"/>
  <ellipse cx="217.04044671356834" cy="0.0" rx="8.0" ry="8.0" fill="#FFFFFF" stroke="black" id="8"/>
  <ellipse cx="494.4317272963616" cy="557.6903762588519" rx="8.0" ry="8.0" fill="#d62728" stroke="black" id="9"/>
</svg>
