<?xml version="1.0" ?>
<svg xmlns="http://www.w3.org/2000/svg" version="1.1" width="600.0" height="599.9999999999999" viewBox="-12.0 -12.0 600.0 599.9999999999999">
  <path d="M373.188117,220.700186 L279.327431,257.094082" fill="none" stroke="black" id="0-5"/>
  <path d="M373.188117,220.700186 L576.000012,388.305107" fill="none" stroke="black" id="0-7"/>
  <path d="M0.000070,343.497083 L186.335938,576.000119" fill="none" stroke="#c43c24" id="1-3"/>
  <path d="M0.000070,343.497083 L85.913623,342.698943" fill="none" stroke="black" id="1-6"/>
  <path d="M0.000070,343.497083 L192.485360,-0.000045" fill="none" stroke="#c43c24" id="1-8"/>
  <path d="M201.378235,114.174408 L192.485360,-0.000045" fill="none" stroke="#c43c24" id="2-8"/>
  <path d="M186.335938,576.000119 L85.913623,342.698943" fill="none" stroke="black" id="3-6"/>
  <path d="M186.335938,576.000119 L576.000012,388.305107" fill="none" stroke="black" id="3-7"/>
  <path d="M186.335938,576.000119 L287.918710,346.570115" fill="none" stroke="#c43c24" id="3-10"/>
  <path d="M358.392303,369.287334 L279.327431,257.094082" fill="none" stroke="black" id="4-5"/>
  <path d="M358.392303,369.287334 L576.000012,388.305107" fill="none" stroke="black" id="4-7"/>
  <path d="M279.327431,257.094082 L576.000012,388.305107" fill="none" stroke="black" id="5-7"/>
  <path d="M279.327431,257.094082 L350.677107,420.367779" fill="none" stroke="black" id="5-9"/>
  <path d="M279.327431,257.094082 L287.918710,346.570115" fill="none" stroke="black" id="5-10"/>
  <path d="M85.913623,342.698943 L192.485360,-0.000045" fill="none" stroke="black" id="6-8"/>
  <path d="M85.913623,342.698943 L350.677107,420.367779" fill="none" stroke="black" id="6-9"/>
  <path d="M576.000012,388.305107 L192.485360,-0.000045" fill="none" stroke="black" id="7-8"/>
  <path d="M576.000012,388.305107 L350.677107,420.367779" fill="none" stroke="black" id="7-9"/>
  <ellipse cx="373.18796951210584" cy="220.7000182829454" rx="8.0" ry="8.0" fill="#FFFFFF" stroke="black" id="0"/>
  <ellipse cx="0.0" cy="343.4971704431574" rx="8.0" ry="8.0" fill="#FFFFFF" stroke="black" id="1"/>
  <ellipse cx="201.37810140472266" cy="114.17416462822973" rx="8.0" ry="8.0" fill="#d62728" stroke="black" id="2"/>
  <ellipse cx="186.335788623025" cy="575.9999999999999" rx="8.0" ry="8.0" fill="#FFFFFF" stroke="black" id="3"/>
  <ellipse cx="358.3922547444837" cy="369.2875229699746" rx="8.0" ry="8.0" fill="#FFFFFF" stroke="black" id="4"/>
  <ellipse cx="279.3274353421465" cy="257.09420939431647" rx="8.0" ry="8.0" fill="#FFFFFF" stroke="black" id="5"/>
  <ellipse cx="85.91362391291915" cy="342.69889873119814" rx="8.0" ry="8.0" fill="#FFFFFF" stroke="black" id="6"/>
  <ellipse cx="576.0" cy="388.3050760926717" rx="8.0" ry="8.0" fill="#FFFFFF" stroke="black" id="7"/>
  <ellipse cx="192.48538007926402" cy="0.0" rx="8.0" ry="8.0" fill="#FFFFFF" stroke="black" id="8"/>
  <ellipse cx="350.67719994308527" cy="420.36799251393325" rx="8.0" ry="8.0" fill="#FFFFFF" stroke="black" id="9"/>
  <ellipse cx="287.9188967696037" cy="346.5702746285883" rx="8.0" ry="8.0" fill="#d62728" stroke="black" id="10"/>
</svg>
