<?xml version="1.0" ?>
<svg xmlns="http://www.w3.org/2000/svg" version="1.1" width="600.0000000000001" height="600.0" viewBox="-12.0 -12.0 600.0000000000001 600.0">
  <path d="M13.815040,576.000000 L129.790080,482.710949" fill="none" stroke="black" id="0-5"/>
  <path d="M563.738240,47.566381 L361.642240,141.940460" fill="none" stroke="black" id="1-6"/>
  <path d="M563.738240,47.566381 L576.000000,319.582853" fill="none" stroke="black" id="1-9"/>
  <path d="M0.000000,254.040300 L129.790080,482.710949" fill="none" stroke="#c43c24" id="2-5"/>
  <path d="M0.000000,254.040300 L361.642240,141.940460" fill="none" stroke="#c43c24" id="2-6"/>
  <path d="M0.000000,254.040300 L112.324480,113.249918" fill="none" stroke="black" id="2-7"/>
  <path d="M115.622400,-0.000379 L112.324480,113.249918" fill="none" stroke="black" id="3-7"/>
  <path d="M284.611200,260.207746 L361.642240,141.940460" fill="none" stroke="#c43c24" id="4-6"/>
  <path d="M284.611200,260.207746 L312.362240,112.722592" fill="none" stroke="#c43c24" id="4-10"/>
  <path d="M129.790080,482.710949 L290.147200,545.206388" fill="none" stroke="#c43c24" id="5-8"/>
  <path d="M361.642240,141.940460 L576.000000,319.582853" fill="none" stroke="black" id="6-9"/>
  <ellipse cx="13.815243860053599" cy="576.0" rx="8.0" ry="8.0" fill="#FFFFFF" stroke="black" id="0"/>
  <ellipse cx="563.7382192143558" cy="47.56649390970313" rx="8.0" ry="8.0" fill="#FFFFFF" stroke="black" id="1"/>
  <ellipse cx="0.0" cy="254.04010879273193" rx="8.0" ry="8.0" fill="#FFFFFF" stroke="black" id="2"/>
  <ellipse cx="115.62236524539588" cy="0.0" rx="8.0" ry="8.0" fill="#FFFFFF" stroke="black" id="3"/>
  <ellipse cx="284.61091733134475" cy="260.20768401992035" rx="8.0" ry="8.0" fill="#FFFFFF" stroke="black" id="4"/>
  <ellipse cx="129.79016027333063" cy="482.710837069505" rx="8.0" ry="8.0" fill="#FFFFFF" stroke="black" id="5"/>
  <ellipse cx="361.64203526698526" cy="141.94038943119966" rx="8.0" ry="8.0" fill="#FFFFFF" stroke="black" id="6"/>
  <ellipse cx="112.32450437823292" cy="113.24979188280793" rx="8.0" ry="8.0" fill="#FFFFFF" stroke="black" id="7"/>
  <ellipse cx="290.14735742924347" cy="545.2061143501107" rx="8.0" ry="8.0" fill="#d62728" stroke="black" id="8"/>
  <ellipse cx="576.0000000000001" cy="319.58308826838254" rx="8.0" ry="8.0" fill="#FFFFFF" stroke="black" id="9"/>
  <ellipse cx="312.36192001244734" cy="112.72281869708655" rx="8.0" ry="8.0" fill="#d62728" stroke="black" id="10"/>
</svg>
