<?xml version="1.0" ?>
<svg xmlns="http://www.w3.org/2000/svg" version="1.1" width="600.0" height="600.0" viewBox="-12.0 -12.0 600.0 600.0">
  <path d="M-0.000108,-0.000139 L28.554683,429.236647" fill="none" stroke="black" id="0-3"/>
  <path d="M-0.000108,-0.000139 L177.192880,194.516815" fill="none" stroke="black" id="0-4"/>
  <path d="M-0.000108,-0.000139 L402.896537,178.138063" fill="none" stroke="black" id="0-6"/>
  <path d="M158.542244,400.162334 L28.554683,429.236647" fill="none" stroke="black" id="1-3"/>
  <path d="M158.542244,400.162334 L265.235996,354.028412" fill="none" stroke="black" id="1-9"/>
  <path d="M509.601720,576.000020 L576.000248,305.888456" fill="none" stroke="black" id="2-5"/>
  <path d="M28.554683,429.236647 L313.087289,564.694656" fill="none" stroke="black" id="3-8"/>
  <path d="M177.192880,194.516815 L158.120846,272.572080" fill="none" stroke="black" id="4-7"/>
  <path d="M576.000248,305.888456 L402.896537,178.138063" fill="none" stroke="black" id="5-6"/>
  <path d="M576.000248,305.888456 L313.087289,564.694656" fill="none" stroke="black" id="5-8"/>
  <path d="M576.000248,305.888456 L265.235996,354.028412" fill="none" stroke="black" id="5-9"/>
  <path d="M576.000248,305.888456 L572.892502,24.644565" fill="none" stroke="black" id="5-10"/>
  <path d="M402.896537,178.138063 L313.087289,564.694656" fill="none" stroke="black" id="6-8"/>
  <path d="M402.896537,178.138063 L265.235996,354.028412" fill="none" stroke="black" id="6-9"/>
  <path d="M402.896537,178.138063 L572.892502,24.644565" fill="none" stroke="black" id="6-10"/>
  <path d="M158.120846,272.572080 L265.235996,354.028412" fill="none" stroke="black" id="7-9"/>
  <path d="M313.087289,564.694656 L265.235996,354.028412" fill="none" stroke="black" id="8-9"/>
  <ellipse cx="0.0" cy="0.0" rx="8.0" ry="8.0" fill="#FFFFFF" stroke="black" id="0"/>
  <ellipse cx="158.54207767233885" cy="400.16211204272196" rx="8.0" ry="8.0" fill="#FFFFFF" stroke="black" id="1"/>
  <ellipse cx="509.60174036374985" cy="576.0" rx="8.0" ry="8.0" fill="#d62728" stroke="black" id="2"/>
  <ellipse cx="28.55480703363925" cy="429.2366238380175" rx="8.0" ry="8.0" fill="#FFFFFF" stroke="black" id="3"/>
  <ellipse cx="177.19309802938153" cy="194.51670609086406" rx="8.0" ry="8.0" fill="#d62728" stroke="black" id="4"/>
  <ellipse cx="576.0" cy="305.8883572242037" rx="8.0" ry="8.0" fill="#FFFFFF" stroke="black" id="5"/>
  <ellipse cx="402.8965750384245" cy="178.1380304792774" rx="8.0" ry="8.0" fill="#FFFFFF" stroke="black" id="6"/>
  <ellipse cx="158.12086096745858" cy="272.57221625491513" rx="8.0" ry="8.0" fill="#FFFFFF" stroke="black" id="7"/>
  <ellipse cx="313.0873486823048" cy="564.6946762779239" rx="8.0" ry="8.0" fill="#FFFFFF" stroke="black" id="8"/>
  <ellipse cx="265.23586276436794" cy="354.02845345129344" rx="8.0" ry="8.0" fill="#FFFFFF" stroke="black" id="9"/>
  <ellipse cx="572.8924062245677" cy="24.64436183744771" rx="8.0" ry="8.0" fill="#FFFFFF" stroke="black" id="10"/>
</svg>
