<?xml version="1.0" ?>
<svg xmlns="http://www.w3.org/2000/svg" version="1.1" width="600.0" height="599.9999999999999" viewBox="-12.0 -12.0 600.0 599.9999999999999">
  <path d="M339.071712,419.918785 L576.000120,469.937836" fill="none" stroke="black" id="0-5"/>
  <path d="M106.328843,138.372137 L-0.000170,296.961091" fill="none" stroke="black" id="1-6"/>
  <path d="M106.328843,138.372137 L233.588951,109.763498" fill="none" stroke="black" id="1-9"/>
  <path d="M402.492878,317.495448 L576.000120,469.937836" fill="none" stroke="black" id="2-5"/>
  <path d="M402.492878,317.495448 L-0.000170,296.961091" fill="none" stroke="black" id="2-6"/>
  <path d="M402.492878,317.495448 L504.601822,190.793747" fill="none" stroke="black" id="2-7"/>
  <path d="M419.443676,0.000190 L504.601822,190.793747" fill="none" stroke="black" id="3-7"/>
  <path d="M153.702852,281.756304 L-0.000170,296.961091" fill="none" stroke="black" id="4-6"/>
  <path d="M153.702852,281.756304 L224.308398,419.147462" fill="none" stroke="black" id="4-10"/>
  <path d="M576.000120,469.937836 L245.408743,576.000054" fill="none" stroke="black" id="5-8"/>
  <path d="M-0.000170,296.961091 L233.588951,109.763498" fill="none" stroke="black" id="6-9"/>
  <ellipse cx="339.0716684644166" cy="419.918658141105" rx="8.0" ry="8.0" fill="#FFFFFF" stroke="black" id="0"/>
  <ellipse cx="106.32872239908907" cy="138.3722738870307" rx="8.0" ry="8.0" fill="#FFFFFF" stroke="black" id="1"/>
  <ellipse cx="402.4931107664669" cy="317.49528052356067" rx="8.0" ry="8.0" fill="#FFFFFF" stroke="black" id="2"/>
  <ellipse cx="419.44375798888876" cy="0.0" rx="8.0" ry="8.0" fill="#d62728" stroke="black" id="3"/>
  <ellipse cx="153.7029925569565" cy="281.75620033895814" rx="8.0" ry="8.0" fill="#FFFFFF" stroke="black" id="4"/>
  <ellipse cx="576.0" cy="469.93781083544627" rx="8.0" ry="8.0" fill="#FFFFFF" stroke="black" id="5"/>
  <ellipse cx="0.0" cy="296.96110658586053" rx="8.0" ry="8.0" fill="#FFFFFF" stroke="black" id="6"/>
  <ellipse cx="504.60169786866135" cy="190.79356023919496" rx="8.0" ry="8.0" fill="#FFFFFF" stroke="black" id="7"/>
  <ellipse cx="245.40858627981868" cy="575.9999999999999" rx="8.0" ry="8.0" fill="#FFFFFF" stroke="black" id="8"/>
  <ellipse cx="233.5888176004166" cy="109.76363876136357" rx="8.0" ry="8.0" fill="#FFFFFF" stroke="black" id="9"/>
  <ellipse cx="224.30842019875357" cy="419.14740324321343" rx="8.0" ry="8.0" fill="#d62728" stroke="black" id="10"/>
</svg>
