<?xml version="1.0" ?>
<svg xmlns="http://www.w3.org/2000/svg" version="1.1" width="600.0000000000001" height="600.0000000000001" viewBox="-12.0 -12.0 600.0000000000001 600.0000000000001">
  <path d="M33.603200,576.000000 L535.060480,502.403200" fill="none" stroke="black" id="0-3"/>
  <path d="M33.603200,576.000000 L88.760960,420.094080" fill="none" stroke="black" id="0-4"/>
  <path d="M33.603200,576.000000 L0.000000,124.177920" fill="none" stroke="#c43c24" id="0-6"/>
  <path d="M576.000000,119.290240 L535.060480,502.403200" fill="none" stroke="black" id="1-3"/>
  <path d="M576.000000,119.290240 L273.823360,0.000000" fill="none" stroke="black" id="1-9"/>
  <path d="M354.010880,252.547840 L220.717440,369.893120" fill="none" stroke="#c43c24" id="2-5"/>
  <path d="M535.060480,502.403200 L374.817920,165.699840" fill="none" stroke="black" id="3-8"/>
  <path d="M88.760960,420.094080 L185.594240,281.948160" fill="none" stroke="black" id="4-7"/>
  <path d="M220.717440,369.893120 L0.000000,124.177920" fill="none" stroke="#c43c24" id="5-6"/>
  <path d="M220.717440,369.893120 L374.817920,165.699840" fill="none" stroke="black" id="5-8"/>
  <path d="M220.717440,369.893120 L273.823360,0.000000" fill="none" stroke="black" id="5-9"/>
  <path d="M220.717440,369.893120 L46.609280,228.802560" fill="none" stroke="black" id="5-10"/>
  <path d="M0.000000,124.177920 L374.817920,165.699840" fill="none" stroke="black" id="6-8"/>
  <path d="M0.000000,124.177920 L273.823360,0.000000" fill="none" stroke="black" id="6-9"/>
  <path d="M0.000000,124.177920 L46.609280,228.802560" fill="none" stroke="black" id="6-10"/>
  <path d="M185.594240,281.948160 L273.823360,0.000000" fill="none" stroke="black" id="7-9"/>
  <path d="M374.817920,165.699840 L273.823360,0.000000" fill="none" stroke="black" id="8-9"/>
  <ellipse cx="33.60317422292059" cy="576.0000000000001" rx="8.0" ry="8.0" fill="#d62728" stroke="black" id="0"/>
  <ellipse cx="576.0000000000001" cy="119.29020356820169" rx="8.0" ry="8.0" fill="#FFFFFF" stroke="black" id="1"/>
  <ellipse cx="354.0106669941393" cy="252.54758336162286" rx="8.0" ry="8.0" fill="#d62728" stroke="black" id="2"/>
  <ellipse cx="535.0605879672391" cy="502.4032895222575" rx="8.0" ry="8.0" fill="#FFFFFF" stroke="black" id="3"/>
  <ellipse cx="88.76102094171148" cy="420.09418134071655" rx="8.0" ry="8.0" fill="#FFFFFF" stroke="black" id="4"/>
  <ellipse cx="220.7171504087782" cy="369.8929179904535" rx="8.0" ry="8.0" fill="#FFFFFF" stroke="black" id="5"/>
  <ellipse cx="0.0" cy="124.17788148003993" rx="8.0" ry="8.0" fill="#FFFFFF" stroke="black" id="6"/>
  <ellipse cx="185.5944301153922" cy="281.9483764240571" rx="8.0" ry="8.0" fill="#FFFFFF" stroke="black" id="7"/>
  <ellipse cx="374.8177276481271" cy="165.69976989578856" rx="8.0" ry="8.0" fill="#FFFFFF" stroke="black" id="8"/>
  <ellipse cx="273.82354156015344" cy="0.0" rx="8.0" ry="8.0" fill="#FFFFFF" stroke="black" id="9"/>
  <ellipse cx="46.60916176493826" cy="228.80266025914403" rx="8.0" ry="8.0" fill="#FFFFFF" stroke="black" id="10"/>
</svg>
