<?xml version="1.0" ?>
<svg xmlns="http://www.w3.org/2000/svg" version="1.1" width="600.0000000000001" height="600.0000000000001" viewBox="-12.0 -12.0 600.0000000000001 600.0000000000001">
  <path d="M374.348800,310.497280 L66.401920,576.000000" fill="none" stroke="black" id="0-3"/>
  <path d="M374.348800,310.497280 L576.000000,486.233600" fill="none" stroke="black" id="0-4"/>
  <path d="M374.348800,310.497280 L464.106240,0.000000" fill="none" stroke="black" id="0-6"/>
  <path d="M510.442240,576.000000 L66.401920,576.000000" fill="none" stroke="black" id="1-3"/>
  <path d="M510.442240,576.000000 L319.615360,286.814720" fill="none" stroke="black" id="1-9"/>
  <path d="M0.000000,214.711680 L39.651840,0.000000" fill="none" stroke="black" id="2-5"/>
  <path d="M66.401920,576.000000 L45.554560,250.984960" fill="none" stroke="black" id="3-8"/>
  <path d="M576.000000,486.233600 L576.000000,82.944640" fill="none" stroke="black" id="4-7"/>
  <path d="M39.651840,0.000000 L464.106240,0.000000" fill="none" stroke="black" id="5-6"/>
  <path d="M39.651840,0.000000 L45.554560,250.984960" fill="none" stroke="black" id="5-8"/>
  <path d="M39.651840,0.000000 L319.615360,286.814720" fill="none" stroke="black" id="5-9"/>
  <path d="M39.651840,0.000000 L300.435200,205.783040" fill="none" stroke="black" id="5-10"/>
  <path d="M464.106240,0.000000 L45.554560,250.984960" fill="none" stroke="black" id="6-8"/>
  <path d="M464.106240,0.000000 L319.615360,286.814720" fill="none" stroke="black" id="6-9"/>
  <path d="M464.106240,0.000000 L300.435200,205.783040" fill="none" stroke="black" id="6-10"/>
  <path d="M576.000000,82.944640 L319.615360,286.814720" fill="none" stroke="black" id="7-9"/>
  <path d="M45.554560,250.984960 L319.615360,286.814720" fill="none" stroke="black" id="8-9"/>
  <ellipse cx="374.34863820513493" cy="310.4972475441283" rx="8.0" ry="8.0" fill="#FFFFFF" stroke="black" id="0"/>
  <ellipse cx="510.442331588245" cy="576.0000000000001" rx="8.0" ry="8.0" fill="#FFFFFF" stroke="black" id="1"/>
  <ellipse cx="0.0" cy="214.7119145714967" rx="8.0" ry="8.0" fill="#d62728" stroke="black" id="2"/>
  <ellipse cx="66.40175455982754" cy="576.0000000000001" rx="8.0" ry="8.0" fill="#FFFFFF" stroke="black" id="3"/>
  <ellipse cx="576.0000000000001" cy="486.23361769724215" rx="8.0" ry="8.0" fill="#d62728" stroke="black" id="4"/>
  <ellipse cx="39.651889342850076" cy="0.0" rx="8.0" ry="8.0" fill="#FFFFFF" stroke="black" id="5"/>
  <ellipse cx="464.1061493112281" cy="0.0" rx="8.0" ry="8.0" fill="#FFFFFF" stroke="black" id="6"/>
  <ellipse cx="576.0000000000001" cy="82.94492366057295" rx="8.0" ry="8.0" fill="#FFFFFF" stroke="black" id="7"/>
  <ellipse cx="45.554503618320986" cy="250.98477657218348" rx="8.0" ry="8.0" fill="#FFFFFF" stroke="black" id="8"/>
  <ellipse cx="319.6150822660857" cy="286.8146830796464" rx="8.0" ry="8.0" fill="#FFFFFF" stroke="black" id="9"/>
  <ellipse cx="300.43545684339847" cy="205.78272090314516" rx="8.0" ry="8.0" fill="#FFFFFF" stroke="black" id="10"/>
</svg>
