<?xml version="1.0" ?>
<svg xmlns="http://www.w3.org/2000/svg" version="1.1" width="600.0000000000001" height="600.0000000000001" viewBox="-12.0 -12.0 600.0000000000001 600.0000000000001">
  <path d="M400.295040,283.292800 L576.000000,204.877440" fill="none" stroke="black" id="0-5"/>
  <path d="M400.295040,283.292800 L358.750080,576.000000" fill="none" stroke="#c43c24" id="0-7"/>
  <path d="M70.695040,99.429760 L0.000000,318.954240" fill="none" stroke="#c43c24" id="1-3"/>
  <path d="M70.695040,99.429760 L157.141120,135.155200" fill="none" stroke="black" id="1-6"/>
  <path d="M70.695040,99.429760 L307.251200,0.000000" fill="none" stroke="black" id="1-8"/>
  <path d="M280.507520,67.409280 L307.251200,0.000000" fill="none" stroke="black" id="2-8"/>
  <path d="M0.000000,318.954240 L157.141120,135.155200" fill="none" stroke="black" id="3-6"/>
  <path d="M0.000000,318.954240 L358.750080,576.000000" fill="none" stroke="#c43c24" id="3-7"/>
  <path d="M0.000000,318.954240 L172.051840,242.888320" fill="none" stroke="black" id="3-10"/>
  <path d="M576.000000,391.049600 L576.000000,204.877440" fill="none" stroke="black" id="4-5"/>
  <path d="M576.000000,391.049600 L358.750080,576.000000" fill="none" stroke="black" id="4-7"/>
  <path d="M576.000000,204.877440 L358.750080,576.000000" fill="none" stroke="black" id="5-7"/>
  <path d="M576.000000,204.877440 L292.243840,198.794240" fill="none" stroke="black" id="5-9"/>
  <path d="M576.000000,204.877440 L172.051840,242.888320" fill="none" stroke="black" id="5-10"/>
  <path d="M157.141120,135.155200 L307.251200,0.000000" fill="none" stroke="black" id="6-8"/>
  <path d="M157.141120,135.155200 L292.243840,198.794240" fill="none" stroke="black" id="6-9"/>
  <path d="M358.750080,576.000000 L307.251200,0.000000" fill="none" stroke="black" id="7-8"/>
  <path d="M358.750080,576.000000 L292.243840,198.794240" fill="none" stroke="black" id="7-9"/>
  <ellipse cx="400.295003012646" cy="283.29260033157203" rx="8.0" ry="8.0" fill="#d62728" stroke="black" id="0"/>
  <ellipse cx="70.69532913719465" cy="99.4299041568477" rx="8.0" ry="8.0" fill="#d62728" stroke="black" id="1"/>
  <ellipse cx="280.507655695116" cy="67.40904429540524" rx="8.0" ry="8.0" fill="#FFFFFF" stroke="black" id="2"/>
  <ellipse cx="0.0" cy="318.9539810241332" rx="8.0" ry="8.0" fill="#FFFFFF" stroke="black" id="3"/>
  <ellipse cx="576.0000000000001" cy="391.0498494088974" rx="8.0" ry="8.0" fill="#FFFFFF" stroke="black" id="4"/>
  <ellipse cx="576.0000000000001" cy="204.87741779548102" rx="8.0" ry="8.0" fill="#FFFFFF" stroke="black" id="5"/>
  <ellipse cx="157.14143390819567" cy="135.15550411966552" rx="8.0" ry="8.0" fill="#FFFFFF" stroke="black" id="6"/>
  <ellipse cx="358.7497727916599" cy="576.0000000000001" rx="8.0" ry="8.0" fill="#FFFFFF" stroke="black" id="7"/>
  <ellipse cx="307.2509698030453" cy="0.0" rx="8.0" ry="8.0" fill="#FFFFFF" stroke="black" id="8"/>
  <ellipse cx="292.2440922846126" cy="198.79403626857865" rx="8.0" ry="8.0" fill="#FFFFFF" stroke="black" id="9"/>
  <ellipse cx="172.0520072965462" cy="242.888031045976" rx="8.0" ry="8.0" fill="#FFFFFF" stroke="black" id="10"/>
</svg>
