<?xml version="1.0" ?>
<svg xmlns="http://www.w3.org/2000/svg" version="1.1" width="600.0" height="600.0" viewBox="-12.0 -12.0 600.0 600.0">
  <path d="M312.045091,88.095019 L51.645033,133.014493" fill="none" stroke="black" id="0-5"/>
  <path d="M312.045091,88.095019 L314.169722,241.910004" fill="none" stroke="black" id="0-7"/>
  <path d="M-0.000088,227.993025 L51.645033,133.014493" fill="none" stroke="black" id="1-5"/>
  <path d="M576.000076,177.209957 L348.452654,307.651429" fill="none" stroke="#c43c24" id="2-3"/>
  <path d="M576.000076,177.209957 L359.982671,366.253712" fill="none" stroke="black" id="2-4"/>
  <path d="M576.000076,177.209957 L314.169722,241.910004" fill="none" stroke="black" id="2-7"/>
  <path d="M576.000076,177.209957 L276.097897,153.054942" fill="none" stroke="black" id="2-8"/>
  <path d="M348.452654,307.651429 L51.645033,133.014493" fill="none" stroke="black" id="3-5"/>
  <path d="M348.452654,307.651429 L150.539705,576.000229" fill="none" stroke="#c43c24" id="3-6"/>
  <path d="M359.982671,366.253712 L150.539705,576.000229" fill="none" stroke="black" id="4-6"/>
  <path d="M51.645033,133.014493 L314.169722,241.910004" fill="none" stroke="black" id="5-7"/>
  <path d="M51.645033,133.014493 L419.443332,-0.000042" fill="none" stroke="black" id="5-9"/>
  <path d="M150.539705,576.000229 L10.616761,554.602903" fill="none" stroke="#c43c24" id="6-10"/>
  <ellipse cx="312.0447877187141" cy="88.09499501859533" rx="8.0" ry="8.0" fill="#FFFFFF" stroke="black" id="0"/>
  <ellipse cx="0.0" cy="227.9931900913098" rx="8.0" ry="8.0" fill="#FFFFFF" stroke="black" id="1"/>
  <ellipse cx="576.0" cy="177.2097875509424" rx="8.0" ry="8.0" fill="#d62728" stroke="black" id="2"/>
  <ellipse cx="348.4526993174266" cy="307.6514064061691" rx="8.0" ry="8.0" fill="#FFFFFF" stroke="black" id="3"/>
  <ellipse cx="359.98272830803836" cy="366.2535635770395" rx="8.0" ry="8.0" fill="#FFFFFF" stroke="black" id="4"/>
  <ellipse cx="51.64520567716511" cy="133.0145585222186" rx="8.0" ry="8.0" fill="#FFFFFF" stroke="black" id="5"/>
  <ellipse cx="150.53985345511126" cy="576.0" rx="8.0" ry="8.0" fill="#FFFFFF" stroke="black" id="6"/>
  <ellipse cx="314.17003359208564" cy="241.91008370132386" rx="8.0" ry="8.0" fill="#FFFFFF" stroke="black" id="7"/>
  <ellipse cx="276.0976819647072" cy="153.0547443579969" rx="8.0" ry="8.0" fill="#FFFFFF" stroke="black" id="8"/>
  <ellipse cx="419.4435846829153" cy="0.0" rx="8.0" ry="8.0" fill="#FFFFFF" stroke="black" id="9"/>
  <ellipse cx="10.616868014519241" cy="554.602935107006" rx="8.0" ry="8.0" fill="#d62728" stroke="black" id="10"/>
</svg>
