<?xml version="1.0" ?>
<svg xmlns="http://www.w3.org/2000/svg" version="1.1" width="600.0" height="600.0" viewBox="-12.0 -12.0 600.0 600.0">
  <path d="M332.673243,220.893349 L558.984244,229.394780" fill="none" stroke="black" id="0-1"/>
  <path d="M332.673243,220.893349 L275.284974,422.702502" fill="none" stroke="#c43c24" id="0-5"/>
  <path d="M332.673243,220.893349 L148.211174,131.490085" fill="none" stroke="#c43c24" id="0-6"/>
  <path d="M332.673243,220.893349 L462.758959,153.648563" fill="none" stroke="black" id="0-7"/>
  <path d="M332.673243,220.893349 L405.636395,0.000000" fill="none" stroke="black" id="0-9"/>
  <path d="M558.984244,229.394780 L576.000000,361.147452" fill="none" stroke="black" id="1-11"/>
  <path d="M452.720604,508.641661 L275.284974,422.702502" fill="none" stroke="#c43c24" id="2-5"/>
  <path d="M452.720604,508.641661 L576.000000,361.147452" fill="none" stroke="black" id="2-11"/>
  <path d="M274.596604,6.007689 L148.211174,131.490085" fill="none" stroke="black" id="3-6"/>
  <path d="M274.596604,6.007689 L462.758959,153.648563" fill="none" stroke="black" id="3-7"/>
  <path d="M274.596604,6.007689 L405.636395,0.000000" fill="none" stroke="black" id="3-9"/>
  <path d="M162.989538,576.000000 L275.284974,422.702502" fill="none" stroke="black" id="4-5"/>
  <path d="M162.989538,576.000000 L79.099798,432.293311" fill="none" stroke="black" id="4-10"/>
  <path d="M275.284974,422.702502 L79.099798,432.293311" fill="none" stroke="black" id="5-10"/>
  <path d="M148.211174,131.490085 L0.000000,256.792434" fill="none" stroke="black" id="6-8"/>
  <path d="M462.758959,153.648563 L576.000000,361.147452" fill="none" stroke="black" id="7-11"/>
  <path d="M0.000000,256.792434 L79.099798,432.293311" fill="none" stroke="black" id="8-10"/>
  <ellipse cx="332.67324311988557" cy="220.89334880814803" rx="8.0" ry="8.0" fill="#FFFFFF" stroke="black" id="0"/>
  <ellipse cx="558.9842442315935" cy="229.39477988175412" rx="8.0" ry="8.0" fill="#FFFFFF" stroke="black" id="1"/>
  <ellipse cx="452.72060437698224" cy="508.64166099265213" rx="8.0" ry="8.0" fill="#d62728" stroke="black" id="2"/>
  <ellipse cx="274.5966039433763" cy="6.007688952441636" rx="8.0" ry="8.0" fill="#FFFFFF" stroke="black" id="3"/>
  <ellipse cx="162.98953750453427" cy="576.0" rx="8.0" ry="8.0" fill="#FFFFFF" stroke="black" id="4"/>
  <ellipse cx="275.2849740218279" cy="422.7025019425295" rx="8.0" ry="8.0" fill="#FFFFFF" stroke="black" id="5"/>
  <ellipse cx="148.21117431910216" cy="131.49008462586698" rx="8.0" ry="8.0" fill="#d62728" stroke="black" id="6"/>
  <ellipse cx="462.75895871210076" cy="153.6485632643142" rx="8.0" ry="8.0" fill="#FFFFFF" stroke="black" id="7"/>
  <ellipse cx="0.0" cy="256.7924336134909" rx="8.0" ry="8.0" fill="#FFFFFF" stroke="black" id="8"/>
  <ellipse cx="405.6363949938279" cy="0.0" rx="8.0" ry="8.0" fill="#FFFFFF" stroke="black" id="9"/>
  <ellipse cx="79.09979803396047" cy="432.2933106578583" rx="8.0" ry="8.0" fill="#FFFFFF" stroke="black" id="10"/>
  <ellipse cx="576.0" cy="361.14745225160294" rx="8.0" ry="8.0" fill="#FFFFFF" stroke="black" id="11"/>
</svg>
