<?xml version="1.0" ?>
<svg xmlns="http://www.w3.org/2000/svg" version="1.1" width="600.0" height="600.0" viewBox="-12.0 -12.0 600.0 600.0">
  <path d="M134.532638,77.254182 L306.643083,-0.000168" fill="none" stroke="black" id="0-6"/>
  <path d="M134.532638,77.254182 L300.522299,253.939208" fill="none" stroke="black" id="0-8"/>
  <path d="M134.532638,77.254182 L-0.000007,241.401720" fill="none" stroke="black" id="0-11"/>
  <path d="M476.079190,50.144522 L306.643083,-0.000168" fill="none" stroke="black" id="1-6"/>
  <path d="M476.079190,50.144522 L575.999938,477.936571" fill="none" stroke="black" id="1-10"/>
  <path d="M370.389031,229.527728 L193.084413,417.053356" fill="none" stroke="black" id="2-5"/>
  <path d="M370.389031,229.527728 L575.999938,477.936571" fill="none" stroke="black" id="2-10"/>
  <path d="M6.955184,404.232791 L-0.000007,241.401720" fill="none" stroke="black" id="3-11"/>
  <path d="M281.434774,575.999741 L155.377028,563.794791" fill="none" stroke="black" id="4-9"/>
  <path d="M380.146483,498.533347 L155.377028,563.794791" fill="none" stroke="black" id="7-9"/>
  <path d="M380.146483,498.533347 L575.999938,477.936571" fill="none" stroke="black" id="7-10"/>
  <path d="M380.146483,498.533347 L-0.000007,241.401720" fill="none" stroke="black" id="7-11"/>
  <ellipse cx="134.53245496101738" cy="77.25408334680344" rx="8.0" ry="8.0" fill="#FFFFFF" stroke="black" id="0"/>
  <ellipse cx="476.07913327316396" cy="50.14439198144204" rx="8.0" ry="8.0" fill="#FFFFFF" stroke="black" id="1"/>
  <ellipse cx="370.3891957566948" cy="229.5275222908816" rx="8.0" ry="8.0" fill="#FFFFFF" stroke="black" id="2"/>
  <ellipse cx="6.955073656881282" cy="404.2328996467702" rx="8.0" ry="8.0" fill="#d62728" stroke="black" id="3"/>
  <ellipse cx="281.43474593456875" cy="576.0" rx="8.0" ry="8.0" fill="#d62728" stroke="black" id="4"/>
  <ellipse cx="193.08449217490113" cy="417.0535692944884" rx="8.0" ry="8.0" fill="#FFFFFF" stroke="black" id="5"/>
  <ellipse cx="306.6431809974753" cy="0.0" rx="8.0" ry="8.0" fill="#FFFFFF" stroke="black" id="6"/>
  <ellipse cx="380.14644100320095" cy="498.53351581341326" rx="8.0" ry="8.0" fill="#FFFFFF" stroke="black" id="7"/>
  <ellipse cx="300.52230203596673" cy="253.93906953164458" rx="8.0" ry="8.0" fill="#FFFFFF" stroke="black" id="8"/>
  <ellipse cx="155.3769955745364" cy="563.7945290216504" rx="8.0" ry="8.0" fill="#FFFFFF" stroke="black" id="9"/>
  <ellipse cx="576.0" cy="477.9364656808897" rx="8.0" ry="8.0" fill="#FFFFFF" stroke="black" id="10"/>
  <ellipse cx="0.0" cy="241.40162735883013" rx="8.0" ry="8.0" fill="#FFFFFF" stroke="black" id="11"/>
</svg>
