<?xml version="1.0" ?>
<svg xmlns="http://www.w3.org/2000/svg" version="1.1" width="600.0" height="599.9999999999999" viewBox="-12.0 -12.0 600.0 599.9999999999999">
  <path d="M106.496571,516.922372 L0.000202,517.652784" fill="none" stroke="black" id="0-10"/>
  <path d="M286.617101,449.930348 L399.634074,458.225991" fill="none" stroke="black" id="1-3"/>
  <path d="M286.617101,449.930348 L125.463615,371.554357" fill="none" stroke="black" id="1-8"/>
  <path d="M286.617101,449.930348 L215.921755,575.999886" fill="none" stroke="black" id="1-9"/>
  <path d="M263.039709,40.406721 L168.976593,234.479710" fill="none" stroke="black" id="2-6"/>
  <path d="M263.039709,40.406721 L576.000028,102.127146" fill="none" stroke="black" id="2-7"/>
  <path d="M399.634074,458.225991 L215.921755,575.999886" fill="none" stroke="black" id="3-9"/>
  <path d="M278.123947,331.914689 L125.463615,371.554357" fill="none" stroke="black" id="4-8"/>
  <path d="M61.895461,136.913894 L168.976593,234.479710" fill="none" stroke="black" id="5-6"/>
  <path d="M168.976593,234.479710 L125.463615,371.554357" fill="none" stroke="black" id="6-8"/>
  <path d="M168.976593,234.479710 L215.921755,575.999886" fill="none" stroke="black" id="6-9"/>
  <path d="M168.976593,234.479710 L0.000202,517.652784" fill="none" stroke="#c43c24" id="6-10"/>
  <path d="M168.976593,234.479710 L202.031597,0.000233" fill="none" stroke="#c43c24" id="6-11"/>
  <path d="M576.000028,102.127146 L125.463615,371.554357" fill="none" stroke="black" id="7-8"/>
  <path d="M576.000028,102.127146 L329.745391,197.703100" fill="none" stroke="black" id="7-12"/>
  <path d="M202.031597,0.000233 L329.745391,197.703100" fill="none" stroke="#c43c24" id="11-12"/>
  <ellipse cx="106.49671731402458" cy="516.9225578774771" rx="8.0" ry="8.0" fill="#FFFFFF" stroke="black" id="0"/>
  <ellipse cx="286.61729013595465" cy="449.9304710527202" rx="8.0" ry="8.0" fill="#FFFFFF" stroke="black" id="1"/>
  <ellipse cx="263.03957733383083" cy="40.40653362446248" rx="8.0" ry="8.0" fill="#FFFFFF" stroke="black" id="2"/>
  <ellipse cx="399.6341249134317" cy="458.2261341142922" rx="8.0" ry="8.0" fill="#FFFFFF" stroke="black" id="3"/>
  <ellipse cx="278.1238168303106" cy="331.9146642054779" rx="8.0" ry="8.0" fill="#FFFFFF" stroke="black" id="4"/>
  <ellipse cx="61.895246674426616" cy="136.9141125981318" rx="8.0" ry="8.0" fill="#FFFFFF" stroke="black" id="5"/>
  <ellipse cx="168.97651852185805" cy="234.47995204813438" rx="8.0" ry="8.0" fill="#FFFFFF" stroke="black" id="6"/>
  <ellipse cx="576.0" cy="102.12693633867299" rx="8.0" ry="8.0" fill="#FFFFFF" stroke="black" id="7"/>
  <ellipse cx="125.46368729244466" cy="371.5543440961935" rx="8.0" ry="8.0" fill="#FFFFFF" stroke="black" id="8"/>
  <ellipse cx="215.9218065477648" cy="575.9999999999999" rx="8.0" ry="8.0" fill="#FFFFFF" stroke="black" id="9"/>
  <ellipse cx="0.0" cy="517.6525119037392" rx="8.0" ry="8.0" fill="#d62728" stroke="black" id="10"/>
  <ellipse cx="202.03140264156832" cy="0.0" rx="8.0" ry="8.0" fill="#FFFFFF" stroke="black" id="11"/>
  <ellipse cx="329.74546572673967" cy="197.70302205062103" rx="8.0" ry="8.0" fill="#d62728" stroke="black" id="12"/>
</svg>
