<?xml version="1.0" ?>
<svg xmlns="http://www.w3.org/2000/svg" version="1.1" width="600.0000000000001" height="600.0" viewBox="-12.0 -12.0 600.0000000000001 600.0">
  <path d="M576.000000,222.116101 L426.074880,452.207391" fill="none" stroke="#c43c24" id="0-12"/>
  <path d="M406.382080,330.172905 L64.309120,246.216306" fill="none" stroke="#c43c24" id="1-4"/>
  <path d="M406.382080,330.172905 L178.700160,316.222824" fill="none" stroke="#c43c24" id="1-9"/>
  <path d="M302.946560,149.303263 L188.894720,79.009180" fill="none" stroke="black" id="2-11"/>
  <path d="M293.074560,576.000000 L374.993280,576.000000" fill="none" stroke="black" id="3-5"/>
  <path d="M293.074560,576.000000 L178.700160,316.222824" fill="none" stroke="#c43c24" id="3-9"/>
  <path d="M293.074560,576.000000 L426.074880,452.207391" fill="none" stroke="#c43c24" id="3-12"/>
  <path d="M64.309120,246.216306 L103.429120,432.640819" fill="none" stroke="black" id="4-6"/>
  <path d="M64.309120,246.216306 L0.000000,173.021546" fill="none" stroke="black" id="4-7"/>
  <path d="M103.429120,432.640819 L0.000000,173.021546" fill="none" stroke="black" id="6-7"/>
  <path d="M103.429120,432.640819 L178.700160,316.222824" fill="none" stroke="black" id="6-9"/>
  <path d="M103.429120,432.640819 L188.894720,79.009180" fill="none" stroke="black" id="6-11"/>
  <path d="M0.000000,173.021546 L188.894720,79.009180" fill="none" stroke="black" id="7-11"/>
  <path d="M458.192640,153.852942 L514.907520,0.000229" fill="none" stroke="black" id="8-10"/>
  <path d="M458.192640,153.852942 L426.074880,452.207391" fill="none" stroke="black" id="8-12"/>
  <path d="M514.907520,0.000229 L188.894720,79.009180" fill="none" stroke="black" id="10-11"/>
  <ellipse cx="576.0000000000001" cy="222.11618604624078" rx="8.0" ry="8.0" fill="#d62728" stroke="black" id="0"/>
  <ellipse cx="406.3822130222196" cy="330.17296751243674" rx="8.0" ry="8.0" fill="#FFFFFF" stroke="black" id="1"/>
  <ellipse cx="302.9467391888175" cy="149.3030019532409" rx="8.0" ry="8.0" fill="#FFFFFF" stroke="black" id="2"/>
  <ellipse cx="293.07482067881773" cy="576.0" rx="8.0" ry="8.0" fill="#FFFFFF" stroke="black" id="3"/>
  <ellipse cx="64.30898144925371" cy="246.2162730662612" rx="8.0" ry="8.0" fill="#d62728" stroke="black" id="4"/>
  <ellipse cx="374.9935926944256" cy="576.0" rx="8.0" ry="8.0" fill="#FFFFFF" stroke="black" id="5"/>
  <ellipse cx="103.42930267048436" cy="432.64057101510934" rx="8.0" ry="8.0" fill="#FFFFFF" stroke="black" id="6"/>
  <ellipse cx="0.0" cy="173.02163626551408" rx="8.0" ry="8.0" fill="#FFFFFF" stroke="black" id="7"/>
  <ellipse cx="458.19287082477996" cy="153.8532165778513" rx="8.0" ry="8.0" fill="#FFFFFF" stroke="black" id="8"/>
  <ellipse cx="178.69984100264531" cy="316.2230493090164" rx="8.0" ry="8.0" fill="#FFFFFF" stroke="black" id="9"/>
  <ellipse cx="514.9075972556521" cy="0.0" rx="8.0" ry="8.0" fill="#FFFFFF" stroke="black" id="10"/>
  <ellipse cx="188.89440203498455" cy="79.00942242365574" rx="8.0" ry="8.0" fill="#FFFFFF" stroke="black" id="11"/>
  <ellipse cx="426.07476541165516" cy="452.20770417902907" rx="8.0" ry="8.0" fill="#FFFFFF" stroke="black" id="12"/>
</svg>
