<?xml version="1.0" ?>
<svg xmlns="http://www.w3.org/2000/svg" version="1.1" width="600.0" height="600.0" viewBox="-12.0 -12.0 600.0 600.0">
  <path d="M227.266608,157.004629 L510.542491,76.474356" fill="none" stroke="black" id="0-7"/>
  <path d="M227.266608,157.004629 L190.880454,428.197933" fill="none" stroke="black" id="0-8"/>
  <path d="M575.999968,531.053610 L74.020139,576.000156" fill="none" stroke="#c43c24" id="1-2"/>
  <path d="M575.999968,531.053610 L304.172106,385.626018" fill="none" stroke="black" id="1-3"/>
  <path d="M575.999968,531.053610 L418.329297,493.085369" fill="none" stroke="#c43c24" id="1-6"/>
  <path d="M575.999968,531.053610 L492.852186,315.611098" fill="none" stroke="black" id="1-12"/>
  <path d="M74.020139,576.000156 L-0.000227,436.984104" fill="none" stroke="#c43c24" id="2-4"/>
  <path d="M74.020139,576.000156 L190.880454,428.197933" fill="none" stroke="black" id="2-8"/>
  <path d="M304.172106,385.626018 L190.880454,428.197933" fill="none" stroke="black" id="3-8"/>
  <path d="M304.172106,385.626018 L327.650174,-0.000001" fill="none" stroke="black" id="3-9"/>
  <path d="M-0.000227,436.984104 L121.202285,247.670130" fill="none" stroke="#c43c24" id="4-5"/>
  <path d="M121.202285,247.670130 L327.650174,-0.000001" fill="none" stroke="black" id="5-9"/>
  <path d="M418.329297,493.085369 L190.880454,428.197933" fill="none" stroke="black" id="6-8"/>
  <path d="M510.542491,76.474356 L190.880454,428.197933" fill="none" stroke="black" id="7-8"/>
  <path d="M510.542491,76.474356 L327.650174,-0.000001" fill="none" stroke="black" id="7-9"/>
  <path d="M190.880454,428.197933 L65.753763,380.161365" fill="none" stroke="black" id="8-11"/>
  <path d="M327.650174,-0.000001 L444.221475,183.969059" fill="none" stroke="black" id="9-10"/>
  <path d="M444.221475,183.969059 L492.852186,315.611098" fill="none" stroke="black" id="10-12"/>
  <ellipse cx="227.2665418924343" cy="157.004491856092" rx="8.0" ry="8.0" fill="#FFFFFF" stroke="black" id="0"/>
  <ellipse cx="576.0" cy="531.0534983076441" rx="8.0" ry="8.0" fill="#FFFFFF" stroke="black" id="1"/>
  <ellipse cx="74.02008683209883" cy="576.0" rx="8.0" ry="8.0" fill="#FFFFFF" stroke="black" id="2"/>
  <ellipse cx="304.1719817917434" cy="385.6261257420871" rx="8.0" ry="8.0" fill="#FFFFFF" stroke="black" id="3"/>
  <ellipse cx="0.0" cy="436.98427287440904" rx="8.0" ry="8.0" fill="#FFFFFF" stroke="black" id="4"/>
  <ellipse cx="121.20204220008097" cy="247.67005363386284" rx="8.0" ry="8.0" fill="#d62728" stroke="black" id="5"/>
  <ellipse cx="418.3291632274004" cy="493.08523431424135" rx="8.0" ry="8.0" fill="#d62728" stroke="black" id="6"/>
  <ellipse cx="510.5423301049493" cy="76.47420440017106" rx="8.0" ry="8.0" fill="#FFFFFF" stroke="black" id="7"/>
  <ellipse cx="190.88022369222875" cy="428.19803738918324" rx="8.0" ry="8.0" fill="#FFFFFF" stroke="black" id="8"/>
  <ellipse cx="327.65039445200307" cy="0.0" rx="8.0" ry="8.0" fill="#FFFFFF" stroke="black" id="9"/>
  <ellipse cx="444.2212255947036" cy="183.96917979301753" rx="8.0" ry="8.0" fill="#FFFFFF" stroke="black" id="10"/>
  <ellipse cx="65.7539572014106" cy="380.16133721101767" rx="8.0" ry="8.0" fill="#FFFFFF" stroke="black" id="11"/>
  <ellipse cx="492.8520382796712" cy="315.61115993397107" rx="8.0" ry="8.0" fill="#FFFFFF" stroke="black" id="12"/>
</svg>
