<?xml version="1.0" ?>
<svg xmlns="http://www.w3.org/2000/svg" version="1.1" width="600.0" height="600.0" viewBox="-12.0 -12.0 600.0 600.0">
  <path d="M232.452760,293.860623 L139.516402,312.689528" fill="none" stroke="black" id="0-7"/>
  <path d="M232.452760,293.860623 L152.024267,111.230886" fill="none" stroke="black" id="0-8"/>
  <path d="M576.000202,111.579702 L567.616110,392.457023" fill="none" stroke="#c43c24" id="1-2"/>
  <path d="M576.000202,111.579702 L377.015385,295.834116" fill="none" stroke="black" id="1-3"/>
  <path d="M576.000202,111.579702 L273.082164,7.768056" fill="none" stroke="#c43c24" id="1-6"/>
  <path d="M576.000202,111.579702 L348.342756,0.000193" fill="none" stroke="black" id="1-12"/>
  <path d="M567.616110,392.457023 L335.270310,575.999942" fill="none" stroke="#c43c24" id="2-4"/>
  <path d="M567.616110,392.457023 L152.024267,111.230886" fill="none" stroke="black" id="2-8"/>
  <path d="M377.015385,295.834116 L152.024267,111.230886" fill="none" stroke="black" id="3-8"/>
  <path d="M377.015385,295.834116 L298.957643,350.842388" fill="none" stroke="black" id="3-9"/>
  <path d="M335.270310,575.999942 L132.924580,492.608785" fill="none" stroke="#c43c24" id="4-5"/>
  <path d="M132.924580,492.608785 L298.957643,350.842388" fill="none" stroke="black" id="5-9"/>
  <path d="M273.082164,7.768056 L152.024267,111.230886" fill="none" stroke="black" id="6-8"/>
  <path d="M139.516402,312.689528 L152.024267,111.230886" fill="none" stroke="black" id="7-8"/>
  <path d="M139.516402,312.689528 L298.957643,350.842388" fill="none" stroke="black" id="7-9"/>
  <path d="M152.024267,111.230886 L-0.000151,149.198159" fill="none" stroke="black" id="8-11"/>
  <path d="M298.957643,350.842388 L315.173101,114.973055" fill="none" stroke="black" id="9-10"/>
  <path d="M315.173101,114.973055 L348.342756,0.000193" fill="none" stroke="black" id="10-12"/>
  <ellipse cx="232.45271136636177" cy="293.8607311741904" rx="8.0" ry="8.0" fill="#FFFFFF" stroke="black" id="0"/>
  <ellipse cx="576.0" cy="111.57990319335406" rx="8.0" ry="8.0" fill="#FFFFFF" stroke="black" id="1"/>
  <ellipse cx="567.616049314796" cy="392.4570113428198" rx="8.0" ry="8.0" fill="#FFFFFF" stroke="black" id="2"/>
  <ellipse cx="377.015503292241" cy="295.83426242629855" rx="8.0" ry="8.0" fill="#FFFFFF" stroke="black" id="3"/>
  <ellipse cx="335.2702682093339" cy="576.0" rx="8.0" ry="8.0" fill="#FFFFFF" stroke="black" id="4"/>
  <ellipse cx="132.9244238160878" cy="492.60863121428326" rx="8.0" ry="8.0" fill="#d62728" stroke="black" id="5"/>
  <ellipse cx="273.08217098090205" cy="7.768068181380851" rx="8.0" ry="8.0" fill="#d62728" stroke="black" id="6"/>
  <ellipse cx="139.51657016427023" cy="312.68946670747175" rx="8.0" ry="8.0" fill="#FFFFFF" stroke="black" id="7"/>
  <ellipse cx="152.0242714050201" cy="111.23087035332591" rx="8.0" ry="8.0" fill="#FFFFFF" stroke="black" id="8"/>
  <ellipse cx="298.957702627503" cy="350.84227834975417" rx="8.0" ry="8.0" fill="#FFFFFF" stroke="black" id="9"/>
  <ellipse cx="315.1729279571162" cy="114.97301426004074" rx="8.0" ry="8.0" fill="#FFFFFF" stroke="black" id="10"/>
  <ellipse cx="0.0" cy="149.19833550769502" rx="8.0" ry="8.0" fill="#FFFFFF" stroke="black" id="11"/>
  <ellipse cx="348.3426912543365" cy="0.0" rx="8.0" ry="8.0" fill="#FFFFFF" stroke="black" id="12"/>
</svg>
