<?xml version="1.0" ?>
<svg xmlns="http://www.w3.org/2000/svg" version="1.1" width="600.0" height="600.0000000000001" viewBox="-12.0 -12.0 600.0 600.0000000000001">
  <path d="M0.000048,0.000000 L195.654292,76.255360" fill="none" stroke="black" id="0-2"/>
  <path d="M0.000048,0.000000 L407.758180,32.640000" fill="none" stroke="black" id="0-3"/>
  <path d="M0.000048,0.000000 L468.197292,0.000000" fill="none" stroke="black" id="0-10"/>
  <path d="M555.435232,450.609920 L419.992101,576.000000" fill="none" stroke="black" id="1-9"/>
  <path d="M555.435232,450.609920 L468.197292,0.000000" fill="none" stroke="black" id="1-10"/>
  <path d="M555.435232,450.609920 L185.374108,459.443200" fill="none" stroke="black" id="1-11"/>
  <path d="M195.654292,76.255360 L185.374108,459.443200" fill="none" stroke="black" id="2-11"/>
  <path d="M463.162574,210.545280 L390.898288,264.127360" fill="none" stroke="black" id="4-6"/>
  <path d="M463.162574,210.545280 L468.197292,0.000000" fill="none" stroke="black" id="4-10"/>
  <path d="M576.000100,359.891200 L419.992101,576.000000" fill="none" stroke="black" id="5-9"/>
  <path d="M576.000100,359.891200 L468.197292,0.000000" fill="none" stroke="black" id="5-10"/>
  <path d="M390.898288,264.127360 L331.893167,405.769600" fill="none" stroke="black" id="6-7"/>
  <path d="M390.898288,264.127360 L468.197292,0.000000" fill="none" stroke="black" id="6-10"/>
  <path d="M331.893167,405.769600 L324.438965,543.360000" fill="none" stroke="black" id="7-12"/>
  <path d="M36.834561,576.000000 L419.992101,576.000000" fill="none" stroke="black" id="8-9"/>
  <path d="M36.834561,576.000000 L185.374108,459.443200" fill="none" stroke="black" id="8-11"/>
  <path d="M36.834561,576.000000 L324.438965,543.360000" fill="none" stroke="black" id="8-12"/>
  <path d="M419.992101,576.000000 L324.438965,543.360000" fill="none" stroke="black" id="9-12"/>
  <ellipse cx="0.0" cy="0.0" rx="8.0" ry="8.0" fill="#FFFFFF" stroke="black" id="0"/>
  <ellipse cx="555.4355340553778" cy="450.6097790627014" rx="8.0" ry="8.0" fill="#FFFFFF" stroke="black" id="1"/>
  <ellipse cx="195.65460277287002" cy="76.2552384784222" rx="8.0" ry="8.0" fill="#FFFFFF" stroke="black" id="2"/>
  <ellipse cx="407.757877845954" cy="32.63999999999994" rx="8.0" ry="8.0" fill="#d62728" stroke="black" id="3"/>
  <ellipse cx="463.1622730007981" cy="210.54529401802424" rx="8.0" ry="8.0" fill="#FFFFFF" stroke="black" id="4"/>
  <ellipse cx="576.0" cy="359.8912600530568" rx="8.0" ry="8.0" fill="#FFFFFF" stroke="black" id="5"/>
  <ellipse cx="390.89848881623567" cy="264.1272758961527" rx="8.0" ry="8.0" fill="#FFFFFF" stroke="black" id="6"/>
  <ellipse cx="331.8929618085561" cy="405.76972378546265" rx="8.0" ry="8.0" fill="#FFFFFF" stroke="black" id="7"/>
  <ellipse cx="36.83429476688275" cy="576.0000000000001" rx="8.0" ry="8.0" fill="#FFFFFF" stroke="black" id="8"/>
  <ellipse cx="419.9919680084863" cy="576.0000000000001" rx="8.0" ry="8.0" fill="#FFFFFF" stroke="black" id="9"/>
  <ellipse cx="468.1973992627305" cy="0.0" rx="8.0" ry="8.0" fill="#FFFFFF" stroke="black" id="10"/>
  <ellipse cx="185.3739507614476" cy="459.44306844302616" rx="8.0" ry="8.0" fill="#FFFFFF" stroke="black" id="11"/>
  <ellipse cx="324.4392088589646" cy="543.36" rx="8.0" ry="8.0" fill="#d62728" stroke="black" id="12"/>
</svg>
