<?xml version="1.0" ?>
<svg xmlns="http://www.w3.org/2000/svg" version="1.1" width="600.0000000000001" height="600.0" viewBox="-12.0 -12.0 600.0000000000001 600.0">
  <path d="M248.573440,439.594645 L0.000000,566.298413" fill="none" stroke="black" id="0-3"/>
  <path d="M248.573440,439.594645 L158.472320,341.525460" fill="none" stroke="black" id="0-8"/>
  <path d="M248.573440,439.594645 L274.115840,575.999638" fill="none" stroke="black" id="0-11"/>
  <path d="M256.238080,122.260661 L476.356480,355.437458" fill="none" stroke="black" id="1-2"/>
  <path d="M256.238080,122.260661 L230.184960,0.000000" fill="none" stroke="#c43c24" id="1-9"/>
  <path d="M256.238080,122.260661 L27.151360,9.894468" fill="none" stroke="#c43c24" id="1-12"/>
  <path d="M476.356480,355.437458 L576.000000,128.330104" fill="none" stroke="black" id="2-10"/>
  <path d="M0.000000,566.298413 L158.472320,341.525460" fill="none" stroke="black" id="3-8"/>
  <path d="M0.000000,566.298413 L230.184960,0.000000" fill="none" stroke="black" id="3-9"/>
  <path d="M576.000000,0.000000 L518.801920,37.615942" fill="none" stroke="black" id="4-5"/>
  <path d="M576.000000,0.000000 L465.644160,283.316634" fill="none" stroke="black" id="4-6"/>
  <path d="M576.000000,0.000000 L230.184960,0.000000" fill="none" stroke="black" id="4-9"/>
  <path d="M576.000000,0.000000 L576.000000,128.330104" fill="none" stroke="black" id="4-10"/>
  <path d="M576.000000,0.000000 L274.115840,575.999638" fill="none" stroke="black" id="4-11"/>
  <path d="M576.000000,500.462402 L158.472320,341.525460" fill="none" stroke="#c43c24" id="7-8"/>
  <path d="M576.000000,500.462402 L274.115840,575.999638" fill="none" stroke="black" id="7-11"/>
  <path d="M158.472320,341.525460 L230.184960,0.000000" fill="none" stroke="#c43c24" id="8-9"/>
  <ellipse cx="248.5734171407562" cy="439.59461948593037" rx="8.0" ry="8.0" fill="#FFFFFF" stroke="black" id="0"/>
  <ellipse cx="256.23834615703095" cy="122.26077323044089" rx="8.0" ry="8.0" fill="#FFFFFF" stroke="black" id="1"/>
  <ellipse cx="476.35647659009453" cy="355.43760994672505" rx="8.0" ry="8.0" fill="#FFFFFF" stroke="black" id="2"/>
  <ellipse cx="0.0" cy="566.298549643299" rx="8.0" ry="8.0" fill="#FFFFFF" stroke="black" id="3"/>
  <ellipse cx="576.0000000000001" cy="0.0" rx="8.0" ry="8.0" fill="#FFFFFF" stroke="black" id="4"/>
  <ellipse cx="518.8021351244084" cy="37.61594164208751" rx="8.0" ry="8.0" fill="#FFFFFF" stroke="black" id="5"/>
  <ellipse cx="465.6442917366418" cy="283.3167918616694" rx="8.0" ry="8.0" fill="#FFFFFF" stroke="black" id="6"/>
  <ellipse cx="576.0000000000001" cy="500.46224194491333" rx="8.0" ry="8.0" fill="#d62728" stroke="black" id="7"/>
  <ellipse cx="158.47211883074948" cy="341.52538337764724" rx="8.0" ry="8.0" fill="#FFFFFF" stroke="black" id="8"/>
  <ellipse cx="230.18482651572742" cy="0.0" rx="8.0" ry="8.0" fill="#FFFFFF" stroke="black" id="9"/>
  <ellipse cx="576.0000000000001" cy="128.33037347897383" rx="8.0" ry="8.0" fill="#FFFFFF" stroke="black" id="10"/>
  <ellipse cx="274.11589997811006" cy="576.0" rx="8.0" ry="8.0" fill="#FFFFFF" stroke="black" id="11"/>
  <ellipse cx="27.15113224662643" cy="9.894657290268192" rx="8.0" ry="8.0" fill="#d62728" stroke="black" id="12"/>
</svg>
