<?xml version="1.0" ?>
<svg xmlns="http://www.w3.org/2000/svg" version="1.1" width="600.0" height="600.0" viewBox="-12.0 -12.0 600.0 600.0">
  <path d="M0.000091,464.823160 L250.954506,563.079298" fill="none" stroke="black" id="0-1"/>
  <path d="M0.000091,464.823160 L307.594841,386.398770" fill="none" stroke="black" id="0-2"/>
  <path d="M0.000091,464.823160 L191.034258,0.000166" fill="none" stroke="black" id="0-4"/>
  <path d="M0.000091,464.823160 L249.083771,451.711459" fill="none" stroke="black" id="0-11"/>
  <path d="M0.000091,464.823160 L137.995156,200.637994" fill="none" stroke="black" id="0-13"/>
  <path d="M250.954506,563.079298 L426.465931,575.999916" fill="none" stroke="black" id="1-5"/>
  <path d="M307.594841,386.398770 L497.396829,544.937044" fill="none" stroke="black" id="2-6"/>
  <path d="M307.594841,386.398770 L423.357570,298.963266" fill="none" stroke="black" id="2-10"/>
  <path d="M552.160529,286.152112 L275.269068,231.896269" fill="none" stroke="black" id="3-8"/>
  <path d="M552.160529,286.152112 L575.999918,459.861742" fill="none" stroke="black" id="3-12"/>
  <path d="M191.034258,0.000166 L348.935269,66.261065" fill="none" stroke="black" id="4-7"/>
  <path d="M191.034258,0.000166 L423.357570,298.963266" fill="none" stroke="black" id="4-10"/>
  <path d="M426.465931,575.999916 L249.083771,451.711459" fill="none" stroke="black" id="5-11"/>
  <path d="M497.396829,544.937044 L423.357570,298.963266" fill="none" stroke="black" id="6-10"/>
  <path d="M497.396829,544.937044 L575.999918,459.861742" fill="none" stroke="black" id="6-12"/>
  <path d="M348.935269,66.261065 L137.995156,200.637994" fill="none" stroke="black" id="7-13"/>
  <path d="M275.269068,231.896269 L232.356987,356.019569" fill="none" stroke="black" id="8-9"/>
  <path d="M275.269068,231.896269 L137.995156,200.637994" fill="none" stroke="black" id="8-13"/>
  <path d="M249.083771,451.711459 L137.995156,200.637994" fill="none" stroke="black" id="11-13"/>
  <ellipse cx="0.0" cy="464.8232140343975" rx="8.0" ry="8.0" fill="#FFFFFF" stroke="black" id="0"/>
  <ellipse cx="250.95442251953142" cy="563.0790742230266" rx="8.0" ry="8.0" fill="#FFFFFF" stroke="black" id="1"/>
  <ellipse cx="307.59479619060806" cy="386.3986492179977" rx="8.0" ry="8.0" fill="#FFFFFF" stroke="black" id="2"/>
  <ellipse cx="552.1605729318705" cy="286.1521164824844" rx="8.0" ry="8.0" fill="#FFFFFF" stroke="black" id="3"/>
  <ellipse cx="191.03423636796086" cy="0.0" rx="8.0" ry="8.0" fill="#FFFFFF" stroke="black" id="4"/>
  <ellipse cx="426.46576290897036" cy="576.0" rx="8.0" ry="8.0" fill="#FFFFFF" stroke="black" id="5"/>
  <ellipse cx="497.3967457962827" cy="544.9372189414044" rx="8.0" ry="8.0" fill="#FFFFFF" stroke="black" id="6"/>
  <ellipse cx="348.9350805123654" cy="66.26101873076132" rx="8.0" ry="8.0" fill="#FFFFFF" stroke="black" id="7"/>
  <ellipse cx="275.2690128696926" cy="231.8964379769832" rx="8.0" ry="8.0" fill="#FFFFFF" stroke="black" id="8"/>
  <ellipse cx="232.3572057154735" cy="356.0196378382062" rx="8.0" ry="8.0" fill="#d62728" stroke="black" id="9"/>
  <ellipse cx="423.35758422787535" cy="298.9630623018743" rx="8.0" ry="8.0" fill="#d62728" stroke="black" id="10"/>
  <ellipse cx="249.08397293599754" cy="451.7112682893792" rx="8.0" ry="8.0" fill="#FFFFFF" stroke="black" id="11"/>
  <ellipse cx="576.0" cy="459.86162718479784" rx="8.0" ry="8.0" fill="#FFFFFF" stroke="black" id="12"/>
  <ellipse cx="137.99506394809185" cy="200.63819909374857" rx="8.0" ry="8.0" fill="#FFFFFF" stroke="black" id="13"/>
</svg>
