<?xml version="1.0" ?>
<svg xmlns="http://www.w3.org/2000/svg" version="1.1" width="600.0000000000001" height="600.0000000000001" viewBox="-12.0 -12.0 600.0000000000001 600.0000000000001">
  <path d="M69.598720,431.274989 L139.911040,305.791488" fill="none" stroke="black" id="0-1"/>
  <path d="M69.598720,431.274989 L223.370880,406.096771" fill="none" stroke="black" id="0-11"/>
  <path d="M139.911040,305.791488 L65.177600,576.000000" fill="none" stroke="#c43c24" id="1-4"/>
  <path d="M139.911040,305.791488 L45.519360,266.546562" fill="none" stroke="#c43c24" id="1-6"/>
  <path d="M139.911040,305.791488 L174.529920,-0.000048" fill="none" stroke="black" id="1-8"/>
  <path d="M0.000000,249.215275 L65.177600,576.000000" fill="none" stroke="black" id="2-4"/>
  <path d="M172.065280,381.031522 L174.529920,-0.000048" fill="none" stroke="black" id="3-8"/>
  <path d="M172.065280,381.031522 L223.370880,406.096771" fill="none" stroke="black" id="3-11"/>
  <path d="M65.177600,576.000000 L500.435840,502.244624" fill="none" stroke="#c43c24" id="4-9"/>
  <path d="M65.177600,576.000000 L362.683520,335.392230" fill="none" stroke="black" id="4-10"/>
  <path d="M364.774400,275.208676 L174.529920,-0.000048" fill="none" stroke="black" id="5-8"/>
  <path d="M364.774400,275.208676 L500.435840,502.244624" fill="none" stroke="black" id="5-9"/>
  <path d="M45.519360,266.546562 L174.529920,-0.000048" fill="none" stroke="black" id="6-8"/>
  <path d="M576.000000,474.057292 L174.529920,-0.000048" fill="none" stroke="black" id="7-8"/>
  <path d="M576.000000,474.057292 L500.435840,502.244624" fill="none" stroke="black" id="7-9"/>
  <path d="M500.435840,502.244624 L223.370880,406.096771" fill="none" stroke="black" id="9-11"/>
  <path d="M500.435840,502.244624 L336.982400,485.778585" fill="none" stroke="#c43c24" id="9-12"/>
  <path d="M362.683520,335.392230 L262.724480,227.021779" fill="none" stroke="black" id="10-13"/>
  <path d="M336.982400,485.778585 L262.724480,227.021779" fill="none" stroke="black" id="12-13"/>
  <ellipse cx="69.59884930164836" cy="431.27519984860623" rx="8.0" ry="8.0" fill="#FFFFFF" stroke="black" id="0"/>
  <ellipse cx="139.9112863057795" cy="305.7912956679593" rx="8.0" ry="8.0" fill="#FFFFFF" stroke="black" id="1"/>
  <ellipse cx="0.0" cy="249.21544976781607" rx="8.0" ry="8.0" fill="#FFFFFF" stroke="black" id="2"/>
  <ellipse cx="172.065221276509" cy="381.0316742183805" rx="8.0" ry="8.0" fill="#FFFFFF" stroke="black" id="3"/>
  <ellipse cx="65.17789200230956" cy="576.0000000000001" rx="8.0" ry="8.0" fill="#FFFFFF" stroke="black" id="4"/>
  <ellipse cx="364.7744020908833" cy="275.2086871809684" rx="8.0" ry="8.0" fill="#FFFFFF" stroke="black" id="5"/>
  <ellipse cx="45.51952652884807" cy="266.54661980689843" rx="8.0" ry="8.0" fill="#d62728" stroke="black" id="6"/>
  <ellipse cx="576.0000000000001" cy="474.0574113384564" rx="8.0" ry="8.0" fill="#FFFFFF" stroke="black" id="7"/>
  <ellipse cx="174.53022680872112" cy="0.0" rx="8.0" ry="8.0" fill="#FFFFFF" stroke="black" id="8"/>
  <ellipse cx="500.43584104298736" cy="502.2448770005478" rx="8.0" ry="8.0" fill="#FFFFFF" stroke="black" id="9"/>
  <ellipse cx="362.6834109749626" cy="335.3919454731687" rx="8.0" ry="8.0" fill="#FFFFFF" stroke="black" id="10"/>
  <ellipse cx="223.37108349330677" cy="406.09698224562896" rx="8.0" ry="8.0" fill="#FFFFFF" stroke="black" id="11"/>
  <ellipse cx="336.9822544782632" cy="485.7787386457001" rx="8.0" ry="8.0" fill="#d62728" stroke="black" id="12"/>
  <ellipse cx="262.72458800503205" cy="227.0215407539586" rx="8.0" ry="8.0" fill="#FFFFFF" stroke="black" id="13"/>
</svg>
