<?xml version="1.0" ?>
<svg xmlns="http://www.w3.org/2000/svg" version="1.1" width="600.0" height="600.0" viewBox="-12.0 -12.0 600.0 600.0">
  <path d="M383.373725,44.015644 L525.204797,151.302878" fill="none" stroke="black" id="0-1"/>
  <path d="M383.373725,44.015644 L575.768542,89.110325" fill="none" stroke="black" id="0-2"/>
  <path d="M383.373725,44.015644 L410.037902,124.456990" fill="none" stroke="black" id="0-4"/>
  <path d="M383.373725,44.015644 L235.845086,324.189023" fill="none" stroke="black" id="0-11"/>
  <path d="M383.373725,44.015644 L0.000000,0.000170" fill="none" stroke="black" id="0-13"/>
  <path d="M525.204797,151.302878 L156.434408,537.199873" fill="none" stroke="black" id="1-5"/>
  <path d="M575.768542,89.110325 L576.000260,519.076929" fill="none" stroke="black" id="2-6"/>
  <path d="M575.768542,89.110325 L543.312702,211.058604" fill="none" stroke="black" id="2-10"/>
  <path d="M376.852984,575.529649 L377.263291,256.100555" fill="none" stroke="#c43c24" id="3-8"/>
  <path d="M376.852984,575.529649 L425.685888,576.000000" fill="none" stroke="#c43c24" id="3-12"/>
  <path d="M410.037902,124.456990 L423.917920,207.768956" fill="none" stroke="black" id="4-7"/>
  <path d="M410.037902,124.456990 L543.312702,211.058604" fill="none" stroke="black" id="4-10"/>
  <path d="M156.434408,537.199873 L235.845086,324.189023" fill="none" stroke="black" id="5-11"/>
  <path d="M576.000260,519.076929 L543.312702,211.058604" fill="none" stroke="#c43c24" id="6-10"/>
  <path d="M576.000260,519.076929 L425.685888,576.000000" fill="none" stroke="#c43c24" id="6-12"/>
  <path d="M423.917920,207.768956 L0.000000,0.000170" fill="none" stroke="black" id="7-13"/>
  <path d="M377.263291,256.100555 L240.649067,244.683459" fill="none" stroke="#c43c24" id="8-9"/>
  <path d="M377.263291,256.100555 L0.000000,0.000170" fill="none" stroke="black" id="8-13"/>
  <path d="M235.845086,324.189023 L0.000000,0.000170" fill="none" stroke="black" id="11-13"/>
  <ellipse cx="383.3739573738809" cy="44.01576099611435" rx="8.0" ry="8.0" fill="#FFFFFF" stroke="black" id="0"/>
  <ellipse cx="525.204575687972" cy="151.30299299383407" rx="8.0" ry="8.0" fill="#FFFFFF" stroke="black" id="1"/>
  <ellipse cx="575.7685738614593" cy="89.11000761229678" rx="8.0" ry="8.0" fill="#FFFFFF" stroke="black" id="2"/>
  <ellipse cx="376.8528998200073" cy="575.5293809411212" rx="8.0" ry="8.0" fill="#FFFFFF" stroke="black" id="3"/>
  <ellipse cx="410.03789637511034" cy="124.4570822162978" rx="8.0" ry="8.0" fill="#FFFFFF" stroke="black" id="4"/>
  <ellipse cx="156.4344189219023" cy="537.2001523941019" rx="8.0" ry="8.0" fill="#FFFFFF" stroke="black" id="5"/>
  <ellipse cx="576.0" cy="519.0770775859421" rx="8.0" ry="8.0" fill="#FFFFFF" stroke="black" id="6"/>
  <ellipse cx="423.9178340686788" cy="207.76924287015805" rx="8.0" ry="8.0" fill="#FFFFFF" stroke="black" id="7"/>
  <ellipse cx="377.26299271172985" cy="256.10048400643836" rx="8.0" ry="8.0" fill="#FFFFFF" stroke="black" id="8"/>
  <ellipse cx="240.64899412657456" cy="244.68343529836545" rx="8.0" ry="8.0" fill="#d62728" stroke="black" id="9"/>
  <ellipse cx="543.3123985191407" cy="211.058580236691" rx="8.0" ry="8.0" fill="#d62728" stroke="black" id="10"/>
  <ellipse cx="235.84508013305475" cy="324.1891320347954" rx="8.0" ry="8.0" fill="#FFFFFF" stroke="black" id="11"/>
  <ellipse cx="425.68586503782535" cy="576.0" rx="8.0" ry="8.0" fill="#FFFFFF" stroke="black" id="12"/>
  <ellipse cx="0.0" cy="0.0" rx="8.0" ry="8.0" fill="#FFFFFF" stroke="black" id="13"/>
</svg>
