<?xml version="1.0" ?>
<svg xmlns="http://www.w3.org/2000/svg" version="1.1" width="599.9999999999999" height="600.0000000000001" viewBox="-12.0 -12.0 599.9999999999999 600.0000000000001">
  <path d="M0.000118,576.000103 L445.897343,573.258987" fill="none" stroke="black" id="0-14"/>
  <path d="M175.327553,402.358392 L245.914429,354.934436" fill="none" stroke="#c43c24" id="1-3"/>
  <path d="M175.327553,402.358392 L284.962085,428.230200" fill="none" stroke="black" id="1-4"/>
  <path d="M175.327553,402.358392 L334.216251,185.937324" fill="none" stroke="black" id="1-5"/>
  <path d="M175.327553,402.358392 L544.958330,347.735215" fill="none" stroke="black" id="1-7"/>
  <path d="M366.536339,542.035177 L445.897343,573.258987" fill="none" stroke="black" id="2-14"/>
  <path d="M245.914429,354.934436 L462.249318,282.466824" fill="none" stroke="black" id="3-11"/>
  <path d="M245.914429,354.934436 L361.749639,281.715799" fill="none" stroke="#c43c24" id="3-13"/>
  <path d="M284.962085,428.230200 L445.897343,573.258987" fill="none" stroke="black" id="4-14"/>
  <path d="M334.216251,185.937324 L508.859046,-0.000212" fill="none" stroke="black" id="5-6"/>
  <path d="M334.216251,185.937324 L462.249318,282.466824" fill="none" stroke="black" id="5-11"/>
  <path d="M508.859046,-0.000212 L544.958330,347.735215" fill="none" stroke="black" id="6-7"/>
  <path d="M508.859046,-0.000212 L361.749639,281.715799" fill="none" stroke="black" id="6-13"/>
  <path d="M544.958330,347.735215 L576.000107,549.218594" fill="none" stroke="black" id="7-8"/>
  <path d="M544.958330,347.735215 L462.249318,282.466824" fill="none" stroke="black" id="7-11"/>
  <path d="M544.958330,347.735215 L445.897343,573.258987" fill="none" stroke="black" id="7-14"/>
  <path d="M200.756013,223.332438 L445.897343,573.258987" fill="none" stroke="black" id="9-14"/>
  <path d="M112.759703,63.846415 L88.144714,203.595267" fill="none" stroke="#c43c24" id="10-12"/>
  <path d="M112.759703,63.846415 L361.749639,281.715799" fill="none" stroke="#c43c24" id="10-13"/>
  <ellipse cx="0.0" cy="576.0000000000001" rx="8.0" ry="8.0" fill="#FFFFFF" stroke="black" id="0"/>
  <ellipse cx="175.32760908654595" cy="402.35854974775077" rx="8.0" ry="8.0" fill="#d62728" stroke="black" id="1"/>
  <ellipse cx="366.53626582618506" cy="542.0349254033762" rx="8.0" ry="8.0" fill="#FFFFFF" stroke="black" id="2"/>
  <ellipse cx="245.91424013454824" cy="354.93448681992584" rx="8.0" ry="8.0" fill="#FFFFFF" stroke="black" id="3"/>
  <ellipse cx="284.96185469288906" cy="428.2302643567441" rx="8.0" ry="8.0" fill="#FFFFFF" stroke="black" id="4"/>
  <ellipse cx="334.21626489939365" cy="185.93713982717557" rx="8.0" ry="8.0" fill="#FFFFFF" stroke="black" id="5"/>
  <ellipse cx="508.85916401539197" cy="0.0" rx="8.0" ry="8.0" fill="#FFFFFF" stroke="black" id="6"/>
  <ellipse cx="544.9585115428246" cy="347.7354906318882" rx="8.0" ry="8.0" fill="#FFFFFF" stroke="black" id="7"/>
  <ellipse cx="575.9999999999999" cy="549.218806945081" rx="8.0" ry="8.0" fill="#FFFFFF" stroke="black" id="8"/>
  <ellipse cx="200.7560181652501" cy="223.3326106432169" rx="8.0" ry="8.0" fill="#FFFFFF" stroke="black" id="9"/>
  <ellipse cx="112.75953659342707" cy="63.84671391026794" rx="8.0" ry="8.0" fill="#FFFFFF" stroke="black" id="10"/>
  <ellipse cx="462.2494926020089" cy="282.4668668422381" rx="8.0" ry="8.0" fill="#FFFFFF" stroke="black" id="11"/>
  <ellipse cx="88.14486522031123" cy="203.5951150851716" rx="8.0" ry="8.0" fill="#d62728" stroke="black" id="12"/>
  <ellipse cx="361.74985133397246" cy="281.71581865940016" rx="8.0" ry="8.0" fill="#FFFFFF" stroke="black" id="13"/>
  <ellipse cx="445.8974632177273" cy="573.2590669040897" rx="8.0" ry="8.0" fill="#FFFFFF" stroke="black" id="14"/>
</svg>
