<?xml version="1.0" ?>
<svg xmlns="http://www.w3.org/2000/svg" version="1.1" width="600.0" height="600.0" viewBox="-12.0 -12.0 600.0 600.0">
  <path d="M264.250125,383.809336 L576.000000,391.868327" fill="none" stroke="black" id="0-6"/>
  <path d="M172.637003,479.199443 L274.050546,511.028202" fill="none" stroke="black" id="1-3"/>
  <path d="M172.637003,479.199443 L358.904986,181.668397" fill="none" stroke="#c43c24" id="1-14"/>
  <path d="M148.041617,181.680918 L448.789858,103.519221" fill="none" stroke="black" id="2-9"/>
  <path d="M148.041617,181.680918 L0.000197,451.846957" fill="none" stroke="black" id="2-10"/>
  <path d="M148.041617,181.680918 L279.291689,174.003089" fill="none" stroke="black" id="2-12"/>
  <path d="M148.041617,181.680918 L89.079647,410.072431" fill="none" stroke="black" id="2-13"/>
  <path d="M170.996422,0.000000 L313.396293,79.873169" fill="none" stroke="black" id="4-8"/>
  <path d="M170.996422,0.000000 L448.789858,103.519221" fill="none" stroke="#c43c24" id="4-9"/>
  <path d="M170.996422,0.000000 L0.000197,451.846957" fill="none" stroke="black" id="4-10"/>
  <path d="M170.996422,0.000000 L479.285697,244.106797" fill="none" stroke="black" id="4-11"/>
  <path d="M395.576587,576.000000 L576.000000,391.868327" fill="none" stroke="black" id="5-6"/>
  <path d="M395.576587,576.000000 L0.000197,451.846957" fill="none" stroke="black" id="5-10"/>
  <path d="M576.000000,391.868327 L479.285697,244.106797" fill="none" stroke="black" id="6-11"/>
  <path d="M576.000000,391.868327 L279.291689,174.003089" fill="none" stroke="black" id="6-12"/>
  <path d="M164.896024,91.805384 L313.396293,79.873169" fill="none" stroke="black" id="7-8"/>
  <path d="M448.789858,103.519221 L479.285697,244.106797" fill="none" stroke="black" id="9-11"/>
  <path d="M448.789858,103.519221 L358.904986,181.668397" fill="none" stroke="#c43c24" id="9-14"/>
  <path d="M479.285697,244.106797 L89.079647,410.072431" fill="none" stroke="black" id="11-13"/>
  <ellipse cx="264.25029277278105" cy="383.8092411575008" rx="8.0" ry="8.0" fill="#FFFFFF" stroke="black" id="0"/>
  <ellipse cx="172.63699397959752" cy="479.19938975388106" rx="8.0" ry="8.0" fill="#d62728" stroke="black" id="1"/>
  <ellipse cx="148.04182085569096" cy="181.68111280017476" rx="8.0" ry="8.0" fill="#FFFFFF" stroke="black" id="2"/>
  <ellipse cx="274.0504583216038" cy="511.0284161417988" rx="8.0" ry="8.0" fill="#FFFFFF" stroke="black" id="3"/>
  <ellipse cx="170.99632314516276" cy="0.0" rx="8.0" ry="8.0" fill="#d62728" stroke="black" id="4"/>
  <ellipse cx="395.5765053421961" cy="576.0" rx="8.0" ry="8.0" fill="#FFFFFF" stroke="black" id="5"/>
  <ellipse cx="576.0" cy="391.8681549443767" rx="8.0" ry="8.0" fill="#FFFFFF" stroke="black" id="6"/>
  <ellipse cx="164.8960504633033" cy="91.80545268153605" rx="8.0" ry="8.0" fill="#FFFFFF" stroke="black" id="7"/>
  <ellipse cx="313.39643206932317" cy="79.87321322738173" rx="8.0" ry="8.0" fill="#FFFFFF" stroke="black" id="8"/>
  <ellipse cx="448.78987936673064" cy="103.51938168050978" rx="8.0" ry="8.0" fill="#FFFFFF" stroke="black" id="9"/>
  <ellipse cx="0.0" cy="451.84671218295165" rx="8.0" ry="8.0" fill="#FFFFFF" stroke="black" id="10"/>
  <ellipse cx="479.28549060261486" cy="244.10659344248825" rx="8.0" ry="8.0" fill="#FFFFFF" stroke="black" id="11"/>
  <ellipse cx="279.29160568828286" cy="174.00321094251842" rx="8.0" ry="8.0" fill="#FFFFFF" stroke="black" id="12"/>
  <ellipse cx="89.07945895694021" cy="410.0725501629479" rx="8.0" ry="8.0" fill="#FFFFFF" stroke="black" id="13"/>
  <ellipse cx="358.90481830635514" cy="181.66860088500377" rx="8.0" ry="8.0" fill="#FFFFFF" stroke="black" id="14"/>
</svg>
