<?xml version="1.0" ?>
<svg xmlns="http://www.w3.org/2000/svg" version="1.1" width="600.0" height="600.0" viewBox="-12.0 -12.0 600.0 600.0">
  <path d="M69.316047,505.309390 L312.898476,576.000000" fill="none" stroke="black" id="0-6"/>
  <path d="M448.581296,32.462666 L575.999916,-0.000132" fill="none" stroke="black" id="1-3"/>
  <path d="M448.581296,32.462666 L284.257676,52.891957" fill="none" stroke="#c43c24" id="1-14"/>
  <path d="M367.422535,271.422495 L263.431220,280.502836" fill="none" stroke="black" id="2-9"/>
  <path d="M367.422535,271.422495 L522.119471,431.173419" fill="none" stroke="black" id="2-10"/>
  <path d="M367.422535,271.422495 L232.610783,436.129215" fill="none" stroke="black" id="2-12"/>
  <path d="M367.422535,271.422495 L227.144000,244.215323" fill="none" stroke="black" id="2-13"/>
  <path d="M447.041903,112.876265 L0.000111,24.975509" fill="none" stroke="black" id="4-8"/>
  <path d="M447.041903,112.876265 L263.431220,280.502836" fill="none" stroke="#c43c24" id="4-9"/>
  <path d="M447.041903,112.876265 L522.119471,431.173419" fill="none" stroke="black" id="4-10"/>
  <path d="M447.041903,112.876265 L54.636493,293.009731" fill="none" stroke="black" id="4-11"/>
  <path d="M390.948685,336.039126 L312.898476,576.000000" fill="none" stroke="black" id="5-6"/>
  <path d="M390.948685,336.039126 L522.119471,431.173419" fill="none" stroke="black" id="5-10"/>
  <path d="M312.898476,576.000000 L54.636493,293.009731" fill="none" stroke="black" id="6-11"/>
  <path d="M312.898476,576.000000 L232.610783,436.129215" fill="none" stroke="black" id="6-12"/>
  <path d="M235.443581,153.112617 L0.000111,24.975509" fill="none" stroke="black" id="7-8"/>
  <path d="M263.431220,280.502836 L54.636493,293.009731" fill="none" stroke="black" id="9-11"/>
  <path d="M263.431220,280.502836 L284.257676,52.891957" fill="none" stroke="#c43c24" id="9-14"/>
  <path d="M54.636493,293.009731 L227.144000,244.215323" fill="none" stroke="black" id="11-13"/>
  <ellipse cx="69.3162670974273" cy="505.30937628232607" rx="8.0" ry="8.0" fill="#FFFFFF" stroke="black" id="0"/>
  <ellipse cx="448.58133898965775" cy="32.4625930661439" rx="8.0" ry="8.0" fill="#d62728" stroke="black" id="1"/>
  <ellipse cx="367.42240213398554" cy="271.42263456776453" rx="8.0" ry="8.0" fill="#FFFFFF" stroke="black" id="2"/>
  <ellipse cx="576.0" cy="0.0" rx="8.0" ry="8.0" fill="#FFFFFF" stroke="black" id="3"/>
  <ellipse cx="447.0418304646621" cy="112.87651464814272" rx="8.0" ry="8.0" fill="#d62728" stroke="black" id="4"/>
  <ellipse cx="390.9487762372337" cy="336.03929755227404" rx="8.0" ry="8.0" fill="#FFFFFF" stroke="black" id="5"/>
  <ellipse cx="312.8985763749746" cy="576.0" rx="8.0" ry="8.0" fill="#FFFFFF" stroke="black" id="6"/>
  <ellipse cx="235.44385023309357" cy="153.112596790015" rx="8.0" ry="8.0" fill="#FFFFFF" stroke="black" id="7"/>
  <ellipse cx="0.0" cy="24.97542847443348" rx="8.0" ry="8.0" fill="#FFFFFF" stroke="black" id="8"/>
  <ellipse cx="263.4313928464512" cy="280.5027324847781" rx="8.0" ry="8.0" fill="#FFFFFF" stroke="black" id="9"/>
  <ellipse cx="522.1195866653509" cy="431.1736005139624" rx="8.0" ry="8.0" fill="#FFFFFF" stroke="black" id="10"/>
  <ellipse cx="54.63652087814086" cy="293.0096656646526" rx="8.0" ry="8.0" fill="#FFFFFF" stroke="black" id="11"/>
  <ellipse cx="232.61104549533061" cy="436.12941972515654" rx="8.0" ry="8.0" fill="#FFFFFF" stroke="black" id="12"/>
  <ellipse cx="227.14415089880302" cy="244.2151261776188" rx="8.0" ry="8.0" fill="#FFFFFF" stroke="black" id="13"/>
  <ellipse cx="284.2577743355714" cy="52.891983668082055" rx="8.0" ry="8.0" fill="#FFFFFF" stroke="black" id="14"/>
</svg>
