<?xml version="1.0" ?>
<svg xmlns="http://www.w3.org/2000/svg" version="1.1" width="600.0" height="600.0000000000001" viewBox="-12.0 -12.0 600.0 600.0000000000001">
  <path d="M206.059015,285.821347 L150.207905,386.497175" fill="none" stroke="black" id="0-4"/>
  <path d="M206.059015,285.821347 L-0.000136,514.304644" fill="none" stroke="black" id="0-6"/>
  <path d="M206.059015,285.821347 L306.079394,516.479810" fill="none" stroke="black" id="0-10"/>
  <path d="M261.408231,345.355599 L326.161050,317.247835" fill="none" stroke="black" id="1-3"/>
  <path d="M261.408231,345.355599 L150.207905,386.497175" fill="none" stroke="black" id="1-4"/>
  <path d="M261.408231,345.355599 L-0.000136,514.304644" fill="none" stroke="black" id="1-6"/>
  <path d="M261.408231,345.355599 L244.835503,1.297320" fill="none" stroke="black" id="1-8"/>
  <path d="M261.408231,345.355599 L574.216582,0.000077" fill="none" stroke="black" id="1-9"/>
  <path d="M261.408231,345.355599 L306.079394,516.479810" fill="none" stroke="black" id="1-10"/>
  <path d="M575.999949,541.814360 L326.161050,317.247835" fill="none" stroke="black" id="2-3"/>
  <path d="M575.999949,541.814360 L158.185786,541.360668" fill="none" stroke="black" id="2-5"/>
  <path d="M575.999949,541.814360 L37.143715,575.999823" fill="none" stroke="black" id="2-13"/>
  <path d="M150.207905,386.497175 L158.185786,541.360668" fill="none" stroke="black" id="4-5"/>
  <path d="M150.207905,386.497175 L37.143715,575.999823" fill="none" stroke="black" id="4-13"/>
  <path d="M-0.000136,514.304644 L275.963663,45.346647" fill="none" stroke="black" id="6-7"/>
  <path d="M-0.000136,514.304644 L244.835503,1.297320" fill="none" stroke="black" id="6-8"/>
  <path d="M-0.000136,514.304644 L65.255656,237.023479" fill="none" stroke="black" id="6-11"/>
  <path d="M-0.000136,514.304644 L87.162819,269.332800" fill="none" stroke="black" id="6-12"/>
  <path d="M-0.000136,514.304644 L184.222625,254.343302" fill="none" stroke="black" id="6-14"/>
  <path d="M275.963663,45.346647 L244.835503,1.297320" fill="none" stroke="black" id="7-8"/>
  <path d="M244.835503,1.297320 L574.216582,0.000077" fill="none" stroke="black" id="8-9"/>
  <path d="M244.835503,1.297320 L65.255656,237.023479" fill="none" stroke="black" id="8-11"/>
  <path d="M574.216582,0.000077 L306.079394,516.479810" fill="none" stroke="black" id="9-10"/>
  <path d="M574.216582,0.000077 L529.261247,152.670727" fill="none" stroke="black" id="9-15"/>
  <path d="M306.079394,516.479810 L529.261247,152.670727" fill="none" stroke="black" id="10-15"/>
  <ellipse cx="206.05916959050546" cy="285.82111604071383" rx="8.0" ry="8.0" fill="#FFFFFF" stroke="black" id="0"/>
  <ellipse cx="261.40832513430814" cy="345.3557141771376" rx="8.0" ry="8.0" fill="#FFFFFF" stroke="black" id="1"/>
  <ellipse cx="576.0" cy="541.8145776963044" rx="8.0" ry="8.0" fill="#FFFFFF" stroke="black" id="2"/>
  <ellipse cx="326.1611237199429" cy="317.24781056428805" rx="8.0" ry="8.0" fill="#FFFFFF" stroke="black" id="3"/>
  <ellipse cx="150.2078922667179" cy="386.4973083173728" rx="8.0" ry="8.0" fill="#FFFFFF" stroke="black" id="4"/>
  <ellipse cx="158.18575277825218" cy="541.3605705771362" rx="8.0" ry="8.0" fill="#FFFFFF" stroke="black" id="5"/>
  <ellipse cx="0.0" cy="514.3044128452283" rx="8.0" ry="8.0" fill="#FFFFFF" stroke="black" id="6"/>
  <ellipse cx="275.9637142990849" cy="45.34658022466312" rx="8.0" ry="8.0" fill="#d62728" stroke="black" id="7"/>
  <ellipse cx="244.8353618233856" cy="1.297185447530211" rx="8.0" ry="8.0" fill="#FFFFFF" stroke="black" id="8"/>
  <ellipse cx="574.2164056774777" cy="0.0" rx="8.0" ry="8.0" fill="#FFFFFF" stroke="black" id="9"/>
  <ellipse cx="306.0795044393767" cy="516.4798398023826" rx="8.0" ry="8.0" fill="#FFFFFF" stroke="black" id="10"/>
  <ellipse cx="65.2557693422878" cy="237.02340289232862" rx="8.0" ry="8.0" fill="#FFFFFF" stroke="black" id="11"/>
  <ellipse cx="87.16273924465955" cy="269.33289991182556" rx="8.0" ry="8.0" fill="#FFFFFF" stroke="black" id="12"/>
  <ellipse cx="37.14357149584603" cy="576.0000000000001" rx="8.0" ry="8.0" fill="#d62728" stroke="black" id="13"/>
  <ellipse cx="184.2228562353105" cy="254.34354510470357" rx="8.0" ry="8.0" fill="#FFFFFF" stroke="black" id="14"/>
  <ellipse cx="529.2614659528317" cy="152.67077052464236" rx="8.0" ry="8.0" fill="#FFFFFF" stroke="black" id="15"/>
</svg>
