<?xml version="1.0" ?>
<svg xmlns="http://www.w3.org/2000/svg" version="1.1" width="600.0" height="600.0" viewBox="-12.0 -12.0 600.0 600.0">
  <path d="M516.024719,238.616819 L277.319276,167.875670" fill="none" stroke="black"/>
  <path d="M516.024719,238.616819 L491.068616,414.406483" fill="none" stroke="black"/>
  <path d="M277.319276,167.875670 L250.493204,336.675922" fill="none" stroke="#c43c24"/>
  <path d="M277.319276,167.875670 L200.364116,0.000000" fill="none" stroke="#c43c24"/>
  <path d="M277.319276,167.875670 L18.625785,214.407335" fill="none" stroke="black"/>
  <path d="M250.493204,336.675922 L122.058141,137.249163" fill="none" stroke="black"/>
  <path d="M250.493204,336.675922 L0.000000,362.225980" fill="none" stroke="black"/>
  <path d="M250.493204,336.675922 L397.379243,512.825997" fill="none" stroke="#c43c24"/>
  <path d="M250.493204,336.675922 L491.068616,414.406483" fill="none" stroke="black"/>
  <path d="M122.058141,137.249163 L200.364116,0.000000" fill="none" stroke="black"/>
  <path d="M122.058141,137.249163 L18.625785,214.407335" fill="none" stroke="black"/>
  <path d="M18.625785,214.407335 L0.000000,362.225980" fill="none" stroke="black"/>
  <path d="M576.000000,576.000000 L397.379243,512.825997" fill="none" stroke="black"/>
  <path d="M576.000000,576.000000 L491.068616,414.406483" fill="none" stroke="black"/>
  <path d="M397.379243,512.825997 L491.068616,414.406483" fill="none" stroke="black"/>
  <ellipse cx="516.0247187233045" cy="238.6168194817485" rx="8.0" ry="8.0" fill="#FFFFFF" stroke="black" id="0"/>
  <ellipse cx="277.3192758595769" cy="167.87567014683782" rx="8.0" ry="8.0" fill="#FFFFFF" stroke="black" id="1"/>
  <ellipse cx="250.4932036961937" cy="336.67592249612" rx="8.0" ry="8.0" fill="#FFFFFF" stroke="black" id="2"/>
  <ellipse cx="122.05814076831614" cy="137.24916345874848" rx="8.0" ry="8.0" fill="#FFFFFF" stroke="black" id="3"/>
  <ellipse cx="200.3641160567362" cy="0.0" rx="8.0" ry="8.0" fill="#d62728" stroke="black" id="4"/>
  <ellipse cx="18.625784945657198" cy="214.40733469968802" rx="8.0" ry="8.0" fill="#FFFFFF" stroke="black" id="5"/>
  <ellipse cx="576.0" cy="576.0" rx="8.0" ry="8.0" fill="#FFFFFF" stroke="black" id="6"/>
  <ellipse cx="0.0" cy="362.2259802099629" rx="8.0" ry="8.0" fill="#FFFFFF" stroke="black" id="7"/>
  <ellipse cx="397.3792428296005" cy="512.8259969625637" rx="8.0" ry="8.0" fill="#d62728" stroke="black" id="8"/>
  <ellipse cx="491.0686162682567" cy="414.40648270877523" rx="8.0" ry="8.0" fill="#FFFFFF" stroke="black" id="9"/>
</svg>
