<?xml version="1.0" ?>
<svg xmlns="http://www.w3.org/2000/svg" version="1.1" width="600.0" height="600.0" viewBox="-12.0 -12.0 600.0 600.0">
  <path d="M576.000000,576.000000 L475.862653,511.360520" fill="none" stroke="black" id="0-9"/>
  <path d="M308.317446,403.340431 L360.398078,545.882178" fill="none" stroke="#c43c24" id="1-3"/>
  <path d="M308.317446,403.340431 L204.983255,339.041188" fill="none" stroke="#c43c24" id="1-4"/>
  <path d="M308.317446,403.340431 L424.563956,369.396084" fill="none" stroke="black" id="1-7"/>
  <path d="M62.206342,132.758822 L96.692438,282.085665" fill="none" stroke="#c43c24" id="2-5"/>
  <path d="M62.206342,132.758822 L15.153605,0.000000" fill="none" stroke="black" id="2-8"/>
  <path d="M360.398078,545.882178 L475.862653,511.360520" fill="none" stroke="#c43c24" id="3-9"/>
  <path d="M204.983255,339.041188 L96.692438,282.085665" fill="none" stroke="#c43c24" id="4-5"/>
  <path d="M96.692438,282.085665 L0.000000,375.457609" fill="none" stroke="black" id="5-6"/>
  <path d="M424.563956,369.396084 L475.862653,511.360520" fill="none" stroke="black" id="7-9"/>
  <ellipse cx="576.0" cy="576.0" rx="8.0" ry="8.0" fill="#FFFFFF" stroke="black" id="0"/>
  <ellipse cx="308.31744640949165" cy="403.34043097944334" rx="8.0" ry="8.0" fill="#FFFFFF" stroke="black" id="1"/>
  <ellipse cx="62.20634170658074" cy="132.75882185245325" rx="8.0" ry="8.0" fill="#d62728" stroke="black" id="2"/>
  <ellipse cx="360.3980781972656" cy="545.882177943696" rx="8.0" ry="8.0" fill="#FFFFFF" stroke="black" id="3"/>
  <ellipse cx="204.98325455700186" cy="339.0411882401707" rx="8.0" ry="8.0" fill="#FFFFFF" stroke="black" id="4"/>
  <ellipse cx="96.69243802536616" cy="282.0856647280079" rx="8.0" ry="8.0" fill="#FFFFFF" stroke="black" id="5"/>
  <ellipse cx="0.0" cy="375.45760862521524" rx="8.0" ry="8.0" fill="#FFFFFF" stroke="black" id="6"/>
  <ellipse cx="424.56395602682795" cy="369.3960837102714" rx="8.0" ry="8.0" fill="#FFFFFF" stroke="black" id="7"/>
  <ellipse cx="15.153605206999302" cy="0.0" rx="8.0" ry="8.0" fill="#FFFFFF" stroke="black" id="8"/>
  <ellipse cx="475.86265262634356" cy="511.3605195412182" rx="8.0" ry="8.0" fill="#d62728" stroke="black" id="9"/>
</svg>
