<?xml version="1.0" ?>
<svg xmlns="http://www.w3.org/2000/svg" version="1.1" width="600.0" height="600.0000000000001" viewBox="-12.0 -12.0 600.0 600.0000000000001">
  <path d="M219.964655,34.213120 L263.460686,0.000000" fill="none" stroke="black" id="0-3"/>
  <path d="M219.964655,34.213120 L0.000000,9.332480" fill="none" stroke="black" id="0-5"/>
  <path d="M219.964655,34.213120 L77.612329,576.000000" fill="none" stroke="black" id="0-7"/>
  <path d="M219.964655,34.213120 L313.024585,76.197760" fill="none" stroke="black" id="0-8"/>
  <path d="M576.000099,30.920320 L263.460686,0.000000" fill="none" stroke="black" id="1-3"/>
  <path d="M576.000099,30.920320 L257.711714,128.023680" fill="none" stroke="#c43c24" id="1-4"/>
  <path d="M576.000099,30.920320 L313.024585,76.197760" fill="none" stroke="black" id="1-8"/>
  <path d="M576.000099,30.920320 L561.697151,477.578880" fill="none" stroke="#c43c24" id="1-9"/>
  <path d="M2.906215,386.414080 L77.612329,576.000000" fill="none" stroke="#c43c24" id="2-7"/>
  <path d="M263.460686,0.000000 L257.711714,128.023680" fill="none" stroke="black" id="3-4"/>
  <path d="M263.460686,0.000000 L0.000000,9.332480" fill="none" stroke="black" id="3-5"/>
  <path d="M257.711714,128.023680 L77.612329,576.000000" fill="none" stroke="#c43c24" id="4-7"/>
  <path d="M257.711714,128.023680 L313.024585,76.197760" fill="none" stroke="black" id="4-8"/>
  <path d="M437.949260,315.121920 L313.024585,76.197760" fill="none" stroke="black" id="6-8"/>
  <path d="M437.949260,315.121920 L561.697151,477.578880" fill="none" stroke="black" id="6-9"/>
  <ellipse cx="219.9646660624178" cy="34.21304321856848" rx="8.0" ry="8.0" fill="#FFFFFF" stroke="black" id="0"/>
  <ellipse cx="576.0" cy="30.92061264357651" rx="8.0" ry="8.0" fill="#FFFFFF" stroke="black" id="1"/>
  <ellipse cx="2.9063092380262745" cy="386.41380657353335" rx="8.0" ry="8.0" fill="#d62728" stroke="black" id="2"/>
  <ellipse cx="263.46092925237514" cy="0.0" rx="8.0" ry="8.0" fill="#FFFFFF" stroke="black" id="3"/>
  <ellipse cx="257.7113344187811" cy="128.02346887175875" rx="8.0" ry="8.0" fill="#FFFFFF" stroke="black" id="4"/>
  <ellipse cx="0.0" cy="9.332763324908498" rx="8.0" ry="8.0" fill="#FFFFFF" stroke="black" id="5"/>
  <ellipse cx="437.9494809078459" cy="315.12187817920784" rx="8.0" ry="8.0" fill="#FFFFFF" stroke="black" id="6"/>
  <ellipse cx="77.61197720052726" cy="576.0000000000001" rx="8.0" ry="8.0" fill="#FFFFFF" stroke="black" id="7"/>
  <ellipse cx="313.0246679663799" cy="76.19763337084274" rx="8.0" ry="8.0" fill="#FFFFFF" stroke="black" id="8"/>
  <ellipse cx="561.6973763532233" cy="477.57919085048144" rx="8.0" ry="8.0" fill="#d62728" stroke="black" id="9"/>
</svg>
