<?xml version="1.0" ?>
<svg xmlns="http://www.w3.org/2000/svg" version="1.1" width="600.0" height="600.0" viewBox="-12.0 -12.0 600.0 600.0">
  <path d="M229.172852,576.000000 L423.225600,534.301323" fill="none" stroke="black" id="0-3"/>
  <path d="M229.172852,576.000000 L84.215958,403.983977" fill="none" stroke="black" id="0-5"/>
  <path d="M229.172852,576.000000 L232.015576,346.926715" fill="none" stroke="black" id="0-7"/>
  <path d="M161.391229,169.891038 L344.351314,306.385437" fill="none" stroke="black" id="1-2"/>
  <path d="M161.391229,169.891038 L84.215958,403.983977" fill="none" stroke="black" id="1-5"/>
  <path d="M161.391229,169.891038 L0.000000,38.040828" fill="none" stroke="black" id="1-6"/>
  <path d="M161.391229,169.891038 L232.015576,346.926715" fill="none" stroke="black" id="1-7"/>
  <path d="M161.391229,169.891038 L316.875800,0.000000" fill="none" stroke="black" id="1-8"/>
  <path d="M344.351314,306.385437 L423.225600,534.301323" fill="none" stroke="black" id="2-3"/>
  <path d="M423.225600,534.301323 L576.000000,377.671750" fill="none" stroke="black" id="3-9"/>
  <path d="M438.182946,191.775291 L232.015576,346.926715" fill="none" stroke="black" id="4-7"/>
  <path d="M438.182946,191.775291 L316.875800,0.000000" fill="none" stroke="black" id="4-8"/>
  <path d="M438.182946,191.775291 L576.000000,377.671750" fill="none" stroke="black" id="4-9"/>
  <path d="M84.215958,403.983977 L232.015576,346.926715" fill="none" stroke="black" id="5-7"/>
  <ellipse cx="229.17285151280032" cy="576.0" rx="8.0" ry="8.0" fill="#FFFFFF" stroke="black" id="0"/>
  <ellipse cx="161.39122917337494" cy="169.8910383219628" rx="8.0" ry="8.0" fill="#FFFFFF" stroke="black" id="1"/>
  <ellipse cx="344.35131351736777" cy="306.3854366202045" rx="8.0" ry="8.0" fill="#FFFFFF" stroke="black" id="2"/>
  <ellipse cx="423.22560025513917" cy="534.3013226935425" rx="8.0" ry="8.0" fill="#FFFFFF" stroke="black" id="3"/>
  <ellipse cx="438.1829461018061" cy="191.77529097622048" rx="8.0" ry="8.0" fill="#FFFFFF" stroke="black" id="4"/>
  <ellipse cx="84.21595800904893" cy="403.9839766826416" rx="8.0" ry="8.0" fill="#FFFFFF" stroke="black" id="5"/>
  <ellipse cx="0.0" cy="38.04082767740595" rx="8.0" ry="8.0" fill="#d62728" stroke="black" id="6"/>
  <ellipse cx="232.01557572053204" cy="346.9267149828116" rx="8.0" ry="8.0" fill="#FFFFFF" stroke="black" id="7"/>
  <ellipse cx="316.8758004034127" cy="0.0" rx="8.0" ry="8.0" fill="#FFFFFF" stroke="black" id="8"/>
  <ellipse cx="576.0" cy="377.6717498925976" rx="8.0" ry="8.0" fill="#d62728" stroke="black" id="9"/>
</svg>
