<?xml version="1.0" ?>
<svg xmlns="http://www.w3.org/2000/svg" version="1.1" width="600.0" height="600.0" viewBox="-12.0 -12.0 600.0 600.0">
  <path d="M344.250473,439.231921 L520.728845,412.178060" fill="none" stroke="black" id="0-3"/>
  <path d="M344.250473,439.231921 L479.013774,576.000000" fill="none" stroke="black" id="0-5"/>
  <path d="M344.250473,439.231921 L170.872598,429.666703" fill="none" stroke="black" id="0-7"/>
  <path d="M344.250473,439.231921 L338.406304,189.303354" fill="none" stroke="black" id="0-8"/>
  <path d="M515.392004,232.964647 L520.728845,412.178060" fill="none" stroke="black" id="1-3"/>
  <path d="M515.392004,232.964647 L340.633686,320.190464" fill="none" stroke="black" id="1-4"/>
  <path d="M515.392004,232.964647 L338.406304,189.303354" fill="none" stroke="black" id="1-8"/>
  <path d="M515.392004,232.964647 L576.000000,48.427185" fill="none" stroke="black" id="1-9"/>
  <path d="M0.000000,502.912607 L170.872598,429.666703" fill="none" stroke="black" id="2-7"/>
  <path d="M520.728845,412.178060 L340.633686,320.190464" fill="none" stroke="black" id="3-4"/>
  <path d="M520.728845,412.178060 L479.013774,576.000000" fill="none" stroke="black" id="3-5"/>
  <path d="M340.633686,320.190464 L170.872598,429.666703" fill="none" stroke="black" id="4-7"/>
  <path d="M340.633686,320.190464 L338.406304,189.303354" fill="none" stroke="black" id="4-8"/>
  <path d="M389.039044,0.000000 L338.406304,189.303354" fill="none" stroke="black" id="6-8"/>
  <path d="M389.039044,0.000000 L576.000000,48.427185" fill="none" stroke="black" id="6-9"/>
  <ellipse cx="344.25047316707355" cy="439.2319211508561" rx="8.0" ry="8.0" fill="#FFFFFF" stroke="black" id="0"/>
  <ellipse cx="515.3920035577441" cy="232.96464665338505" rx="8.0" ry="8.0" fill="#FFFFFF" stroke="black" id="1"/>
  <ellipse cx="0.0" cy="502.91260747570675" rx="8.0" ry="8.0" fill="#d62728" stroke="black" id="2"/>
  <ellipse cx="520.7288446528507" cy="412.1780600419252" rx="8.0" ry="8.0" fill="#FFFFFF" stroke="black" id="3"/>
  <ellipse cx="340.633685712485" cy="320.1904637930194" rx="8.0" ry="8.0" fill="#FFFFFF" stroke="black" id="4"/>
  <ellipse cx="479.0137735616087" cy="576.0" rx="8.0" ry="8.0" fill="#FFFFFF" stroke="black" id="5"/>
  <ellipse cx="389.0390435480191" cy="0.0" rx="8.0" ry="8.0" fill="#FFFFFF" stroke="black" id="6"/>
  <ellipse cx="170.87259809768352" cy="429.66670346821354" rx="8.0" ry="8.0" fill="#FFFFFF" stroke="black" id="7"/>
  <ellipse cx="338.40630387953706" cy="189.30335408911247" rx="8.0" ry="8.0" fill="#d62728" stroke="black" id="8"/>
  <ellipse cx="576.0" cy="48.42718516006187" rx="8.0" ry="8.0" fill="#FFFFFF" stroke="black" id="9"/>
</svg>
