<?xml version="1.0" ?>
<svg xmlns="http://www.w3.org/2000/svg" version="1.1" width="600.0000000000001" height="600.0000000000001" viewBox="-12.0 -12.0 600.0000000000001 600.0000000000001">
  <path d="M244.768000,278.148480 L183.644800,378.282880" fill="none" stroke="black" id="0-5"/>
  <path d="M244.768000,278.148480 L576.000000,238.693760" fill="none" stroke="black" id="0-7"/>
  <path d="M0.000000,0.000000 L227.705600,215.831680" fill="none" stroke="#c43c24" id="1-3"/>
  <path d="M0.000000,0.000000 L0.000000,319.719040" fill="none" stroke="black" id="1-6"/>
  <path d="M0.000000,0.000000 L180.491520,0.000000" fill="none" stroke="#c43c24" id="1-8"/>
  <path d="M576.000000,0.000000 L180.491520,0.000000" fill="none" stroke="#c43c24" id="2-8"/>
  <path d="M227.705600,215.831680 L0.000000,319.719040" fill="none" stroke="black" id="3-6"/>
  <path d="M227.705600,215.831680 L576.000000,238.693760" fill="none" stroke="black" id="3-7"/>
  <path d="M227.705600,215.831680 L35.841280,576.000000" fill="none" stroke="#c43c24" id="3-10"/>
  <path d="M523.259520,487.992960 L183.644800,378.282880" fill="none" stroke="black" id="4-5"/>
  <path d="M523.259520,487.992960 L576.000000,238.693760" fill="none" stroke="black" id="4-7"/>
  <path d="M183.644800,378.282880 L576.000000,238.693760" fill="none" stroke="black" id="5-7"/>
  <path d="M183.644800,378.282880 L274.568320,462.263040" fill="none" stroke="black" id="5-9"/>
  <path d="M183.644800,378.282880 L35.841280,576.000000" fill="none" stroke="black" id="5-10"/>
  <path d="M0.000000,319.719040 L180.491520,0.000000" fill="none" stroke="black" id="6-8"/>
  <path d="M0.000000,319.719040 L274.568320,462.263040" fill="none" stroke="black" id="6-9"/>
  <path d="M576.000000,238.693760 L180.491520,0.000000" fill="none" stroke="black" id="7-8"/>
  <path d="M576.000000,238.693760 L274.568320,462.263040" fill="none" stroke="black" id="7-9"/>
  <ellipse cx="244.76786619368755" cy="278.1484884902785" rx="8.0" ry="8.0" fill="#FFFFFF" stroke="black" id="0"/>
  <ellipse cx="0.0" cy="0.0" rx="8.0" ry="8.0" fill="#FFFFFF" stroke="black" id="1"/>
  <ellipse cx="576.0000000000001" cy="0.0" rx="8.0" ry="8.0" fill="#d62728" stroke="black" id="2"/>
  <ellipse cx="227.7058093673307" cy="215.83169179532433" rx="8.0" ry="8.0" fill="#FFFFFF" stroke="black" id="3"/>
  <ellipse cx="523.2595953427751" cy="487.9930204791435" rx="8.0" ry="8.0" fill="#FFFFFF" stroke="black" id="4"/>
  <ellipse cx="183.64494537272995" cy="378.28288460889945" rx="8.0" ry="8.0" fill="#FFFFFF" stroke="black" id="5"/>
  <ellipse cx="0.0" cy="319.71882933579906" rx="8.0" ry="8.0" fill="#FFFFFF" stroke="black" id="6"/>
  <ellipse cx="576.0000000000001" cy="238.69349483426942" rx="8.0" ry="8.0" fill="#FFFFFF" stroke="black" id="7"/>
  <ellipse cx="180.491709013125" cy="0.0" rx="8.0" ry="8.0" fill="#FFFFFF" stroke="black" id="8"/>
  <ellipse cx="274.5681335527857" cy="462.26282102127453" rx="8.0" ry="8.0" fill="#FFFFFF" stroke="black" id="9"/>
  <ellipse cx="35.8411074310362" cy="576.0000000000001" rx="8.0" ry="8.0" fill="#d62728" stroke="black" id="10"/>
</svg>
