<?xml version="1.0" ?>
<svg xmlns="http://www.w3.org/2000/svg" version="1.1" width="600.0" height="600.0" viewBox="-12.0 -12.0 600.0 600.0">
  <path d="M0.000096,309.385079 L281.198742,576.000188" fill="none" stroke="black" id="0-3"/>
  <path d="M0.000096,309.385079 L260.955185,90.725245" fill="none" stroke="black" id="0-4"/>
  <path d="M0.000096,309.385079 L122.840312,386.382265" fill="none" stroke="black" id="0-10"/>
  <path d="M377.151957,0.000140 L489.151529,49.479445" fill="none" stroke="black" id="1-2"/>
  <path d="M377.151957,0.000140 L260.955185,90.725245" fill="none" stroke="black" id="1-4"/>
  <path d="M377.151957,0.000140 L341.001100,345.815615" fill="none" stroke="black" id="1-5"/>
  <path d="M377.151957,0.000140 L382.151492,459.381998" fill="none" stroke="black" id="1-6"/>
  <path d="M489.151529,49.479445 L575.999910,342.056343" fill="none" stroke="black" id="2-8"/>
  <path d="M281.198742,576.000188 L504.851618,474.567322" fill="none" stroke="black" id="3-9"/>
  <path d="M281.198742,576.000188 L122.840312,386.382265" fill="none" stroke="black" id="3-10"/>
  <path d="M260.955185,90.725245 L141.777967,287.885445" fill="none" stroke="black" id="4-7"/>
  <path d="M260.955185,90.725245 L122.840312,386.382265" fill="none" stroke="black" id="4-10"/>
  <path d="M341.001100,345.815615 L575.999910,342.056343" fill="none" stroke="black" id="5-8"/>
  <path d="M341.001100,345.815615 L122.840312,386.382265" fill="none" stroke="black" id="5-10"/>
  <path d="M141.777967,287.885445 L122.840312,386.382265" fill="none" stroke="black" id="7-10"/>
  <path d="M575.999910,342.056343 L504.851618,474.567322" fill="none" stroke="black" id="8-9"/>
  <ellipse cx="0.0" cy="309.3851096142617" rx="8.0" ry="8.0" fill="#FFFFFF" stroke="black" id="0"/>
  <ellipse cx="377.15208213993105" cy="0.0" rx="8.0" ry="8.0" fill="#FFFFFF" stroke="black" id="1"/>
  <ellipse cx="489.1516136845714" cy="49.47956568400662" rx="8.0" ry="8.0" fill="#FFFFFF" stroke="black" id="2"/>
  <ellipse cx="281.1988591741488" cy="576.0" rx="8.0" ry="8.0" fill="#d62728" stroke="black" id="3"/>
  <ellipse cx="260.95503370531935" cy="90.72520696108535" rx="8.0" ry="8.0" fill="#FFFFFF" stroke="black" id="4"/>
  <ellipse cx="341.0011671012526" cy="345.8154795304668" rx="8.0" ry="8.0" fill="#FFFFFF" stroke="black" id="5"/>
  <ellipse cx="382.1514908609739" cy="459.3818258828632" rx="8.0" ry="8.0" fill="#d62728" stroke="black" id="6"/>
  <ellipse cx="141.77810340489253" cy="287.8854645320592" rx="8.0" ry="8.0" fill="#FFFFFF" stroke="black" id="7"/>
  <ellipse cx="576.0" cy="342.0564864858206" rx="8.0" ry="8.0" fill="#FFFFFF" stroke="black" id="8"/>
  <ellipse cx="504.8515636177998" cy="474.56751135927317" rx="8.0" ry="8.0" fill="#FFFFFF" stroke="black" id="9"/>
  <ellipse cx="122.84034953632174" cy="386.38206710238205" rx="8.0" ry="8.0" fill="#FFFFFF" stroke="black" id="10"/>
</svg>
