<?xml version="1.0" ?>
<svg xmlns="http://www.w3.org/2000/svg" version="1.1" width="600.0" height="599.9999999999999" viewBox="-12.0 -12.0 600.0 599.9999999999999">
  <path d="M33.629045,67.979879 L0.335687,349.186210" fill="none" stroke="black" id="0-5"/>
  <path d="M33.629045,67.979879 L431.105695,266.885106" fill="none" stroke="black" id="0-7"/>
  <path d="M575.999936,-0.000275 L372.164045,0.482749" fill="none" stroke="black" id="1-3"/>
  <path d="M575.999936,-0.000275 L480.429237,67.224594" fill="none" stroke="black" id="1-6"/>
  <path d="M575.999936,-0.000275 L502.750825,575.999835" fill="none" stroke="black" id="1-8"/>
  <path d="M381.285363,357.808890 L502.750825,575.999835" fill="none" stroke="black" id="2-8"/>
  <path d="M372.164045,0.482749 L480.429237,67.224594" fill="none" stroke="black" id="3-6"/>
  <path d="M372.164045,0.482749 L431.105695,266.885106" fill="none" stroke="black" id="3-7"/>
  <path d="M372.164045,0.482749 L0.000000,33.099667" fill="none" stroke="black" id="3-10"/>
  <path d="M240.820524,357.120229 L0.335687,349.186210" fill="none" stroke="black" id="4-5"/>
  <path d="M240.820524,357.120229 L431.105695,266.885106" fill="none" stroke="black" id="4-7"/>
  <path d="M0.335687,349.186210 L431.105695,266.885106" fill="none" stroke="black" id="5-7"/>
  <path d="M0.335687,349.186210 L46.467312,237.951084" fill="none" stroke="black" id="5-9"/>
  <path d="M0.335687,349.186210 L0.000000,33.099667" fill="none" stroke="black" id="5-10"/>
  <path d="M480.429237,67.224594 L502.750825,575.999835" fill="none" stroke="black" id="6-8"/>
  <path d="M480.429237,67.224594 L46.467312,237.951084" fill="none" stroke="black" id="6-9"/>
  <path d="M431.105695,266.885106 L502.750825,575.999835" fill="none" stroke="black" id="7-8"/>
  <path d="M431.105695,266.885106 L46.467312,237.951084" fill="none" stroke="black" id="7-9"/>
  <ellipse cx="33.62927742981641" cy="67.97996626112999" rx="8.0" ry="8.0" fill="#FFFFFF" stroke="black" id="0"/>
  <ellipse cx="576.0" cy="0.0" rx="8.0" ry="8.0" fill="#FFFFFF" stroke="black" id="1"/>
  <ellipse cx="381.2852773521822" cy="357.8088966604485" rx="8.0" ry="8.0" fill="#d62728" stroke="black" id="2"/>
  <ellipse cx="372.1638519373384" cy="0.4828149546570799" rx="8.0" ry="8.0" fill="#FFFFFF" stroke="black" id="3"/>
  <ellipse cx="240.82056193704852" cy="357.12016792346003" rx="8.0" ry="8.0" fill="#FFFFFF" stroke="black" id="4"/>
  <ellipse cx="0.33550819415771116" cy="349.1863523852496" rx="8.0" ry="8.0" fill="#FFFFFF" stroke="black" id="5"/>
  <ellipse cx="480.42909126015866" cy="67.2244709134489" rx="8.0" ry="8.0" fill="#FFFFFF" stroke="black" id="6"/>
  <ellipse cx="431.10546715256805" cy="266.88497639194776" rx="8.0" ry="8.0" fill="#FFFFFF" stroke="black" id="7"/>
  <ellipse cx="502.75060114259463" cy="575.9999999999999" rx="8.0" ry="8.0" fill="#FFFFFF" stroke="black" id="8"/>
  <ellipse cx="46.46739487238685" cy="237.95116958184553" rx="8.0" ry="8.0" fill="#FFFFFF" stroke="black" id="9"/>
  <ellipse cx="0.0" cy="33.09979497709137" rx="8.0" ry="8.0" fill="#d62728" stroke="black" id="10"/>
</svg>
