<?xml version="1.0" ?>
<svg xmlns="http://www.w3.org/2000/svg" version="1.1" width="600.0" height="600.0" viewBox="-12.0 -12.0 600.0 600.0">
  <path d="M92.242273,381.923228 L135.223629,327.936347" fill="none" stroke="black" id="0-5"/>
  <path d="M92.242273,381.923228 L0.000018,132.821874" fill="none" stroke="black" id="0-8"/>
  <path d="M92.242273,381.923228 L28.085499,488.460830" fill="none" stroke="black" id="0-9"/>
  <path d="M575.999879,311.462316 L442.909008,506.599652" fill="none" stroke="black" id="1-4"/>
  <path d="M193.340894,575.999838 L263.266900,334.373499" fill="none" stroke="black" id="2-7"/>
  <path d="M193.340894,575.999838 L28.085499,488.460830" fill="none" stroke="black" id="2-9"/>
  <path d="M387.326454,71.522427 L0.000018,132.821874" fill="none" stroke="black" id="3-8"/>
  <path d="M387.326454,71.522427 L351.979856,303.660601" fill="none" stroke="black" id="3-11"/>
  <path d="M442.909008,506.599652 L430.813144,290.706878" fill="none" stroke="black" id="4-6"/>
  <path d="M442.909008,506.599652 L263.266900,334.373499" fill="none" stroke="black" id="4-7"/>
  <path d="M442.909008,506.599652 L351.979856,303.660601" fill="none" stroke="black" id="4-11"/>
  <path d="M135.223629,327.936347 L263.266900,334.373499" fill="none" stroke="black" id="5-7"/>
  <path d="M263.266900,334.373499 L0.000018,132.821874" fill="none" stroke="black" id="7-8"/>
  <path d="M263.266900,334.373499 L241.937202,0.000188" fill="none" stroke="black" id="7-10"/>
  <path d="M0.000018,132.821874 L28.085499,488.460830" fill="none" stroke="black" id="8-9"/>
  <ellipse cx="92.24236807581377" cy="381.92303364031795" rx="8.0" ry="8.0" fill="#FFFFFF" stroke="black" id="0"/>
  <ellipse cx="576.0" cy="311.46240595227766" rx="8.0" ry="8.0" fill="#d62728" stroke="black" id="1"/>
  <ellipse cx="193.34094848355684" cy="576.0" rx="8.0" ry="8.0" fill="#FFFFFF" stroke="black" id="2"/>
  <ellipse cx="387.32659594836855" cy="71.52224157575688" rx="8.0" ry="8.0" fill="#FFFFFF" stroke="black" id="3"/>
  <ellipse cx="442.9091960131588" cy="506.5996186229818" rx="8.0" ry="8.0" fill="#FFFFFF" stroke="black" id="4"/>
  <ellipse cx="135.22381548777008" cy="327.9360542015378" rx="8.0" ry="8.0" fill="#FFFFFF" stroke="black" id="5"/>
  <ellipse cx="430.81332085890324" cy="290.70689078281134" rx="8.0" ry="8.0" fill="#FFFFFF" stroke="black" id="6"/>
  <ellipse cx="263.26672614016326" cy="334.3732491873692" rx="8.0" ry="8.0" fill="#FFFFFF" stroke="black" id="7"/>
  <ellipse cx="0.0" cy="132.82200245693414" rx="8.0" ry="8.0" fill="#FFFFFF" stroke="black" id="8"/>
  <ellipse cx="28.085422559065563" cy="488.4609577791506" rx="8.0" ry="8.0" fill="#d62728" stroke="black" id="9"/>
  <ellipse cx="241.93706700410297" cy="0.0" rx="8.0" ry="8.0" fill="#FFFFFF" stroke="black" id="10"/>
  <ellipse cx="351.9799250877826" cy="303.66084826083545" rx="8.0" ry="8.0" fill="#FFFFFF" stroke="black" id="11"/>
</svg>
