<?xml version="1.0" ?>
<svg xmlns="http://www.w3.org/2000/svg" version="1.1" width="600.0" height="600.0" viewBox="-12.0 -12.0 600.0 600.0">
  <path d="M427.843407,379.625159 L239.714064,343.003599" fill="none" stroke="black" id="0-5"/>
  <path d="M427.843407,379.625159 L249.852110,410.672947" fill="none" stroke="black" id="0-8"/>
  <path d="M427.843407,379.625159 L409.601293,575.999786" fill="none" stroke="black" id="0-9"/>
  <path d="M188.788257,238.026244 L155.396733,82.848695" fill="none" stroke="#c43c24" id="1-4"/>
  <path d="M546.922891,298.701549 L352.140284,200.878246" fill="none" stroke="#c43c24" id="2-7"/>
  <path d="M546.922891,298.701549 L409.601293,575.999786" fill="none" stroke="#c43c24" id="2-9"/>
  <path d="M-0.000042,278.256977 L249.852110,410.672947" fill="none" stroke="black" id="3-8"/>
  <path d="M-0.000042,278.256977 L36.795541,0.000128" fill="none" stroke="black" id="3-11"/>
  <path d="M155.396733,82.848695 L244.381673,4.973498" fill="none" stroke="black" id="4-6"/>
  <path d="M155.396733,82.848695 L352.140284,200.878246" fill="none" stroke="#c43c24" id="4-7"/>
  <path d="M155.396733,82.848695 L36.795541,0.000128" fill="none" stroke="black" id="4-11"/>
  <path d="M239.714064,343.003599 L352.140284,200.878246" fill="none" stroke="black" id="5-7"/>
  <path d="M352.140284,200.878246 L249.852110,410.672947" fill="none" stroke="black" id="7-8"/>
  <path d="M352.140284,200.878246 L575.999897,140.539881" fill="none" stroke="black" id="7-10"/>
  <path d="M249.852110,410.672947 L409.601293,575.999786" fill="none" stroke="black" id="8-9"/>
  <ellipse cx="427.8432978675719" cy="379.62522824805376" rx="8.0" ry="8.0" fill="#FFFFFF" stroke="black" id="0"/>
  <ellipse cx="188.78839370602864" cy="238.02605237334137" rx="8.0" ry="8.0" fill="#d62728" stroke="black" id="1"/>
  <ellipse cx="546.9226362938894" cy="298.7017625172188" rx="8.0" ry="8.0" fill="#FFFFFF" stroke="black" id="2"/>
  <ellipse cx="0.0" cy="278.25676656723016" rx="8.0" ry="8.0" fill="#FFFFFF" stroke="black" id="3"/>
  <ellipse cx="155.39681991824983" cy="82.84876967411552" rx="8.0" ry="8.0" fill="#FFFFFF" stroke="black" id="4"/>
  <ellipse cx="239.7140778584021" cy="343.00363531971885" rx="8.0" ry="8.0" fill="#FFFFFF" stroke="black" id="5"/>
  <ellipse cx="244.38161451189018" cy="4.973271065676741" rx="8.0" ry="8.0" fill="#FFFFFF" stroke="black" id="6"/>
  <ellipse cx="352.14020617811667" cy="200.8783863323495" rx="8.0" ry="8.0" fill="#FFFFFF" stroke="black" id="7"/>
  <ellipse cx="249.85236231344555" cy="410.6728372402687" rx="8.0" ry="8.0" fill="#FFFFFF" stroke="black" id="8"/>
  <ellipse cx="409.60112311820177" cy="576.0" rx="8.0" ry="8.0" fill="#d62728" stroke="black" id="9"/>
  <ellipse cx="576.0" cy="140.5398896575344" rx="8.0" ry="8.0" fill="#FFFFFF" stroke="black" id="10"/>
  <ellipse cx="36.79564495235733" cy="0.0" rx="8.0" ry="8.0" fill="#FFFFFF" stroke="black" id="11"/>
</svg>
