<?xml version="1.0" ?>
<svg xmlns="http://www.w3.org/2000/svg" version="1.1" width="600.0000000000001" height="600.0000000000001" viewBox="-12.0 -12.0 600.0000000000001 600.0000000000001">
  <path d="M143.592320,55.534720 L101.588480,0.000000" fill="none" stroke="black" id="0-3"/>
  <path d="M143.592320,55.534720 L415.349760,281.695360" fill="none" stroke="black" id="0-10"/>
  <path d="M576.000000,11.589120 L101.588480,0.000000" fill="none" stroke="black" id="1-3"/>
  <path d="M576.000000,11.589120 L433.039360,59.832960" fill="none" stroke="black" id="1-8"/>
  <path d="M576.000000,11.589120 L415.349760,281.695360" fill="none" stroke="black" id="1-10"/>
  <path d="M320.631680,576.000000 L194.469120,490.496000" fill="none" stroke="black" id="2-7"/>
  <path d="M320.631680,576.000000 L374.842240,472.638720" fill="none" stroke="black" id="2-9"/>
  <path d="M0.000000,258.917760 L216.186880,263.282560" fill="none" stroke="black" id="4-5"/>
  <path d="M216.186880,263.282560 L194.469120,490.496000" fill="none" stroke="black" id="5-7"/>
  <path d="M216.186880,263.282560 L433.039360,59.832960" fill="none" stroke="black" id="5-8"/>
  <path d="M216.186880,263.282560 L415.349760,281.695360" fill="none" stroke="black" id="5-10"/>
  <path d="M216.186880,263.282560 L356.721920,389.556480" fill="none" stroke="black" id="5-11"/>
  <path d="M576.000000,335.949440 L194.469120,490.496000" fill="none" stroke="black" id="6-7"/>
  <path d="M576.000000,335.949440 L433.039360,59.832960" fill="none" stroke="black" id="6-8"/>
  <ellipse cx="143.5924060996055" cy="55.5349650512077" rx="8.0" ry="8.0" fill="#FFFFFF" stroke="black" id="0"/>
  <ellipse cx="576.0000000000001" cy="11.589367811675608" rx="8.0" ry="8.0" fill="#d62728" stroke="black" id="1"/>
  <ellipse cx="320.6314348853503" cy="576.0000000000001" rx="8.0" ry="8.0" fill="#d62728" stroke="black" id="2"/>
  <ellipse cx="101.58868719092703" cy="0.0" rx="8.0" ry="8.0" fill="#FFFFFF" stroke="black" id="3"/>
  <ellipse cx="0.0" cy="258.9176070110582" rx="8.0" ry="8.0" fill="#FFFFFF" stroke="black" id="4"/>
  <ellipse cx="216.18695341993694" cy="263.28250891489193" rx="8.0" ry="8.0" fill="#FFFFFF" stroke="black" id="5"/>
  <ellipse cx="576.0000000000001" cy="335.94937906163" rx="8.0" ry="8.0" fill="#FFFFFF" stroke="black" id="6"/>
  <ellipse cx="194.46932063704946" cy="490.4961370298731" rx="8.0" ry="8.0" fill="#FFFFFF" stroke="black" id="7"/>
  <ellipse cx="433.0393781476222" cy="59.83308287945038" rx="8.0" ry="8.0" fill="#FFFFFF" stroke="black" id="8"/>
  <ellipse cx="374.84207752059257" cy="472.63881740381055" rx="8.0" ry="8.0" fill="#FFFFFF" stroke="black" id="9"/>
  <ellipse cx="415.3499803123609" cy="281.6951853760074" rx="8.0" ry="8.0" fill="#FFFFFF" stroke="black" id="10"/>
  <ellipse cx="356.7220498222804" cy="389.55621597431855" rx="8.0" ry="8.0" fill="#FFFFFF" stroke="black" id="11"/>
</svg>
