<?xml version="1.0" ?>
<svg xmlns="http://www.w3.org/2000/svg" version="1.1" width="600.0" height="600.0" viewBox="-12.0 -12.0 600.0 600.0">
  <path d="M325.119461,303.332908 L470.134891,222.600811" fill="none" stroke="black" id="0-2"/>
  <path d="M325.119461,303.332908 L281.129821,497.664681" fill="none" stroke="black" id="0-4"/>
  <path d="M325.119461,303.332908 L118.420160,163.592129" fill="none" stroke="#c43c24" id="0-5"/>
  <path d="M325.119461,303.332908 L576.000028,301.989646" fill="none" stroke="black" id="0-7"/>
  <path d="M325.119461,303.332908 L290.667613,43.459506" fill="none" stroke="#c43c24" id="0-10"/>
  <path d="M325.119461,303.332908 L531.889469,501.646192" fill="none" stroke="black" id="0-11"/>
  <path d="M460.916306,575.999910 L281.129821,497.664681" fill="none" stroke="black" id="1-4"/>
  <path d="M470.134891,222.600811 L281.129821,497.664681" fill="none" stroke="black" id="2-4"/>
  <path d="M470.134891,222.600811 L290.667613,43.459506" fill="none" stroke="black" id="2-10"/>
  <path d="M-0.000125,-0.000026 L10.775557,223.414307" fill="none" stroke="black" id="3-6"/>
  <path d="M-0.000125,-0.000026 L241.126430,182.577354" fill="none" stroke="#c43c24" id="3-8"/>
  <path d="M-0.000125,-0.000026 L290.667613,43.459506" fill="none" stroke="#c43c24" id="3-10"/>
  <path d="M281.129821,497.664681 L576.000028,301.989646" fill="none" stroke="black" id="4-7"/>
  <path d="M281.129821,497.664681 L531.889469,501.646192" fill="none" stroke="black" id="4-11"/>
  <path d="M118.420160,163.592129 L42.883818,374.427564" fill="none" stroke="#c43c24" id="5-9"/>
  <path d="M576.000028,301.989646 L531.889469,501.646192" fill="none" stroke="black" id="7-11"/>
  <ellipse cx="325.11967828104" cy="303.33287539605726" rx="8.0" ry="8.0" fill="#FFFFFF" stroke="black" id="0"/>
  <ellipse cx="460.9162827376906" cy="576.0" rx="8.0" ry="8.0" fill="#FFFFFF" stroke="black" id="1"/>
  <ellipse cx="470.134672738302" cy="222.6007875676194" rx="8.0" ry="8.0" fill="#FFFFFF" stroke="black" id="2"/>
  <ellipse cx="0.0" cy="0.0" rx="8.0" ry="8.0" fill="#FFFFFF" stroke="black" id="3"/>
  <ellipse cx="281.12973832627415" cy="497.6645294208263" rx="8.0" ry="8.0" fill="#FFFFFF" stroke="black" id="4"/>
  <ellipse cx="118.42008405991157" cy="163.59200903855833" rx="8.0" ry="8.0" fill="#FFFFFF" stroke="black" id="5"/>
  <ellipse cx="10.775568049655792" cy="223.4144647807661" rx="8.0" ry="8.0" fill="#FFFFFF" stroke="black" id="6"/>
  <ellipse cx="576.0" cy="301.9895719865252" rx="8.0" ry="8.0" fill="#FFFFFF" stroke="black" id="7"/>
  <ellipse cx="241.1264117005041" cy="182.57749328712123" rx="8.0" ry="8.0" fill="#d62728" stroke="black" id="8"/>
  <ellipse cx="42.883592020768475" cy="374.42750794806716" rx="8.0" ry="8.0" fill="#d62728" stroke="black" id="9"/>
  <ellipse cx="290.6676893841844" cy="43.4595828771828" rx="8.0" ry="8.0" fill="#FFFFFF" stroke="black" id="10"/>
  <ellipse cx="531.8896995034122" cy="501.6462772061995" rx="8.0" ry="8.0" fill="#FFFFFF" stroke="black" id="11"/>
</svg>
