<?xml version="1.0" ?>
<svg xmlns="http://www.w3.org/2000/svg" version="1.1" width="600.0" height="600.0000000000001" viewBox="-12.0 -12.0 600.0 600.0000000000001">
  <path d="M198.640213,248.330240 L134.952547,368.451200" fill="none" stroke="black" id="0-8"/>
  <path d="M217.270633,411.200000 L0.000000,457.032960" fill="none" stroke="black" id="1-4"/>
  <path d="M217.270633,411.200000 L246.815245,70.854400" fill="none" stroke="black" id="1-5"/>
  <path d="M217.270633,411.200000 L47.631262,576.000000" fill="none" stroke="black" id="1-10"/>
  <path d="M276.711593,533.086080 L442.252970,405.297920" fill="none" stroke="black" id="2-6"/>
  <path d="M276.711593,533.086080 L312.246724,78.401920" fill="none" stroke="black" id="2-11"/>
  <path d="M0.032329,358.533760 L0.000000,457.032960" fill="none" stroke="black" id="3-4"/>
  <path d="M0.032329,358.533760 L127.708318,29.290240" fill="none" stroke="black" id="3-7"/>
  <path d="M0.000000,457.032960 L134.952547,368.451200" fill="none" stroke="black" id="4-8"/>
  <path d="M246.815245,70.854400 L442.252970,405.297920" fill="none" stroke="black" id="5-6"/>
  <path d="M246.815245,70.854400 L127.708318,29.290240" fill="none" stroke="black" id="5-7"/>
  <path d="M246.815245,70.854400 L412.301663,0.000000" fill="none" stroke="black" id="5-12"/>
  <path d="M442.252970,405.297920 L134.952547,368.451200" fill="none" stroke="black" id="6-8"/>
  <path d="M442.252970,405.297920 L47.631262,576.000000" fill="none" stroke="black" id="6-10"/>
  <path d="M576.000301,136.195200 L312.246724,78.401920" fill="none" stroke="black" id="9-11"/>
  <path d="M576.000301,136.195200 L412.301663,0.000000" fill="none" stroke="black" id="9-12"/>
  <ellipse cx="198.64022035258208" cy="248.33003047644826" rx="8.0" ry="8.0" fill="#FFFFFF" stroke="black" id="0"/>
  <ellipse cx="217.2705840063744" cy="411.20002489526007" rx="8.0" ry="8.0" fill="#FFFFFF" stroke="black" id="1"/>
  <ellipse cx="276.7114347947009" cy="533.0858179812692" rx="8.0" ry="8.0" fill="#FFFFFF" stroke="black" id="2"/>
  <ellipse cx="0.03229552439572814" cy="358.5335307500938" rx="8.0" ry="8.0" fill="#FFFFFF" stroke="black" id="3"/>
  <ellipse cx="0.0" cy="457.0329169354708" rx="8.0" ry="8.0" fill="#FFFFFF" stroke="black" id="4"/>
  <ellipse cx="246.815169515179" cy="70.8542007649792" rx="8.0" ry="8.0" fill="#FFFFFF" stroke="black" id="5"/>
  <ellipse cx="442.25310070402423" cy="405.2978762044582" rx="8.0" ry="8.0" fill="#FFFFFF" stroke="black" id="6"/>
  <ellipse cx="127.70838522186713" cy="29.29014296193575" rx="8.0" ry="8.0" fill="#FFFFFF" stroke="black" id="7"/>
  <ellipse cx="134.9524001484806" cy="368.4510794875571" rx="8.0" ry="8.0" fill="#d62728" stroke="black" id="8"/>
  <ellipse cx="576.0" cy="136.19535810319667" rx="8.0" ry="8.0" fill="#d62728" stroke="black" id="9"/>
  <ellipse cx="47.631169103007146" cy="576.0000000000001" rx="8.0" ry="8.0" fill="#FFFFFF" stroke="black" id="10"/>
  <ellipse cx="312.2465313388268" cy="78.40199906198788" rx="8.0" ry="8.0" fill="#FFFFFF" stroke="black" id="11"/>
  <ellipse cx="412.3016732650682" cy="0.0" rx="8.0" ry="8.0" fill="#FFFFFF" stroke="black" id="12"/>
</svg>
