<?xml version="1.0" ?>
<svg xmlns="http://www.w3.org/2000/svg" version="1.1" width="600.0000000000001" height="600.0000000000001" viewBox="-12.0 -12.0 600.0000000000001 600.0000000000001">
  <path d="M345.856640,292.474240 L386.888960,398.469120" fill="none" stroke="black" id="0-7"/>
  <path d="M345.856640,292.474240 L576.000000,576.000000" fill="none" stroke="black" id="0-8"/>
  <path d="M442.135680,0.000000 L457.042560,170.988160" fill="none" stroke="black" id="1-2"/>
  <path d="M442.135680,0.000000 L145.996800,467.269120" fill="none" stroke="black" id="1-3"/>
  <path d="M442.135680,0.000000 L576.000000,136.486400" fill="none" stroke="black" id="1-6"/>
  <path d="M442.135680,0.000000 L159.306240,0.000000" fill="none" stroke="black" id="1-12"/>
  <path d="M457.042560,170.988160 L238.457600,32.640000" fill="none" stroke="black" id="2-4"/>
  <path d="M457.042560,170.988160 L576.000000,576.000000" fill="none" stroke="black" id="2-8"/>
  <path d="M145.996800,467.269120 L576.000000,576.000000" fill="none" stroke="black" id="3-8"/>
  <path d="M145.996800,467.269120 L0.000000,397.157120" fill="none" stroke="black" id="3-9"/>
  <path d="M238.457600,32.640000 L183.080960,194.532480" fill="none" stroke="black" id="4-5"/>
  <path d="M183.080960,194.532480 L0.000000,397.157120" fill="none" stroke="black" id="5-9"/>
  <path d="M576.000000,136.486400 L576.000000,576.000000" fill="none" stroke="black" id="6-8"/>
  <path d="M386.888960,398.469120 L576.000000,576.000000" fill="none" stroke="black" id="7-8"/>
  <path d="M386.888960,398.469120 L0.000000,397.157120" fill="none" stroke="black" id="7-9"/>
  <path d="M576.000000,576.000000 L370.791680,484.590080" fill="none" stroke="black" id="8-11"/>
  <path d="M0.000000,397.157120 L0.000000,95.239680" fill="none" stroke="black" id="9-10"/>
  <path d="M0.000000,95.239680 L159.306240,0.000000" fill="none" stroke="black" id="10-12"/>
  <ellipse cx="345.85669839309094" cy="292.4742038303093" rx="8.0" ry="8.0" fill="#FFFFFF" stroke="black" id="0"/>
  <ellipse cx="442.13552891476826" cy="0.0" rx="8.0" ry="8.0" fill="#FFFFFF" stroke="black" id="1"/>
  <ellipse cx="457.0424503668258" cy="170.98828544901252" rx="8.0" ry="8.0" fill="#FFFFFF" stroke="black" id="2"/>
  <ellipse cx="145.9967654258025" cy="467.26886040969686" rx="8.0" ry="8.0" fill="#FFFFFF" stroke="black" id="3"/>
  <ellipse cx="238.45765444793648" cy="32.64000000000001" rx="8.0" ry="8.0" fill="#FFFFFF" stroke="black" id="4"/>
  <ellipse cx="183.08099984805912" cy="194.5326832027446" rx="8.0" ry="8.0" fill="#d62728" stroke="black" id="5"/>
  <ellipse cx="576.0000000000001" cy="136.48660898889338" rx="8.0" ry="8.0" fill="#d62728" stroke="black" id="6"/>
  <ellipse cx="386.88892608880303" cy="398.4692395881247" rx="8.0" ry="8.0" fill="#FFFFFF" stroke="black" id="7"/>
  <ellipse cx="576.0000000000001" cy="576.0000000000001" rx="8.0" ry="8.0" fill="#FFFFFF" stroke="black" id="8"/>
  <ellipse cx="0.0" cy="397.1569746115268" rx="8.0" ry="8.0" fill="#FFFFFF" stroke="black" id="9"/>
  <ellipse cx="0.0" cy="95.23966760516251" rx="8.0" ry="8.0" fill="#FFFFFF" stroke="black" id="10"/>
  <ellipse cx="370.79158655523975" cy="484.5901636674721" rx="8.0" ry="8.0" fill="#FFFFFF" stroke="black" id="11"/>
  <ellipse cx="159.30637662828227" cy="0.0" rx="8.0" ry="8.0" fill="#FFFFFF" stroke="black" id="12"/>
</svg>
