<?xml version="1.0" ?>
<svg xmlns="http://www.w3.org/2000/svg" version="1.1" width="600.0000000000001" height="599.9999999999999" viewBox="-12.0 -12.0 600.0000000000001 599.9999999999999">
  <path d="M407.591040,483.023855 L131.256320,541.734800" fill="none" stroke="black" id="0-7"/>
  <path d="M407.591040,483.023855 L508.725760,576.000000" fill="none" stroke="black" id="0-8"/>
  <path d="M400.311680,-0.000317 L449.420160,38.177853" fill="none" stroke="black" id="1-2"/>
  <path d="M400.311680,-0.000317 L284.995200,47.911458" fill="none" stroke="black" id="1-3"/>
  <path d="M400.311680,-0.000317 L576.000000,16.513324" fill="none" stroke="black" id="1-6"/>
  <path d="M400.311680,-0.000317 L85.066240,38.948520" fill="none" stroke="black" id="1-12"/>
  <path d="M449.420160,38.177853 L571.781120,463.890862" fill="none" stroke="black" id="2-4"/>
  <path d="M449.420160,38.177853 L508.725760,576.000000" fill="none" stroke="black" id="2-8"/>
  <path d="M284.995200,47.911458 L508.725760,576.000000" fill="none" stroke="black" id="3-8"/>
  <path d="M284.995200,47.911458 L126.532480,387.620370" fill="none" stroke="black" id="3-9"/>
  <path d="M571.781120,463.890862 L336.266240,423.755879" fill="none" stroke="black" id="4-5"/>
  <path d="M336.266240,423.755879 L126.532480,387.620370" fill="none" stroke="black" id="5-9"/>
  <path d="M576.000000,16.513324 L508.725760,576.000000" fill="none" stroke="black" id="6-8"/>
  <path d="M131.256320,541.734800 L508.725760,576.000000" fill="none" stroke="black" id="7-8"/>
  <path d="M131.256320,541.734800 L126.532480,387.620370" fill="none" stroke="black" id="7-9"/>
  <path d="M508.725760,576.000000 L397.512960,67.551020" fill="none" stroke="black" id="8-11"/>
  <path d="M126.532480,387.620370 L0.000000,136.829805" fill="none" stroke="black" id="9-10"/>
  <path d="M0.000000,136.829805 L85.066240,38.948520" fill="none" stroke="black" id="10-12"/>
  <ellipse cx="407.5910327433046" cy="483.02355472266794" rx="8.0" ry="8.0" fill="#FFFFFF" stroke="black" id="0"/>
  <ellipse cx="400.31160951901245" cy="0.0" rx="8.0" ry="8.0" fill="#FFFFFF" stroke="black" id="1"/>
  <ellipse cx="449.41985998955215" cy="38.178059055188584" rx="8.0" ry="8.0" fill="#FFFFFF" stroke="black" id="2"/>
  <ellipse cx="284.99528859453227" cy="47.91147934520082" rx="8.0" ry="8.0" fill="#FFFFFF" stroke="black" id="3"/>
  <ellipse cx="571.7810933739977" cy="463.8909529586469" rx="8.0" ry="8.0" fill="#FFFFFF" stroke="black" id="4"/>
  <ellipse cx="336.2660556297591" cy="423.7556686195319" rx="8.0" ry="8.0" fill="#d62728" stroke="black" id="5"/>
  <ellipse cx="576.0000000000001" cy="16.513217340036583" rx="8.0" ry="8.0" fill="#d62728" stroke="black" id="6"/>
  <ellipse cx="131.25621267409423" cy="541.7347846690628" rx="8.0" ry="8.0" fill="#FFFFFF" stroke="black" id="7"/>
  <ellipse cx="508.7259176636079" cy="575.9999999999999" rx="8.0" ry="8.0" fill="#FFFFFF" stroke="black" id="8"/>
  <ellipse cx="126.53227800101405" cy="387.6203244951956" rx="8.0" ry="8.0" fill="#FFFFFF" stroke="black" id="9"/>
  <ellipse cx="0.0" cy="136.8295230689469" rx="8.0" ry="8.0" fill="#FFFFFF" stroke="black" id="10"/>
  <ellipse cx="397.51317481060096" cy="67.55133482525427" rx="8.0" ry="8.0" fill="#FFFFFF" stroke="black" id="11"/>
  <ellipse cx="85.066544674489" cy="38.948382817162724" rx="8.0" ry="8.0" fill="#FFFFFF" stroke="black" id="12"/>
</svg>
