<?xml version="1.0" ?>
<svg xmlns="http://www.w3.org/2000/svg" version="1.1" width="600.0" height="600.0" viewBox="-12.0 -12.0 600.0 600.0">
  <path d="M328.397253,576.000000 L-0.000147,539.862438" fill="none" stroke="black" id="0-3"/>
  <path d="M328.397253,576.000000 L220.590159,498.089031" fill="none" stroke="black" id="0-8"/>
  <path d="M328.397253,576.000000 L271.598596,189.504335" fill="none" stroke="black" id="0-11"/>
  <path d="M576.000000,324.329590 L385.226413,42.263602" fill="none" stroke="black" id="1-2"/>
  <path d="M576.000000,324.329590 L46.090466,390.676986" fill="none" stroke="#c43c24" id="1-9"/>
  <path d="M576.000000,324.329590 L183.115735,97.629794" fill="none" stroke="#c43c24" id="1-12"/>
  <path d="M385.226413,42.263602 L244.757651,0.000000" fill="none" stroke="black" id="2-10"/>
  <path d="M-0.000147,539.862438 L220.590159,498.089031" fill="none" stroke="black" id="3-8"/>
  <path d="M-0.000147,539.862438 L46.090466,390.676986" fill="none" stroke="black" id="3-9"/>
  <path d="M188.983230,210.954205 L223.441208,296.374513" fill="none" stroke="black" id="4-5"/>
  <path d="M188.983230,210.954205 L121.082697,121.885365" fill="none" stroke="black" id="4-6"/>
  <path d="M188.983230,210.954205 L46.090466,390.676986" fill="none" stroke="black" id="4-9"/>
  <path d="M188.983230,210.954205 L244.757651,0.000000" fill="none" stroke="black" id="4-10"/>
  <path d="M188.983230,210.954205 L271.598596,189.504335" fill="none" stroke="black" id="4-11"/>
  <path d="M353.197182,236.588188 L220.590159,498.089031" fill="none" stroke="#c43c24" id="7-8"/>
  <path d="M353.197182,236.588188 L271.598596,189.504335" fill="none" stroke="black" id="7-11"/>
  <path d="M220.590159,498.089031 L46.090466,390.676986" fill="none" stroke="#c43c24" id="8-9"/>
  <ellipse cx="328.39735943656785" cy="576.0" rx="8.0" ry="8.0" fill="#FFFFFF" stroke="black" id="0"/>
  <ellipse cx="576.0" cy="324.329904132172" rx="8.0" ry="8.0" fill="#FFFFFF" stroke="black" id="1"/>
  <ellipse cx="385.2263995943508" cy="42.2637217297526" rx="8.0" ry="8.0" fill="#FFFFFF" stroke="black" id="2"/>
  <ellipse cx="0.0" cy="539.8624113196154" rx="8.0" ry="8.0" fill="#FFFFFF" stroke="black" id="3"/>
  <ellipse cx="188.98353781390173" cy="210.95388214359946" rx="8.0" ry="8.0" fill="#FFFFFF" stroke="black" id="4"/>
  <ellipse cx="223.44114869698294" cy="296.3746231572488" rx="8.0" ry="8.0" fill="#FFFFFF" stroke="black" id="5"/>
  <ellipse cx="121.08244349731115" cy="121.88508531336211" rx="8.0" ry="8.0" fill="#FFFFFF" stroke="black" id="6"/>
  <ellipse cx="353.1970628645762" cy="236.58798215945382" rx="8.0" ry="8.0" fill="#d62728" stroke="black" id="7"/>
  <ellipse cx="220.59017602819276" cy="498.08868416721293" rx="8.0" ry="8.0" fill="#FFFFFF" stroke="black" id="8"/>
  <ellipse cx="46.09023426840797" cy="390.6766467943946" rx="8.0" ry="8.0" fill="#FFFFFF" stroke="black" id="9"/>
  <ellipse cx="244.75753878351068" cy="0.0" rx="8.0" ry="8.0" fill="#FFFFFF" stroke="black" id="10"/>
  <ellipse cx="271.5983926341547" cy="189.50437412942227" rx="8.0" ry="8.0" fill="#FFFFFF" stroke="black" id="11"/>
  <ellipse cx="183.11545436543378" cy="97.62986238543286" rx="8.0" ry="8.0" fill="#d62728" stroke="black" id="12"/>
</svg>
