<?xml version="1.0" ?>
<svg xmlns="http://www.w3.org/2000/svg" version="1.1" width="600.0000000000001" height="600.0" viewBox="-12.0 -12.0 600.0000000000001 600.0">
  <path d="M535.893389,71.908693 L305.888116,179.714320" fill="none" stroke="black" id="0-6"/>
  <path d="M535.893389,71.908693 L141.724722,8.317350" fill="none" stroke="black" id="0-12"/>
  <path d="M576.000000,441.560066 L357.616978,361.918643" fill="none" stroke="black" id="1-3"/>
  <path d="M576.000000,441.560066 L305.888116,179.714320" fill="none" stroke="black" id="1-6"/>
  <path d="M576.000000,441.560066 L576.000000,-0.000098" fill="none" stroke="black" id="1-7"/>
  <path d="M576.000000,441.560066 L576.000000,554.181357" fill="none" stroke="black" id="1-9"/>
  <path d="M15.781527,417.773801 L357.616978,361.918643" fill="none" stroke="black" id="2-3"/>
  <path d="M15.781527,417.773801 L132.126818,545.137687" fill="none" stroke="black" id="2-10"/>
  <path d="M357.616978,361.918643 L305.888116,179.714320" fill="none" stroke="black" id="3-6"/>
  <path d="M357.616978,361.918643 L-0.000240,81.482462" fill="none" stroke="black" id="3-8"/>
  <path d="M357.616978,361.918643 L384.368007,308.407009" fill="none" stroke="black" id="3-11"/>
  <path d="M253.420953,480.433562 L195.461187,576.000000" fill="none" stroke="black" id="4-13"/>
  <path d="M219.143407,122.451485 L305.888116,179.714320" fill="none" stroke="black" id="5-6"/>
  <path d="M305.888116,179.714320 L576.000000,-0.000098" fill="none" stroke="black" id="6-7"/>
  <path d="M-0.000240,81.482462 L132.126818,545.137687" fill="none" stroke="black" id="8-10"/>
  <path d="M-0.000240,81.482462 L141.724722,8.317350" fill="none" stroke="black" id="8-12"/>
  <path d="M576.000000,554.181357 L195.461187,576.000000" fill="none" stroke="black" id="9-13"/>
  <path d="M132.126818,545.137687 L195.461187,576.000000" fill="none" stroke="black" id="10-13"/>
  <ellipse cx="535.8932888587983" cy="71.90875872714685" rx="8.0" ry="8.0" fill="#d62728" stroke="black" id="0"/>
  <ellipse cx="576.0000000000001" cy="441.55991610020857" rx="8.0" ry="8.0" fill="#FFFFFF" stroke="black" id="1"/>
  <ellipse cx="15.781626364118864" cy="417.77393441541227" rx="8.0" ry="8.0" fill="#FFFFFF" stroke="black" id="2"/>
  <ellipse cx="357.616979546886" cy="361.9189455445301" rx="8.0" ry="8.0" fill="#FFFFFF" stroke="black" id="3"/>
  <ellipse cx="253.42070043425005" cy="480.43349561869735" rx="8.0" ry="8.0" fill="#d62728" stroke="black" id="4"/>
  <ellipse cx="219.14319369311906" cy="122.45151647155964" rx="8.0" ry="8.0" fill="#FFFFFF" stroke="black" id="5"/>
  <ellipse cx="305.88787453538487" cy="179.71405918161219" rx="8.0" ry="8.0" fill="#FFFFFF" stroke="black" id="6"/>
  <ellipse cx="576.0000000000001" cy="0.0" rx="8.0" ry="8.0" fill="#FFFFFF" stroke="black" id="7"/>
  <ellipse cx="0.0" cy="81.48239005943401" rx="8.0" ry="8.0" fill="#FFFFFF" stroke="black" id="8"/>
  <ellipse cx="576.0000000000001" cy="554.1810250895478" rx="8.0" ry="8.0" fill="#FFFFFF" stroke="black" id="9"/>
  <ellipse cx="132.12716594261005" cy="545.1377578337645" rx="8.0" ry="8.0" fill="#FFFFFF" stroke="black" id="10"/>
  <ellipse cx="384.3684013884018" cy="308.40692154067744" rx="8.0" ry="8.0" fill="#FFFFFF" stroke="black" id="11"/>
  <ellipse cx="141.72494458629077" cy="8.317566536338987" rx="8.0" ry="8.0" fill="#FFFFFF" stroke="black" id="12"/>
  <ellipse cx="195.4615452422232" cy="576.0" rx="8.0" ry="8.0" fill="#FFFFFF" stroke="black" id="13"/>
</svg>
