<?xml version="1.0" ?>
<svg xmlns="http://www.w3.org/2000/svg" version="1.1" width="600.0" height="600.0" viewBox="-12.0 -12.0 600.0 600.0">
  <path d="M360.446388,202.660104 L169.161007,162.808304" fill="none" stroke="black" id="0-8"/>
  <path d="M5.997406,575.999771 L350.865038,559.059997" fill="none" stroke="black" id="1-10"/>
  <path d="M5.997406,575.999771 L42.561816,246.754715" fill="none" stroke="black" id="1-11"/>
  <path d="M137.279152,318.006512 L533.856167,427.683626" fill="none" stroke="black" id="2-4"/>
  <path d="M137.279152,318.006512 L509.430051,259.822743" fill="none" stroke="black" id="2-7"/>
  <path d="M137.279152,318.006512 L169.161007,162.808304" fill="none" stroke="black" id="2-8"/>
  <path d="M137.279152,318.006512 L0.000149,94.254941" fill="none" stroke="black" id="2-12"/>
  <path d="M192.909642,413.283995 L86.298435,373.749244" fill="none" stroke="black" id="3-13"/>
  <path d="M575.999728,314.472949 L548.580159,369.760071" fill="none" stroke="black" id="5-6"/>
  <path d="M575.999728,314.472949 L509.430051,259.822743" fill="none" stroke="black" id="5-7"/>
  <path d="M509.430051,259.822743 L497.517776,-0.000003" fill="none" stroke="black" id="7-9"/>
  <path d="M169.161007,162.808304 L350.865038,559.059997" fill="none" stroke="black" id="8-10"/>
  <path d="M169.161007,162.808304 L0.000149,94.254941" fill="none" stroke="black" id="8-12"/>
  <path d="M497.517776,-0.000003 L350.865038,559.059997" fill="none" stroke="black" id="9-10"/>
  <path d="M497.517776,-0.000003 L0.000149,94.254941" fill="none" stroke="black" id="9-12"/>
  <path d="M350.865038,559.059997 L86.298435,373.749244" fill="none" stroke="black" id="10-13"/>
  <path d="M42.561816,246.754715 L86.298435,373.749244" fill="none" stroke="black" id="11-13"/>
  <ellipse cx="360.4466304986728" cy="202.66025554182693" rx="8.0" ry="8.0" fill="#FFFFFF" stroke="black" id="0"/>
  <ellipse cx="5.997645658494591" cy="576.0" rx="8.0" ry="8.0" fill="#FFFFFF" stroke="black" id="1"/>
  <ellipse cx="137.27901310226127" cy="318.00660147547524" rx="8.0" ry="8.0" fill="#FFFFFF" stroke="black" id="2"/>
  <ellipse cx="192.9094506512926" cy="413.28422435162344" rx="8.0" ry="8.0" fill="#d62728" stroke="black" id="3"/>
  <ellipse cx="533.8564185345402" cy="427.6834313873674" rx="8.0" ry="8.0" fill="#d62728" stroke="black" id="4"/>
  <ellipse cx="576.0" cy="314.47276128593546" rx="8.0" ry="8.0" fill="#FFFFFF" stroke="black" id="5"/>
  <ellipse cx="548.580048050371" cy="369.7602239807832" rx="8.0" ry="8.0" fill="#FFFFFF" stroke="black" id="6"/>
  <ellipse cx="509.4301719983886" cy="259.8229768812207" rx="8.0" ry="8.0" fill="#FFFFFF" stroke="black" id="7"/>
  <ellipse cx="169.16093648771331" cy="162.80841776669058" rx="8.0" ry="8.0" fill="#FFFFFF" stroke="black" id="8"/>
  <ellipse cx="497.5179269344752" cy="0.0" rx="8.0" ry="8.0" fill="#FFFFFF" stroke="black" id="9"/>
  <ellipse cx="350.8649902169443" cy="559.0598418922358" rx="8.0" ry="8.0" fill="#FFFFFF" stroke="black" id="10"/>
  <ellipse cx="42.56155394066198" cy="246.7549163338267" rx="8.0" ry="8.0" fill="#FFFFFF" stroke="black" id="11"/>
  <ellipse cx="0.0" cy="94.25496660574058" rx="8.0" ry="8.0" fill="#FFFFFF" stroke="black" id="12"/>
  <ellipse cx="86.29857740195297" cy="373.7492170102266" rx="8.0" ry="8.0" fill="#FFFFFF" stroke="black" id="13"/>
</svg>
