<?xml version="1.0" ?>
<svg xmlns="http://www.w3.org/2000/svg" version="1.1" width="600.0" height="600.0000000000001" viewBox="-12.0 -12.0 600.0 600.0000000000001">
  <path d="M22.047374,267.733030 L0.000053,432.614577" fill="none" stroke="black" id="0-9"/>
  <path d="M22.047374,267.733030 L175.761967,-0.000108" fill="none" stroke="black" id="0-12"/>
  <path d="M185.597182,205.028193 L575.999840,185.836339" fill="none" stroke="black" id="1-2"/>
  <path d="M185.597182,205.028193 L170.025218,393.099103" fill="none" stroke="black" id="1-3"/>
  <path d="M185.597182,205.028193 L0.000053,432.614577" fill="none" stroke="black" id="1-9"/>
  <path d="M575.999840,185.836339 L434.848480,362.458806" fill="none" stroke="black" id="2-6"/>
  <path d="M575.999840,185.836339 L439.770689,292.491058" fill="none" stroke="black" id="2-7"/>
  <path d="M575.999840,185.836339 L494.320426,335.504465" fill="none" stroke="black" id="2-8"/>
  <path d="M170.025218,393.099103 L351.003404,544.983980" fill="none" stroke="black" id="3-4"/>
  <path d="M170.025218,393.099103 L0.000053,432.614577" fill="none" stroke="black" id="3-9"/>
  <path d="M351.003404,544.983980 L331.830899,397.172910" fill="none" stroke="black" id="4-5"/>
  <path d="M351.003404,544.983980 L494.320426,335.504465" fill="none" stroke="black" id="4-8"/>
  <path d="M331.830899,397.172910 L434.848480,362.458806" fill="none" stroke="black" id="5-6"/>
  <path d="M331.830899,397.172910 L241.691782,243.826550" fill="none" stroke="black" id="5-10"/>
  <path d="M434.848480,362.458806 L439.770689,292.491058" fill="none" stroke="black" id="6-7"/>
  <path d="M434.848480,362.458806 L344.196249,226.100721" fill="none" stroke="black" id="6-11"/>
  <path d="M0.000053,432.614577 L199.568601,575.999866" fill="none" stroke="black" id="9-13"/>
  <path d="M241.691782,243.826550 L175.761967,-0.000108" fill="none" stroke="black" id="10-12"/>
  <path d="M344.196249,226.100721 L175.761967,-0.000108" fill="none" stroke="black" id="11-12"/>
  <ellipse cx="22.04735754053055" cy="267.73286720385363" rx="8.0" ry="8.0" fill="#FFFFFF" stroke="black" id="0"/>
  <ellipse cx="185.5971779572428" cy="205.02819587724719" rx="8.0" ry="8.0" fill="#d62728" stroke="black" id="1"/>
  <ellipse cx="576.0" cy="185.8363061116089" rx="8.0" ry="8.0" fill="#FFFFFF" stroke="black" id="2"/>
  <ellipse cx="170.02523843719678" cy="393.0992199043835" rx="8.0" ry="8.0" fill="#FFFFFF" stroke="black" id="3"/>
  <ellipse cx="351.0034410852163" cy="544.9840673285629" rx="8.0" ry="8.0" fill="#FFFFFF" stroke="black" id="4"/>
  <ellipse cx="331.8307040475436" cy="397.1728084821309" rx="8.0" ry="8.0" fill="#FFFFFF" stroke="black" id="5"/>
  <ellipse cx="434.8483597611399" cy="362.4588971365656" rx="8.0" ry="8.0" fill="#FFFFFF" stroke="black" id="6"/>
  <ellipse cx="439.7705621794181" cy="292.49084381287634" rx="8.0" ry="8.0" fill="#FFFFFF" stroke="black" id="7"/>
  <ellipse cx="494.32032038833097" cy="335.5044383872992" rx="8.0" ry="8.0" fill="#FFFFFF" stroke="black" id="8"/>
  <ellipse cx="0.0" cy="432.6147214426071" rx="8.0" ry="8.0" fill="#FFFFFF" stroke="black" id="9"/>
  <ellipse cx="241.69159150678178" cy="243.8266115477873" rx="8.0" ry="8.0" fill="#FFFFFF" stroke="black" id="10"/>
  <ellipse cx="344.19610888295244" cy="226.100752961171" rx="8.0" ry="8.0" fill="#d62728" stroke="black" id="11"/>
  <ellipse cx="175.76183236074257" cy="0.0" rx="8.0" ry="8.0" fill="#FFFFFF" stroke="black" id="12"/>
  <ellipse cx="199.5686564016543" cy="576.0000000000001" rx="8.0" ry="8.0" fill="#FFFFFF" stroke="black" id="13"/>
</svg>
