<?xml version="1.0" ?>
<svg xmlns="http://www.w3.org/2000/svg" version="1.1" width="600.0" height="600.0" viewBox="-12.0 -12.0 600.0 600.0">
  <path d="M53.602651,279.734256 L285.910637,-0.000144" fill="none" stroke="black" id="0-2"/>
  <path d="M53.602651,279.734256 L420.379382,33.834797" fill="none" stroke="#c43c24" id="0-3"/>
  <path d="M53.602651,279.734256 L199.850733,267.400271" fill="none" stroke="#c43c24" id="0-4"/>
  <path d="M53.602651,279.734256 L90.464856,183.971781" fill="none" stroke="black" id="0-6"/>
  <path d="M53.602651,279.734256 L420.121665,356.186554" fill="none" stroke="black" id="0-9"/>
  <path d="M297.322306,374.761028 L420.379382,33.834797" fill="none" stroke="black" id="1-3"/>
  <path d="M297.322306,374.761028 L420.121665,356.186554" fill="none" stroke="black" id="1-9"/>
  <path d="M297.322306,374.761028 L335.215960,452.848058" fill="none" stroke="black" id="1-14"/>
  <path d="M285.910637,-0.000144 L283.067027,56.531735" fill="none" stroke="black" id="2-10"/>
  <path d="M420.379382,33.834797 L90.464856,183.971781" fill="none" stroke="black" id="3-6"/>
  <path d="M199.850733,267.400271 L310.971398,224.736887" fill="none" stroke="black" id="4-7"/>
  <path d="M199.850733,267.400271 L235.808894,576.000088" fill="none" stroke="#c43c24" id="4-12"/>
  <path d="M199.850733,267.400271 L355.066540,304.503191" fill="none" stroke="black" id="4-13"/>
  <path d="M-0.000082,294.827687 L235.808894,576.000088" fill="none" stroke="black" id="5-12"/>
  <path d="M-0.000082,294.827687 L335.215960,452.848058" fill="none" stroke="black" id="5-14"/>
  <path d="M310.971398,224.736887 L495.712921,370.819706" fill="none" stroke="black" id="7-8"/>
  <path d="M495.712921,370.819706 L235.808894,576.000088" fill="none" stroke="black" id="8-12"/>
  <path d="M420.121665,356.186554 L355.066540,304.503191" fill="none" stroke="black" id="9-13"/>
  <path d="M576.000088,441.790975 L235.808894,576.000088" fill="none" stroke="#c43c24" id="11-12"/>
  <path d="M235.808894,576.000088 L335.215960,452.848058" fill="none" stroke="black" id="12-14"/>
  <ellipse cx="53.60280848267854" cy="279.7338979720138" rx="8.0" ry="8.0" fill="#FFFFFF" stroke="black" id="0"/>
  <ellipse cx="297.32258118366565" cy="374.760868423028" rx="8.0" ry="8.0" fill="#FFFFFF" stroke="black" id="1"/>
  <ellipse cx="285.91054844060386" cy="0.0" rx="8.0" ry="8.0" fill="#FFFFFF" stroke="black" id="2"/>
  <ellipse cx="420.3792856543619" cy="33.83481910058927" rx="8.0" ry="8.0" fill="#d62728" stroke="black" id="3"/>
  <ellipse cx="199.85081781834725" cy="267.40000494274705" rx="8.0" ry="8.0" fill="#FFFFFF" stroke="black" id="4"/>
  <ellipse cx="0.0" cy="294.82796036904676" rx="8.0" ry="8.0" fill="#FFFFFF" stroke="black" id="5"/>
  <ellipse cx="90.46459870066548" cy="183.97208680501697" rx="8.0" ry="8.0" fill="#FFFFFF" stroke="black" id="6"/>
  <ellipse cx="310.97162625860284" cy="224.7370121414851" rx="8.0" ry="8.0" fill="#FFFFFF" stroke="black" id="7"/>
  <ellipse cx="495.71272426468335" cy="370.8197530012626" rx="8.0" ry="8.0" fill="#FFFFFF" stroke="black" id="8"/>
  <ellipse cx="420.1218812162877" cy="356.18636391025177" rx="8.0" ry="8.0" fill="#FFFFFF" stroke="black" id="9"/>
  <ellipse cx="283.0671899408404" cy="56.53160340052881" rx="8.0" ry="8.0" fill="#FFFFFF" stroke="black" id="10"/>
  <ellipse cx="576.0" cy="441.7909066373122" rx="8.0" ry="8.0" fill="#d62728" stroke="black" id="11"/>
  <ellipse cx="235.80891087249574" cy="576.0" rx="8.0" ry="8.0" fill="#FFFFFF" stroke="black" id="12"/>
  <ellipse cx="355.0663151323359" cy="304.5033822110048" rx="8.0" ry="8.0" fill="#FFFFFF" stroke="black" id="13"/>
  <ellipse cx="335.21618189115065" cy="452.84798873905515" rx="8.0" ry="8.0" fill="#FFFFFF" stroke="black" id="14"/>
</svg>
