<?xml version="1.0" ?>
<svg xmlns="http://www.w3.org/2000/svg" version="1.1" width="600.0" height="600.0" viewBox="-12.0 -12.0 600.0 600.0">
  <path d="M560.803395,348.289888 L355.191899,452.793316" fill="none" stroke="black" id="0-5"/>
  <path d="M560.803395,348.289888 L575.999986,146.440360" fill="none" stroke="black" id="0-9"/>
  <path d="M51.306742,575.999866 L314.792289,110.879617" fill="none" stroke="black" id="1-6"/>
  <path d="M51.306742,575.999866 L0.000120,409.518508" fill="none" stroke="black" id="1-11"/>
  <path d="M51.306742,575.999866 L120.157806,210.482287" fill="none" stroke="#c43c24" id="1-12"/>
  <path d="M517.979820,2.973432 L314.792289,110.879617" fill="none" stroke="black" id="2-6"/>
  <path d="M386.522333,317.516951 L355.191899,452.793316" fill="none" stroke="black" id="3-5"/>
  <path d="M386.522333,317.516951 L366.916714,175.628265" fill="none" stroke="#c43c24" id="3-7"/>
  <path d="M386.522333,317.516951 L276.239404,553.345894" fill="none" stroke="#c43c24" id="3-13"/>
  <path d="M401.381136,217.593942 L575.999986,146.440360" fill="none" stroke="black" id="4-9"/>
  <path d="M401.381136,217.593942 L120.157806,210.482287" fill="none" stroke="black" id="4-12"/>
  <path d="M355.191899,452.793316 L575.999986,146.440360" fill="none" stroke="black" id="5-9"/>
  <path d="M314.792289,110.879617 L120.157806,210.482287" fill="none" stroke="black" id="6-12"/>
  <path d="M366.916714,175.628265 L12.562740,0.000264" fill="none" stroke="#c43c24" id="7-10"/>
  <path d="M57.502493,389.427250 L0.000120,409.518508" fill="none" stroke="black" id="8-11"/>
  <path d="M57.502493,389.427250 L120.157806,210.482287" fill="none" stroke="black" id="8-12"/>
  <path d="M575.999986,146.440360 L12.562740,0.000264" fill="none" stroke="black" id="9-10"/>
  <path d="M12.562740,0.000264 L120.157806,210.482287" fill="none" stroke="#c43c24" id="10-12"/>
  <path d="M120.157806,210.482287 L147.413111,101.304621" fill="none" stroke="black" id="12-14"/>
  <ellipse cx="560.8035501751311" cy="348.2897351322596" rx="8.0" ry="8.0" fill="#FFFFFF" stroke="black" id="0"/>
  <ellipse cx="51.306575915560074" cy="576.0" rx="8.0" ry="8.0" fill="#d62728" stroke="black" id="1"/>
  <ellipse cx="517.9797864357187" cy="2.973211121355945" rx="8.0" ry="8.0" fill="#FFFFFF" stroke="black" id="2"/>
  <ellipse cx="386.5221456228093" cy="317.5166912252699" rx="8.0" ry="8.0" fill="#FFFFFF" stroke="black" id="3"/>
  <ellipse cx="401.3813865820687" cy="217.594111112468" rx="8.0" ry="8.0" fill="#FFFFFF" stroke="black" id="4"/>
  <ellipse cx="355.19162373535994" cy="452.79325400458424" rx="8.0" ry="8.0" fill="#FFFFFF" stroke="black" id="5"/>
  <ellipse cx="314.7924512543295" cy="110.87956229210357" rx="8.0" ry="8.0" fill="#FFFFFF" stroke="black" id="6"/>
  <ellipse cx="366.9165559881698" cy="175.62805272962856" rx="8.0" ry="8.0" fill="#FFFFFF" stroke="black" id="7"/>
  <ellipse cx="57.50271406544904" cy="389.42695902407627" rx="8.0" ry="8.0" fill="#FFFFFF" stroke="black" id="8"/>
  <ellipse cx="576.0" cy="146.440481074515" rx="8.0" ry="8.0" fill="#FFFFFF" stroke="black" id="9"/>
  <ellipse cx="12.56260195100435" cy="0.0" rx="8.0" ry="8.0" fill="#FFFFFF" stroke="black" id="10"/>
  <ellipse cx="0.0" cy="409.5183446225417" rx="8.0" ry="8.0" fill="#FFFFFF" stroke="black" id="11"/>
  <ellipse cx="120.15795881246319" cy="210.48220269690057" rx="8.0" ry="8.0" fill="#FFFFFF" stroke="black" id="12"/>
  <ellipse cx="276.2393025092292" cy="553.3461541350689" rx="8.0" ry="8.0" fill="#d62728" stroke="black" id="13"/>
  <ellipse cx="147.41313945718065" cy="101.30471035354245" rx="8.0" ry="8.0" fill="#FFFFFF" stroke="black" id="14"/>
</svg>
