<?xml version="1.0" ?>
<svg xmlns="http://www.w3.org/2000/svg" version="1.1" width="600.0" height="600.0" viewBox="-12.0 -12.0 600.0 600.0">
  <path d="M531.129570,518.905941 L470.557692,389.290182" fill="none" stroke="black" id="0-5"/>
  <path d="M531.129570,518.905941 L204.921059,575.999877" fill="none" stroke="black" id="0-9"/>
  <path d="M269.104925,178.853913 L513.240660,201.597377" fill="none" stroke="black" id="1-6"/>
  <path d="M269.104925,178.853913 L47.757369,37.669210" fill="none" stroke="black" id="1-11"/>
  <path d="M269.104925,178.853913 L154.201208,225.309513" fill="none" stroke="#c43c24" id="1-12"/>
  <path d="M149.979011,-0.000082 L513.240660,201.597377" fill="none" stroke="black" id="2-6"/>
  <path d="M576.000000,291.231103 L470.557692,389.290182" fill="none" stroke="black" id="3-5"/>
  <path d="M576.000000,291.231103 L189.946654,336.636652" fill="none" stroke="#c43c24" id="3-7"/>
  <path d="M576.000000,291.231103 L-0.000117,481.460440" fill="none" stroke="black" id="3-13"/>
  <path d="M20.940543,287.175279 L204.921059,575.999877" fill="none" stroke="black" id="4-9"/>
  <path d="M20.940543,287.175279 L154.201208,225.309513" fill="none" stroke="black" id="4-12"/>
  <path d="M470.557692,389.290182 L204.921059,575.999877" fill="none" stroke="black" id="5-9"/>
  <path d="M513.240660,201.597377 L154.201208,225.309513" fill="none" stroke="black" id="6-12"/>
  <path d="M189.946654,336.636652 L69.876922,166.883980" fill="none" stroke="#c43c24" id="7-10"/>
  <path d="M28.317950,217.640198 L47.757369,37.669210" fill="none" stroke="black" id="8-11"/>
  <path d="M28.317950,217.640198 L154.201208,225.309513" fill="none" stroke="black" id="8-12"/>
  <path d="M204.921059,575.999877 L69.876922,166.883980" fill="none" stroke="black" id="9-10"/>
  <path d="M69.876922,166.883980 L154.201208,225.309513" fill="none" stroke="#c43c24" id="10-12"/>
  <path d="M154.201208,225.309513 L77.157906,99.475254" fill="none" stroke="black" id="12-14"/>
  <ellipse cx="531.1297107298669" cy="518.9061462212526" rx="8.0" ry="8.0" fill="#FFFFFF" stroke="black" id="0"/>
  <ellipse cx="269.1046994416628" cy="178.85397830968304" rx="8.0" ry="8.0" fill="#d62728" stroke="black" id="1"/>
  <ellipse cx="149.9791384702366" cy="0.0" rx="8.0" ry="8.0" fill="#FFFFFF" stroke="black" id="2"/>
  <ellipse cx="576.0" cy="291.2309219535764" rx="8.0" ry="8.0" fill="#d62728" stroke="black" id="3"/>
  <ellipse cx="20.940591006725924" cy="287.17531626085696" rx="8.0" ry="8.0" fill="#FFFFFF" stroke="black" id="4"/>
  <ellipse cx="470.5575280418964" cy="389.28997782856237" rx="8.0" ry="8.0" fill="#FFFFFF" stroke="black" id="5"/>
  <ellipse cx="513.2409770182422" cy="201.59756946923807" rx="8.0" ry="8.0" fill="#FFFFFF" stroke="black" id="6"/>
  <ellipse cx="189.94656416068852" cy="336.6367819984572" rx="8.0" ry="8.0" fill="#FFFFFF" stroke="black" id="7"/>
  <ellipse cx="28.31826952292539" cy="217.63996411268528" rx="8.0" ry="8.0" fill="#FFFFFF" stroke="black" id="8"/>
  <ellipse cx="204.92103785906693" cy="576.0" rx="8.0" ry="8.0" fill="#FFFFFF" stroke="black" id="9"/>
  <ellipse cx="69.87679134100017" cy="166.88379186280395" rx="8.0" ry="8.0" fill="#FFFFFF" stroke="black" id="10"/>
  <ellipse cx="47.757252481317096" cy="37.669203129573006" rx="8.0" ry="8.0" fill="#FFFFFF" stroke="black" id="11"/>
  <ellipse cx="154.2012010061938" cy="225.30933818108167" rx="8.0" ry="8.0" fill="#FFFFFF" stroke="black" id="12"/>
  <ellipse cx="0.0" cy="481.460466697933" rx="8.0" ry="8.0" fill="#FFFFFF" stroke="black" id="13"/>
  <ellipse cx="77.15771155449539" cy="99.47528832716081" rx="8.0" ry="8.0" fill="#FFFFFF" stroke="black" id="14"/>
</svg>
