<?xml version="1.0" ?>
<svg xmlns="http://www.w3.org/2000/svg" version="1.1" width="600.0" height="600.0" viewBox="-12.0 -12.0 600.0 600.0">
  <path d="M299.209797,234.122518 L374.842779,283.565038" fill="none" stroke="black" id="0-2"/>
  <path d="M299.209797,234.122518 L256.978709,0.000000" fill="none" stroke="#c43c24" id="0-3"/>
  <path d="M299.209797,234.122518 L16.440510,213.911050" fill="none" stroke="#c43c24" id="0-4"/>
  <path d="M299.209797,234.122518 L178.884073,155.463730" fill="none" stroke="black" id="0-6"/>
  <path d="M299.209797,234.122518 L104.476743,250.499482" fill="none" stroke="black" id="0-9"/>
  <path d="M123.242057,154.489608 L256.978709,0.000000" fill="none" stroke="black" id="1-3"/>
  <path d="M123.242057,154.489608 L104.476743,250.499482" fill="none" stroke="black" id="1-9"/>
  <path d="M123.242057,154.489608 L576.000000,450.464607" fill="none" stroke="black" id="1-14"/>
  <path d="M374.842779,283.565038 L222.954552,576.000102" fill="none" stroke="black" id="2-10"/>
  <path d="M256.978709,0.000000 L178.884073,155.463730" fill="none" stroke="black" id="3-6"/>
  <path d="M16.440510,213.911050 L-0.000145,285.927270" fill="none" stroke="black" id="4-7"/>
  <path d="M16.440510,213.911050 L238.976307,469.076991" fill="none" stroke="#c43c24" id="4-12"/>
  <path d="M16.440510,213.911050 L186.483356,362.964795" fill="none" stroke="black" id="4-13"/>
  <path d="M298.202729,304.264420 L238.976307,469.076991" fill="none" stroke="black" id="5-12"/>
  <path d="M298.202729,304.264420 L576.000000,450.464607" fill="none" stroke="black" id="5-14"/>
  <path d="M-0.000145,285.927270 L69.238504,508.542864" fill="none" stroke="black" id="7-8"/>
  <path d="M69.238504,508.542864 L238.976307,469.076991" fill="none" stroke="black" id="8-12"/>
  <path d="M104.476743,250.499482 L186.483356,362.964795" fill="none" stroke="black" id="9-13"/>
  <path d="M127.779342,546.232799 L238.976307,469.076991" fill="none" stroke="#c43c24" id="11-12"/>
  <path d="M238.976307,469.076991 L576.000000,450.464607" fill="none" stroke="black" id="12-14"/>
  <ellipse cx="299.20956734070955" cy="234.12233713260332" rx="8.0" ry="8.0" fill="#FFFFFF" stroke="black" id="0"/>
  <ellipse cx="123.24185592242893" cy="154.48972124179204" rx="8.0" ry="8.0" fill="#FFFFFF" stroke="black" id="1"/>
  <ellipse cx="374.84284847117794" cy="283.56497359407666" rx="8.0" ry="8.0" fill="#FFFFFF" stroke="black" id="2"/>
  <ellipse cx="256.9789619589867" cy="0.0" rx="8.0" ry="8.0" fill="#d62728" stroke="black" id="3"/>
  <ellipse cx="16.440296075102566" cy="213.91086237414552" rx="8.0" ry="8.0" fill="#FFFFFF" stroke="black" id="4"/>
  <ellipse cx="298.2029719438999" cy="304.264664822377" rx="8.0" ry="8.0" fill="#FFFFFF" stroke="black" id="5"/>
  <ellipse cx="178.88392839539594" cy="155.4636205670061" rx="8.0" ry="8.0" fill="#FFFFFF" stroke="black" id="6"/>
  <ellipse cx="0.0" cy="285.9273737266505" rx="8.0" ry="8.0" fill="#FFFFFF" stroke="black" id="7"/>
  <ellipse cx="69.23867422229728" cy="508.5426037649836" rx="8.0" ry="8.0" fill="#FFFFFF" stroke="black" id="8"/>
  <ellipse cx="104.47652159453494" cy="250.49964754608362" rx="8.0" ry="8.0" fill="#FFFFFF" stroke="black" id="9"/>
  <ellipse cx="222.9546960977476" cy="576.0" rx="8.0" ry="8.0" fill="#FFFFFF" stroke="black" id="10"/>
  <ellipse cx="127.77905602290477" cy="546.2329980761502" rx="8.0" ry="8.0" fill="#d62728" stroke="black" id="11"/>
  <ellipse cx="238.97651559283318" cy="469.07691629707426" rx="8.0" ry="8.0" fill="#FFFFFF" stroke="black" id="12"/>
  <ellipse cx="186.4832990474699" cy="362.9645365642642" rx="8.0" ry="8.0" fill="#FFFFFF" stroke="black" id="13"/>
  <ellipse cx="576.0" cy="450.46466756183" rx="8.0" ry="8.0" fill="#FFFFFF" stroke="black" id="14"/>
</svg>
