<?xml version="1.0" ?>
<svg xmlns="http://www.w3.org/2000/svg" version="1.1" width="600.0" height="600.0" viewBox="-12.0 -12.0 600.0 600.0">
  <path d="M575.999690,441.877836 L446.026145,446.136959" fill="none" stroke="black" id="0-9"/>
  <path d="M163.370484,496.105641 L-0.000163,366.615472" fill="none" stroke="black" id="1-5"/>
  <path d="M163.370484,496.105641 L181.710956,354.576409" fill="none" stroke="black" id="1-10"/>
  <path d="M163.370484,496.105641 L257.258244,550.656182" fill="none" stroke="black" id="1-12"/>
  <path d="M435.811848,575.999708 L446.026145,446.136959" fill="none" stroke="black" id="2-9"/>
  <path d="M155.869867,185.861937 L-0.000163,366.615472" fill="none" stroke="black" id="3-5"/>
  <path d="M155.869867,185.861937 L307.697413,278.393187" fill="none" stroke="black" id="3-8"/>
  <path d="M155.869867,185.861937 L446.026145,446.136959" fill="none" stroke="black" id="3-9"/>
  <path d="M155.869867,185.861937 L181.710956,354.576409" fill="none" stroke="black" id="3-10"/>
  <path d="M537.495440,182.083803 L446.026145,446.136959" fill="none" stroke="black" id="4-9"/>
  <path d="M537.495440,182.083803 L416.297948,122.743306" fill="none" stroke="black" id="4-13"/>
  <path d="M-0.000163,366.615472 L181.710956,354.576409" fill="none" stroke="black" id="5-10"/>
  <path d="M-0.000163,366.615472 L15.864423,544.346001" fill="none" stroke="black" id="5-14"/>
  <path d="M305.389739,363.477203 L446.026145,446.136959" fill="none" stroke="black" id="6-9"/>
  <path d="M305.389739,363.477203 L257.258244,550.656182" fill="none" stroke="black" id="6-12"/>
  <path d="M305.389739,363.477203 L416.297948,122.743306" fill="none" stroke="black" id="6-13"/>
  <path d="M29.865846,144.440160 L187.909116,0.000071" fill="none" stroke="black" id="7-11"/>
  <path d="M29.865846,144.440160 L416.297948,122.743306" fill="none" stroke="black" id="7-13"/>
  <path d="M307.697413,278.393187 L446.026145,446.136959" fill="none" stroke="black" id="8-9"/>
  <path d="M446.026145,446.136959 L181.710956,354.576409" fill="none" stroke="black" id="9-10"/>
  <ellipse cx="576.0" cy="441.87766308447294" rx="8.0" ry="8.0" fill="#FFFFFF" stroke="black" id="0"/>
  <ellipse cx="163.37040726435694" cy="496.1056081098949" rx="8.0" ry="8.0" fill="#FFFFFF" stroke="black" id="1"/>
  <ellipse cx="435.81184449788395" cy="576.0" rx="8.0" ry="8.0" fill="#FFFFFF" stroke="black" id="2"/>
  <ellipse cx="155.87020053810326" cy="185.86189130932374" rx="8.0" ry="8.0" fill="#FFFFFF" stroke="black" id="3"/>
  <ellipse cx="537.4957382847998" cy="182.08380259591647" rx="8.0" ry="8.0" fill="#FFFFFF" stroke="black" id="4"/>
  <ellipse cx="0.0" cy="366.6157134358252" rx="8.0" ry="8.0" fill="#FFFFFF" stroke="black" id="5"/>
  <ellipse cx="305.39000774808005" cy="363.4770145154032" rx="8.0" ry="8.0" fill="#FFFFFF" stroke="black" id="6"/>
  <ellipse cx="29.866120319573326" cy="144.43988165949511" rx="8.0" ry="8.0" fill="#FFFFFF" stroke="black" id="7"/>
  <ellipse cx="307.69745495942345" cy="278.3934834926723" rx="8.0" ry="8.0" fill="#FFFFFF" stroke="black" id="8"/>
  <ellipse cx="446.0258570682221" cy="446.13706560694015" rx="8.0" ry="8.0" fill="#FFFFFF" stroke="black" id="9"/>
  <ellipse cx="181.71067532339842" cy="354.57611647287195" rx="8.0" ry="8.0" fill="#d62728" stroke="black" id="10"/>
  <ellipse cx="187.90917479119676" cy="0.0" rx="8.0" ry="8.0" fill="#d62728" stroke="black" id="11"/>
  <ellipse cx="257.2579742045091" cy="550.6559003956694" rx="8.0" ry="8.0" fill="#FFFFFF" stroke="black" id="12"/>
  <ellipse cx="416.2982616137299" cy="122.743014800635" rx="8.0" ry="8.0" fill="#FFFFFF" stroke="black" id="13"/>
  <ellipse cx="15.8643908087044" cy="544.3462115270368" rx="8.0" ry="8.0" fill="#FFFFFF" stroke="black" id="14"/>
</svg>
