<?xml version="1.0" ?>
<svg xmlns="http://www.w3.org/2000/svg" version="1.1" width="600.0" height="600.0" viewBox="-12.0 -12.0 600.0 600.0">
  <path d="M167.422980,575.999826 L-0.000051,185.317490" fill="none" stroke="black" id="0-4"/>
  <path d="M167.422980,575.999826 L576.000237,496.697286" fill="none" stroke="black" id="0-6"/>
  <path d="M167.422980,575.999826 L371.456190,253.469731" fill="none" stroke="black" id="0-10"/>
  <path d="M164.576981,445.699011 L238.791314,291.038818" fill="none" stroke="black" id="1-3"/>
  <path d="M164.576981,445.699011 L-0.000051,185.317490" fill="none" stroke="black" id="1-4"/>
  <path d="M164.576981,445.699011 L576.000237,496.697286" fill="none" stroke="black" id="1-6"/>
  <path d="M164.576981,445.699011 L397.780064,384.279706" fill="none" stroke="black" id="1-8"/>
  <path d="M164.576981,445.699011 L548.281709,257.723909" fill="none" stroke="black" id="1-9"/>
  <path d="M164.576981,445.699011 L371.456190,253.469731" fill="none" stroke="black" id="1-10"/>
  <path d="M387.980760,84.205171 L238.791314,291.038818" fill="none" stroke="black" id="2-3"/>
  <path d="M387.980760,84.205171 L254.059084,179.079799" fill="none" stroke="black" id="2-5"/>
  <path d="M387.980760,84.205171 L244.147692,108.582258" fill="none" stroke="black" id="2-13"/>
  <path d="M-0.000051,185.317490 L254.059084,179.079799" fill="none" stroke="black" id="4-5"/>
  <path d="M-0.000051,185.317490 L244.147692,108.582258" fill="none" stroke="black" id="4-13"/>
  <path d="M576.000237,496.697286 L437.392778,447.607256" fill="none" stroke="black" id="6-7"/>
  <path d="M576.000237,496.697286 L397.780064,384.279706" fill="none" stroke="black" id="6-8"/>
  <path d="M576.000237,496.697286 L336.260635,499.493558" fill="none" stroke="black" id="6-11"/>
  <path d="M576.000237,496.697286 L447.950929,0.000143" fill="none" stroke="black" id="6-12"/>
  <path d="M576.000237,496.697286 L376.628976,306.428748" fill="none" stroke="black" id="6-14"/>
  <path d="M437.392778,447.607256 L397.780064,384.279706" fill="none" stroke="black" id="7-8"/>
  <path d="M397.780064,384.279706 L548.281709,257.723909" fill="none" stroke="black" id="8-9"/>
  <path d="M397.780064,384.279706 L336.260635,499.493558" fill="none" stroke="black" id="8-11"/>
  <path d="M548.281709,257.723909 L371.456190,253.469731" fill="none" stroke="black" id="9-10"/>
  <path d="M548.281709,257.723909 L510.509424,111.206490" fill="none" stroke="black" id="9-15"/>
  <path d="M371.456190,253.469731 L510.509424,111.206490" fill="none" stroke="black" id="10-15"/>
  <ellipse cx="167.4229400312502" cy="576.0" rx="8.0" ry="8.0" fill="#FFFFFF" stroke="black" id="0"/>
  <ellipse cx="164.57682918439335" cy="445.69895256804904" rx="8.0" ry="8.0" fill="#FFFFFF" stroke="black" id="1"/>
  <ellipse cx="387.9805477710528" cy="84.20505822587798" rx="8.0" ry="8.0" fill="#FFFFFF" stroke="black" id="2"/>
  <ellipse cx="238.79158929835185" cy="291.0385218707814" rx="8.0" ry="8.0" fill="#FFFFFF" stroke="black" id="3"/>
  <ellipse cx="0.0" cy="185.31725456840047" rx="8.0" ry="8.0" fill="#FFFFFF" stroke="black" id="4"/>
  <ellipse cx="254.0591090516982" cy="179.07955290714483" rx="8.0" ry="8.0" fill="#FFFFFF" stroke="black" id="5"/>
  <ellipse cx="576.0" cy="496.69728544937396" rx="8.0" ry="8.0" fill="#FFFFFF" stroke="black" id="6"/>
  <ellipse cx="437.392658616964" cy="447.60709684199907" rx="8.0" ry="8.0" fill="#FFFFFF" stroke="black" id="7"/>
  <ellipse cx="397.7799247002183" cy="384.2797846038745" rx="8.0" ry="8.0" fill="#FFFFFF" stroke="black" id="8"/>
  <ellipse cx="548.281710727349" cy="257.7236224482021" rx="8.0" ry="8.0" fill="#FFFFFF" stroke="black" id="9"/>
  <ellipse cx="371.4559326460384" cy="253.46975185667196" rx="8.0" ry="8.0" fill="#FFFFFF" stroke="black" id="10"/>
  <ellipse cx="336.2606051395944" cy="499.49358805122705" rx="8.0" ry="8.0" fill="#FFFFFF" stroke="black" id="11"/>
  <ellipse cx="447.95073203108757" cy="0.0" rx="8.0" ry="8.0" fill="#FFFFFF" stroke="black" id="12"/>
  <ellipse cx="244.1475378858698" cy="108.58216049416775" rx="8.0" ry="8.0" fill="#d62728" stroke="black" id="13"/>
  <ellipse cx="376.6288623294711" cy="306.4288036058547" rx="8.0" ry="8.0" fill="#FFFFFF" stroke="black" id="14"/>
  <ellipse cx="510.5094563085836" cy="111.2067658297107" rx="8.0" ry="8.0" fill="#d62728" stroke="black" id="15"/>
</svg>
