<?xml version="1.0" ?>
<svg xmlns="http://www.w3.org/2000/svg" version="1.1" width="600.0" height="600.0" viewBox="-12.0 -12.0 600.0 600.0">
  <path d="M228.377102,302.977184 L240.398200,153.317595" fill="none" stroke="#c43c24" id="0-1"/>
  <path d="M228.377102,302.977184 L220.592360,433.852574" fill="none" stroke="#c43c24" id="0-10"/>
  <path d="M240.398200,153.317595 L0.000000,22.544894" fill="none" stroke="black" id="1-4"/>
  <path d="M116.569712,0.000172 L211.509441,98.501075" fill="none" stroke="black" id="2-11"/>
  <path d="M116.569712,0.000172 L256.338130,54.684968" fill="none" stroke="black" id="2-13"/>
  <path d="M249.130115,576.000324 L447.669665,326.106168" fill="none" stroke="black" id="3-5"/>
  <path d="M249.130115,576.000324 L188.225414,519.903385" fill="none" stroke="black" id="3-9"/>
  <path d="M249.130115,576.000324 L504.798096,182.486786" fill="none" stroke="black" id="3-12"/>
  <path d="M249.130115,576.000324 L364.692714,342.441425" fill="none" stroke="black" id="3-15"/>
  <path d="M0.000000,22.544894 L188.225414,519.903385" fill="none" stroke="black" id="4-9"/>
  <path d="M447.669665,326.106168 L382.450848,283.254625" fill="none" stroke="black" id="5-7"/>
  <path d="M576.000192,102.108627 L211.509441,98.501075" fill="none" stroke="black" id="6-11"/>
  <path d="M382.450848,283.254625 L302.173932,257.981931" fill="none" stroke="black" id="7-8"/>
  <path d="M382.450848,283.254625 L256.338130,54.684968" fill="none" stroke="black" id="7-13"/>
  <path d="M302.173932,257.981931 L256.338130,54.684968" fill="none" stroke="black" id="8-13"/>
  <path d="M302.173932,257.981931 L252.711982,499.743868" fill="none" stroke="#c43c24" id="8-14"/>
  <path d="M302.173932,257.981931 L364.692714,342.441425" fill="none" stroke="#c43c24" id="8-15"/>
  <path d="M188.225414,519.903385 L211.509441,98.501075" fill="none" stroke="black" id="9-11"/>
  <path d="M220.592360,433.852574 L364.692714,342.441425" fill="none" stroke="#c43c24" id="10-15"/>
  <path d="M256.338130,54.684968 L364.692714,342.441425" fill="none" stroke="black" id="13-15"/>
  <ellipse cx="228.37725477382696" cy="302.9771547921304" rx="8.0" ry="8.0" fill="#FFFFFF" stroke="black" id="0"/>
  <ellipse cx="240.39806443723285" cy="153.3178035683676" rx="8.0" ry="8.0" fill="#d62728" stroke="black" id="1"/>
  <ellipse cx="116.56954883480857" cy="0.0" rx="8.0" ry="8.0" fill="#FFFFFF" stroke="black" id="2"/>
  <ellipse cx="249.13034745711718" cy="576.0" rx="8.0" ry="8.0" fill="#FFFFFF" stroke="black" id="3"/>
  <ellipse cx="0.0" cy="22.54459483113766" rx="8.0" ry="8.0" fill="#FFFFFF" stroke="black" id="4"/>
  <ellipse cx="447.6696902201786" cy="326.10586695260855" rx="8.0" ry="8.0" fill="#FFFFFF" stroke="black" id="5"/>
  <ellipse cx="576.0" cy="102.10863958338746" rx="8.0" ry="8.0" fill="#FFFFFF" stroke="black" id="6"/>
  <ellipse cx="382.450961963051" cy="283.2544184537791" rx="8.0" ry="8.0" fill="#FFFFFF" stroke="black" id="7"/>
  <ellipse cx="302.1741047569399" cy="257.9820481877323" rx="8.0" ry="8.0" fill="#FFFFFF" stroke="black" id="8"/>
  <ellipse cx="188.2253417680905" cy="519.9036094646622" rx="8.0" ry="8.0" fill="#FFFFFF" stroke="black" id="9"/>
  <ellipse cx="220.59260485411028" cy="433.8522498526284" rx="8.0" ry="8.0" fill="#FFFFFF" stroke="black" id="10"/>
  <ellipse cx="211.50956027329886" cy="98.5009606169321" rx="8.0" ry="8.0" fill="#FFFFFF" stroke="black" id="11"/>
  <ellipse cx="504.79787751393576" cy="182.48677074209718" rx="8.0" ry="8.0" fill="#FFFFFF" stroke="black" id="12"/>
  <ellipse cx="256.3378712240662" cy="54.68485739729584" rx="8.0" ry="8.0" fill="#FFFFFF" stroke="black" id="13"/>
  <ellipse cx="252.71177885213007" cy="499.74370287630023" rx="8.0" ry="8.0" fill="#d62728" stroke="black" id="14"/>
  <ellipse cx="364.69273838748404" cy="342.441316361058" rx="8.0" ry="8.0" fill="#FFFFFF" stroke="black" id="15"/>
</svg>
