<?xml version="1.0" ?>
<svg xmlns="http://www.w3.org/2000/svg" version="1.1" width="600.0000000000001" height="600.0" viewBox="-12.0 -12.0 600.0000000000001 600.0">
  <path d="M364.513103,454.984013 L0.000271,497.715663" fill="none" stroke="black" id="0-1"/>
  <path d="M364.513103,454.984013 L268.967035,433.772736" fill="none" stroke="black" id="0-2"/>
  <path d="M364.513103,454.984013 L347.538248,385.689122" fill="none" stroke="black" id="0-6"/>
  <path d="M0.000271,497.715663 L268.967035,433.772736" fill="none" stroke="black" id="1-2"/>
  <path d="M0.000271,497.715663 L473.678362,0.000000" fill="none" stroke="black" id="1-11"/>
  <path d="M268.967035,433.772736 L346.439027,532.337509" fill="none" stroke="#c43c24" id="2-7"/>
  <path d="M268.967035,433.772736 L483.900779,562.843772" fill="none" stroke="#c43c24" id="2-8"/>
  <path d="M268.967035,433.772736 L160.960688,386.462176" fill="none" stroke="black" id="2-14"/>
  <path d="M313.508010,245.887608 L179.921124,99.521768" fill="none" stroke="#c43c24" id="3-4"/>
  <path d="M313.508010,245.887608 L347.538248,385.689122" fill="none" stroke="black" id="3-6"/>
  <path d="M313.508010,245.887608 L483.900779,562.843772" fill="none" stroke="#c43c24" id="3-8"/>
  <path d="M313.508010,245.887608 L473.678362,0.000000" fill="none" stroke="black" id="3-11"/>
  <path d="M508.674360,278.321134 L483.900779,562.843772" fill="none" stroke="black" id="5-8"/>
  <path d="M508.674360,278.321134 L473.678362,0.000000" fill="none" stroke="black" id="5-11"/>
  <path d="M347.538248,385.689122 L160.960688,386.462176" fill="none" stroke="black" id="6-14"/>
  <path d="M346.439027,532.337509 L464.187444,463.778378" fill="none" stroke="#c43c24" id="7-9"/>
  <path d="M464.187444,463.778378 L361.696349,273.129722" fill="none" stroke="black" id="9-12"/>
  <path d="M575.999956,440.318100 L473.678362,0.000000" fill="none" stroke="black" id="10-11"/>
  <path d="M575.999956,440.318100 L558.937253,576.000238" fill="none" stroke="black" id="10-13"/>
  <path d="M473.678362,0.000000 L160.960688,386.462176" fill="none" stroke="black" id="11-14"/>
  <path d="M473.678362,0.000000 L461.642680,396.650315" fill="none" stroke="black" id="11-15"/>
  <ellipse cx="364.51293537611895" cy="454.98402526053457" rx="8.0" ry="8.0" fill="#FFFFFF" stroke="black" id="0"/>
  <ellipse cx="0.0" cy="497.71595285015565" rx="8.0" ry="8.0" fill="#FFFFFF" stroke="black" id="1"/>
  <ellipse cx="268.9669158324214" cy="433.7726267269467" rx="8.0" ry="8.0" fill="#FFFFFF" stroke="black" id="2"/>
  <ellipse cx="313.5082557957402" cy="245.88768145563844" rx="8.0" ry="8.0" fill="#FFFFFF" stroke="black" id="3"/>
  <ellipse cx="179.9208863670219" cy="99.52185995950364" rx="8.0" ry="8.0" fill="#d62728" stroke="black" id="4"/>
  <ellipse cx="508.674516986572" cy="278.32111232872563" rx="8.0" ry="8.0" fill="#FFFFFF" stroke="black" id="5"/>
  <ellipse cx="347.5384113803197" cy="385.6889396226338" rx="8.0" ry="8.0" fill="#FFFFFF" stroke="black" id="6"/>
  <ellipse cx="346.43924267692444" cy="532.3373527416801" rx="8.0" ry="8.0" fill="#FFFFFF" stroke="black" id="7"/>
  <ellipse cx="483.9006715051533" cy="562.8439670285959" rx="8.0" ry="8.0" fill="#FFFFFF" stroke="black" id="8"/>
  <ellipse cx="464.1872465595378" cy="463.7785288213907" rx="8.0" ry="8.0" fill="#d62728" stroke="black" id="9"/>
  <ellipse cx="576.0000000000001" cy="440.31837699032394" rx="8.0" ry="8.0" fill="#FFFFFF" stroke="black" id="10"/>
  <ellipse cx="473.6782410989916" cy="0.0" rx="8.0" ry="8.0" fill="#FFFFFF" stroke="black" id="11"/>
  <ellipse cx="361.69641972532565" cy="273.1297159418718" rx="8.0" ry="8.0" fill="#FFFFFF" stroke="black" id="12"/>
  <ellipse cx="558.9371960027472" cy="576.0" rx="8.0" ry="8.0" fill="#FFFFFF" stroke="black" id="13"/>
  <ellipse cx="160.96049226238816" cy="386.4620376889261" rx="8.0" ry="8.0" fill="#FFFFFF" stroke="black" id="14"/>
  <ellipse cx="461.6428448709868" cy="396.65013320976266" rx="8.0" ry="8.0" fill="#FFFFFF" stroke="black" id="15"/>
</svg>
