<?xml version="1.0" ?>
<svg xmlns="http://www.w3.org/2000/svg" version="1.1" width="600.0" height="600.0" viewBox="-12.0 -12.0 600.0 600.0">
  <path d="M511.910475,369.103079 L525.919891,448.211043" fill="none" stroke="#c43c24" id="0-1"/>
  <path d="M511.910475,369.103079 L222.423873,449.851154" fill="none" stroke="black" id="0-10"/>
  <path d="M525.919891,448.211043 L575.999965,133.823842" fill="none" stroke="#c43c24" id="1-4"/>
  <path d="M131.434433,204.249961 L302.526475,252.442484" fill="none" stroke="black" id="2-11"/>
  <path d="M131.434433,204.249961 L150.169898,39.925823" fill="none" stroke="black" id="2-13"/>
  <path d="M483.026890,204.382617 L175.351660,346.882091" fill="none" stroke="black" id="3-5"/>
  <path d="M483.026890,204.382617 L470.548412,5.913794" fill="none" stroke="black" id="3-9"/>
  <path d="M483.026890,204.382617 L490.146058,575.999947" fill="none" stroke="black" id="3-12"/>
  <path d="M483.026890,204.382617 L176.316726,137.785983" fill="none" stroke="black" id="3-15"/>
  <path d="M575.999965,133.823842 L470.548412,5.913794" fill="none" stroke="#c43c24" id="4-9"/>
  <path d="M175.351660,346.882091 L0.000154,234.052626" fill="none" stroke="black" id="5-7"/>
  <path d="M353.425518,233.924355 L302.526475,252.442484" fill="none" stroke="#c43c24" id="6-11"/>
  <path d="M0.000154,234.052626 L309.387401,0.000184" fill="none" stroke="black" id="7-8"/>
  <path d="M0.000154,234.052626 L150.169898,39.925823" fill="none" stroke="black" id="7-13"/>
  <path d="M309.387401,0.000184 L150.169898,39.925823" fill="none" stroke="black" id="8-13"/>
  <path d="M309.387401,0.000184 L420.720408,162.322970" fill="none" stroke="black" id="8-14"/>
  <path d="M309.387401,0.000184 L176.316726,137.785983" fill="none" stroke="black" id="8-15"/>
  <path d="M470.548412,5.913794 L302.526475,252.442484" fill="none" stroke="#c43c24" id="9-11"/>
  <path d="M222.423873,449.851154 L176.316726,137.785983" fill="none" stroke="black" id="10-15"/>
  <path d="M150.169898,39.925823 L176.316726,137.785983" fill="none" stroke="black" id="13-15"/>
  <ellipse cx="511.9104034608072" cy="369.1030572425793" rx="8.0" ry="8.0" fill="#d62728" stroke="black" id="0"/>
  <ellipse cx="525.9201021806257" cy="448.2109674284339" rx="8.0" ry="8.0" fill="#FFFFFF" stroke="black" id="1"/>
  <ellipse cx="131.43449374652798" cy="204.2498916548812" rx="8.0" ry="8.0" fill="#FFFFFF" stroke="black" id="2"/>
  <ellipse cx="483.02668859374364" cy="204.3828429557954" rx="8.0" ry="8.0" fill="#FFFFFF" stroke="black" id="3"/>
  <ellipse cx="576.0" cy="133.82383539833006" rx="8.0" ry="8.0" fill="#FFFFFF" stroke="black" id="4"/>
  <ellipse cx="175.35142971540867" cy="346.8822215447813" rx="8.0" ry="8.0" fill="#FFFFFF" stroke="black" id="5"/>
  <ellipse cx="353.42574910577355" cy="233.92436925614328" rx="8.0" ry="8.0" fill="#d62728" stroke="black" id="6"/>
  <ellipse cx="0.0" cy="234.05270231134358" rx="8.0" ry="8.0" fill="#FFFFFF" stroke="black" id="7"/>
  <ellipse cx="309.38743219139474" cy="0.0" rx="8.0" ry="8.0" fill="#FFFFFF" stroke="black" id="8"/>
  <ellipse cx="470.548245114318" cy="5.9137396843179175" rx="8.0" ry="8.0" fill="#FFFFFF" stroke="black" id="9"/>
  <ellipse cx="222.4240253588275" cy="449.85099947223915" rx="8.0" ry="8.0" fill="#FFFFFF" stroke="black" id="10"/>
  <ellipse cx="302.5262968952419" cy="252.44256599456293" rx="8.0" ry="8.0" fill="#FFFFFF" stroke="black" id="11"/>
  <ellipse cx="490.14610522586986" cy="576.0" rx="8.0" ry="8.0" fill="#FFFFFF" stroke="black" id="12"/>
  <ellipse cx="150.16977945066506" cy="39.925948430793696" rx="8.0" ry="8.0" fill="#FFFFFF" stroke="black" id="13"/>
  <ellipse cx="420.72049667276553" cy="162.3231354853886" rx="8.0" ry="8.0" fill="#FFFFFF" stroke="black" id="14"/>
  <ellipse cx="176.31666486397603" cy="137.78582048483463" rx="8.0" ry="8.0" fill="#FFFFFF" stroke="black" id="15"/>
</svg>
