<?xml version='1.0' encoding='utf-8'?>
<svg xmlns="http://www.w3.org/2000/svg" version="1.1" width="600.0" height="600.0" viewBox="-7.5 -7.5 600.0 600.0">
  <path d="M278.685776,577.217396 L233.044428,369.129241" fill="none" stroke="black" id="0-2" />
  <path d="M278.685776,577.217396 L433.830690,400.080690" fill="none" stroke="black" id="0-5" />
  <path d="M278.685776,577.217396 L0.000000,0.000000" fill="none" stroke="black" id="0-6" />
  <path d="M453.853902,585.000000 L433.830690,400.080690" fill="none" stroke="black" id="1-5" />
  <path d="M453.853902,585.000000 L0.000000,0.000000" fill="none" stroke="black" id="1-6" />
  <path d="M453.853902,585.000000 L169.888570,252.576679" fill="none" stroke="black" id="1-8" />
  <path d="M233.044428,369.129241 L489.351167,497.553271" fill="none" stroke="black" id="2-7" />
  <path d="M481.689682,556.415249 L169.888570,252.576679" fill="none" stroke="black" id="3-8" />
  <path d="M481.689682,556.415249 L288.331677,205.712155" fill="none" stroke="black" id="3-9" />
  <path d="M585.000000,390.505932 L489.351167,497.553271" fill="none" stroke="black" id="4-7" />
  <path d="M433.830690,400.080690 L0.000000,0.000000" fill="none" stroke="black" id="5-6" />
  <path d="M433.830690,400.080690 L288.331677,205.712155" fill="none" stroke="black" id="5-9" />
  <path d="M0.000000,0.000000 L489.351167,497.553271" fill="none" stroke="black" id="6-7" />
  <ellipse cx="278.68577629232203" cy="577.2173962898426" rx="6" ry="6" fill="black" stroke="black" id="0" />
  <ellipse cx="453.85390214234656" cy="585.0" rx="6" ry="6" fill="black" stroke="black" id="1" />
  <ellipse cx="233.04442838726948" cy="369.12924068519135" rx="6" ry="6" fill="black" stroke="black" id="2" />
  <ellipse cx="481.6896816224612" cy="556.4152486577707" rx="6" ry="6" fill="#d62728" stroke="black" id="3" />
  <ellipse cx="585.0" cy="390.5059316422133" rx="6" ry="6" fill="#d62728" stroke="black" id="4" />
  <ellipse cx="433.8306897270454" cy="400.0806901657713" rx="6" ry="6" fill="black" stroke="black" id="5" />
  <ellipse cx="0.0" cy="0.0" rx="6" ry="6" fill="black" stroke="black" id="6" />
  <ellipse cx="489.35116736969746" cy="497.55327075783254" rx="6" ry="6" fill="black" stroke="black" id="7" />
  <ellipse cx="169.88857028838135" cy="252.57667876501253" rx="6" ry="6" fill="black" stroke="black" id="8" />
  <ellipse cx="288.3316769248499" cy="205.71215505236117" rx="6" ry="6" fill="black" stroke="black" id="9" />
</svg>