<?xml version="1.0" ?>
<svg xmlns="http://www.w3.org/2000/svg" version="1.1" width="600.0" height="600.0" viewBox="-12.0 -12.0 600.0 600.0">
  <path d="M116.010956,300.227322 L257.984718,467.271796" fill="none" stroke="black"/>
  <path d="M116.010956,300.227322 L356.276814,355.118062" fill="none" stroke="black"/>
  <path d="M116.010956,300.227322 L195.290822,137.705328" fill="none" stroke="black"/>
  <path d="M116.010956,300.227322 L39.991618,483.265454" fill="none" stroke="black"/>
  <path d="M116.010956,300.227322 L268.632485,302.833659" fill="none" stroke="black"/>
  <path d="M116.010956,300.227322 L0.000000,0.000000" fill="none" stroke="black"/>
  <path d="M116.010956,300.227322 L201.591980,576.000000" fill="none" stroke="black"/>
  <path d="M257.984718,467.271796 L528.534360,494.474976" fill="none" stroke="black"/>
  <path d="M257.984718,467.271796 L195.290822,137.705328" fill="none" stroke="black"/>
  <path d="M257.984718,467.271796 L39.991618,483.265454" fill="none" stroke="black"/>
  <path d="M257.984718,467.271796 L201.591980,576.000000" fill="none" stroke="black"/>
  <path d="M576.000000,257.374046 L528.534360,494.474976" fill="none" stroke="black"/>
  <path d="M576.000000,257.374046 L268.632485,302.833659" fill="none" stroke="black"/>
  <path d="M528.534360,494.474976 L356.276814,355.118062" fill="none" stroke="black"/>
  <path d="M356.276814,355.118062 L195.290822,137.705328" fill="none" stroke="black"/>
  <path d="M356.276814,355.118062 L268.632485,302.833659" fill="none" stroke="black"/>
  <path d="M356.276814,355.118062 L201.591980,576.000000" fill="none" stroke="black"/>
  <path d="M195.290822,137.705328 L268.632485,302.833659" fill="none" stroke="black"/>
  <path d="M195.290822,137.705328 L0.000000,0.000000" fill="none" stroke="black"/>
  <path d="M39.991618,483.265454 L268.632485,302.833659" fill="none" stroke="black"/>
  <path d="M268.632485,302.833659 L201.591980,576.000000" fill="none" stroke="black"/>
  <ellipse cx="116.01095587278319" cy="300.22732172556744" rx="8.0" ry="8.0" fill="#FFFFFF" stroke="black" id="0"/>
  <ellipse cx="257.9847176551424" cy="467.2717957457294" rx="8.0" ry="8.0" fill="#FFFFFF" stroke="black" id="1"/>
  <ellipse cx="576.0" cy="257.3740456315793" rx="8.0" ry="8.0" fill="#d62728" stroke="black" id="2"/>
  <ellipse cx="528.5343599444676" cy="494.47497644200456" rx="8.0" ry="8.0" fill="#FFFFFF" stroke="black" id="3"/>
  <ellipse cx="356.27681413120547" cy="355.1180618054377" rx="8.0" ry="8.0" fill="#FFFFFF" stroke="black" id="4"/>
  <ellipse cx="195.29082242766776" cy="137.70532783497754" rx="8.0" ry="8.0" fill="#FFFFFF" stroke="black" id="5"/>
  <ellipse cx="39.99161824897083" cy="483.26545353632724" rx="8.0" ry="8.0" fill="#FFFFFF" stroke="black" id="6"/>
  <ellipse cx="268.63248549663246" cy="302.83365915493727" rx="8.0" ry="8.0" fill="#FFFFFF" stroke="black" id="7"/>
  <ellipse cx="0.0" cy="0.0" rx="8.0" ry="8.0" fill="#d62728" stroke="black" id="8"/>
  <ellipse cx="201.59198041441135" cy="576.0" rx="8.0" ry="8.0" fill="#FFFFFF" stroke="black" id="9"/>
</svg>
